<?xml version="1.0" standalone="no"?>
<!DOCTYPE svg PUBLIC "-//W3C//DTD SVG 1.1//EN" "http://www.w3.org/Graphics/SVG/1.1/DTD/svg11.dtd" >
<svg>
<font id="ProggyVector-Regular" horiz-adv-x="60.205078" >
<font-face units-per-em="100" ascent="80" descent="-20" />
<glyph unicode=" " horiz-adv-x="60.205078" d="" />
<glyph unicode="!" horiz-adv-x="60.205078" d="M23.98016 61.78639 C23.98016 64.99629 23.98016 71.41611 23.98016 74.62601 C26.90638 74.62601 32.75882 74.62601 35.68504 74.62601 C35.68504 71.41611 35.68504 64.99629 35.68504 61.78639 C35.23754 52.64278 34.34254 34.35556 33.89504 25.21195 C31.95502 25.21195 28.075 25.21195 26.13498 25.21195 C25.59628 34.35556 24.51886 52.64278 23.98016 61.78639 zM30.18558 -0.46045 Q27.05795 -0.47614 24.99189 1.6582 Q22.92628 3.70319 22.90856 7.23294 Q22.89108 10.71801 24.93606 12.78362 Q27.0255 14.89413 30.10844 14.90961 Q33.19139 14.92508 35.30191 12.83564 Q37.36752 10.79065 37.38501 7.30558 Q37.40272 3.77583 35.35774 1.71022 Q33.3132 -0.44475 30.18558 -0.46045 z" />
<glyph unicode="&#x22;" horiz-adv-x="60.205078" d="M16.50391 72.90039 C18.62793 72.90039 22.87598 72.90039 25 72.90039 C25 66.12549 25 52.57568 25 45.80078 C22.87598 45.80078 18.62793 45.80078 16.50391 45.80078 C16.50391 52.57568 16.50391 66.12549 16.50391 72.90039 zM35.20508 72.90039 C37.3291 72.90039 41.57715 72.90039 43.70117 72.90039 C43.70117 66.12549 43.70117 52.57568 43.70117 45.80078 C41.57715 45.80078 37.3291 45.80078 35.20508 45.80078 C35.20508 52.57568 35.20508 66.12549 35.20508 72.90039 z" />
<glyph unicode="#" horiz-adv-x="60.205078" d="M12.69531 20.70867 C9.5459 20.70867 3.24707 20.70867 0.09766 20.70867 C0.09766 22.57635 0.09766 26.3117 0.09766 28.17937 C3.72314 28.17937 10.97412 28.17937 14.59961 28.17937 C15.625 32.25652 17.67578 40.41082 18.70117 44.48797 C15.4541 44.48797 8.95996 44.48797 5.71289 44.48797 C5.71289 46.36785 5.71289 50.12762 5.71289 52.0075 C9.41162 52.0075 16.80908 52.0075 20.50781 52.0075 C21.77734 57.07342 24.31641 67.20525 25.58594 72.27117 C27.53906 72.27117 31.44531 72.27117 33.39844 72.27117 C32.12891 67.20525 29.58984 57.07342 28.32031 52.0075 C31.31103 52.0075 37.29248 52.0075 40.2832 52.0075 C41.56494 57.07342 44.12842 67.20525 45.41016 72.27117 C47.36328 72.27117 51.26953 72.27117 53.22266 72.27117 C51.94092 67.20525 49.37744 57.07342 48.0957 52.0075 C51.07422 52.0075 57.03125 52.0075 60.00977 52.0075 C60.00977 50.12762 60.00977 46.36785 60.00977 44.48797 C56.57959 44.48797 49.71924 44.48797 46.28906 44.48797 C45.26367 40.41082 43.21289 32.25652 42.1875 28.17937 C45.23926 28.17937 51.34277 28.17937 54.39453 28.17937 C54.39453 26.3117 54.39453 22.57635 54.39453 20.70867 C50.8667 20.70867 43.81104 20.70867 40.2832 20.70867 C39.01367 15.65496 36.47461 5.54754 35.20508 0.49383 C33.25195 0.49383 29.3457 0.49383 27.39258 0.49383 C28.67432 5.54754 31.23779 15.65496 32.51953 20.70867 C29.5166 20.70867 23.51074 20.70867 20.50781 20.70867 C19.22607 15.65496 16.6626 5.54754 15.38086 0.49383 C13.43994 0.49383 9.55811 0.49383 7.61719 0.49383 C8.88672 5.54754 11.42578 15.65496 12.69531 20.70867 zM34.42383 27.68555 C35.43701 31.7627 37.46338 39.91699 38.47656 43.99414 C35.48584 43.99414 29.50439 43.99414 26.51367 43.99414 C25.48828 39.91699 23.4375 31.7627 22.41211 27.68555 C25.41504 27.68555 31.4209 27.68555 34.42383 27.68555 z" />
<glyph unicode="$" horiz-adv-x="60.205078" d="M27 4 Q26.41406 4.09766 23.75195 4.47559 Q21.08984 4.85352 18.59961 5.39063 Q14.00977 6.41602 8.88281 8.51563 C8.88281 11.44531 8.88281 15.10742 8.88281 17.30469 Q11.51953 15.69336 13.86328 14.59473 Q16.20703 13.49609 18.74609 12.66602 Q22.55664 11.09766 27 11 C27 18.45443 27 27.77246 27 33.36328 Q22.60547 34.14453 19.47949 35.56348 Q16.35352 36.98242 13.81445 39.27734 Q8.88281 43.7207 8.88281 51.09375 Q8.88281 58.71094 14.05859 63.30078 Q19.62695 68.31641 27 69 C27 70.99177 27 73.48148 27 74.97531 C29 74.97531 33 74.97531 35 74.97531 C35 73.48148 35 70.49383 35 69 Q35.04883 68.90234 37.24902 68.39648 Q39.44922 67.89063 41.25586 67.54883 Q43.25781 67.1582 45.25977 66.66992 Q47.26172 66.18164 49.3125 65.54688 C49.3125 62.73112 49.3125 59.21143 49.3125 57.09961 Q47.16406 58.22266 44.91797 59.10156 Q42.67188 59.98047 41.25586 60.37109 Q39.5957 60.85938 38.0791 61.14941 Q36.5625 61.43945 35 61.53711 C35 54.52214 35 45.75342 35 40.49219 Q44.61914 38.92969 48.72656 34.39453 Q54 29.60938 54 22.23633 Q54 14.66797 48.33594 9.58984 Q42.37305 4.43945 35 4 C35 2.00823 35 -0.48148 35 -1.97531 C33.05273 -1.97531 29.1582 -1.97531 27.21094 -1.97531 C27.1582 -0.48148 27.05273 2.50617 27 4 zM27 61.83008 Q22.39453 61.33984 20 58 Q18 55 17.7207 51.58203 Q17.59375 48.10742 20 45 Q22.98828 42.44726 27 41.66406 C27 48.38607 27 56.78857 27 61.83008 zM35 11 Q40.39453 11.97656 43 14 Q46 18 46 23 Q46 27 43 30 Q40 32 35 32.19141 C35 25.1276 35 16.29785 35 11 z" />
<glyph unicode="%" horiz-adv-x="60.205078" d="M15.11236 44.39972 Q12.27814 44.39972 9.86073 45.42087 Q7.44331 46.44202 5.69277 48.19256 Q1.85824 52.02708 1.85824 57.69551 Q1.85824 61.57172 3.60879 64.59349 Q5.35933 67.61526 8.36026 69.32412 Q11.40287 71.03299 15.15404 71.03299 Q17.82153 71.03299 20.28063 70.03268 Q22.69805 69.03236 24.57363 67.15678 Q26.49089 65.23952 27.4912 62.86378 Q28.49151 60.44637 28.49151 57.73719 Q28.49151 52.06876 24.65699 48.23424 Q22.90644 46.4837 20.44735 45.44171 Q17.98825 44.39972 15.11236 44.39972 zM15.05865 51.11497 Q17.78738 51.11497 19.73647 52.99318 Q20.55154 53.80826 21.10083 54.99543 Q21.65012 56.1826 21.65012 57.671 Q21.65012 60.36429 19.73647 62.27794 Q17.75194 64.15615 15.12953 64.15615 Q12.36536 64.15615 10.48715 62.31338 Q8.5735 60.4706 8.5735 57.63556 Q8.5735 54.83596 10.45171 52.95774 Q11.23135 52.17811 12.4008 51.64654 Q13.57025 51.11497 15.05865 51.11497 zM44.85905 1.86056 Q42.02484 1.86056 39.60742 2.88171 Q37.19001 3.90286 35.43946 5.6534 Q31.60494 9.48793 31.60494 15.15635 Q31.60494 19.03256 33.35548 22.05433 Q35.10603 25.0761 38.10696 26.78496 Q41.14957 28.49383 44.90073 28.49383 Q47.56823 28.49383 50.02733 27.49352 Q52.44474 26.49321 54.32033 24.61762 Q56.23759 22.70036 57.2379 20.32462 Q58.23821 17.90721 58.23821 15.19803 Q58.23821 9.5296 54.40368 5.69508 Q52.65314 3.94454 50.19404 2.90255 Q47.73495 1.86056 44.85905 1.86056 zM44.76166 8.55965 Q47.49038 8.55965 49.43947 10.43787 Q50.25455 11.25294 50.80384 12.44012 Q51.35313 13.62729 51.35313 15.11568 Q51.35313 17.80897 49.43947 19.72262 Q47.45495 21.60084 44.83253 21.60084 Q42.06837 21.60084 40.19016 19.75806 Q38.2765 17.91529 38.2765 15.08025 Q38.2765 12.28064 40.15472 10.40243 Q40.93435 9.62279 42.10381 9.09122 Q43.27326 8.55965 44.76166 8.55965 zM44.5992 71.08642 C46.91854 71.08642 51.55721 71.08642 53.87654 71.08642 C44.28182 53.78273 25.09236 19.17534 15.49764 1.87165 C13.16609 1.87165 8.50301 1.87165 6.17147 1.87165 C15.7784 19.17534 34.99227 53.78273 44.5992 71.08642 z" />
<glyph unicode="&#x26;" horiz-adv-x="60.205078" d="M26.95312 -1.46484 Q21.72852 -1.46484 17.30957 0.31738 Q12.89062 2.09961 9.66797 5.17578 Q6.54297 8.1543 4.63867 12.28027 Q2.73438 16.40625 2.73438 21.43555 Q2.73438 24.70703 3.58887 27.9541 Q4.44336 31.20117 6.15234 34.08203 Q9.47266 39.74609 16.30859 44.67773 Q13.76953 48.33984 12.69531 51.5625 Q11.52344 54.93164 11.52344 58.44727 Q11.52344 62.30469 12.79297 65.1123 Q14.0625 67.91992 16.40625 69.9707 Q21.24023 74.21875 29.6875 74.21875 Q32.86133 74.21875 36.08398 73.63281 Q38.76953 73.14453 42.67578 71.92383 C42.67578 68.94531 42.67578 65.22217 42.67578 62.98828 Q39.84375 64.94141 36.71875 65.82031 Q33.69141 66.69922 30.46875 66.69922 Q25.58594 66.69922 22.85156 64.50195 Q20.11719 62.30469 20.11719 58.44727 Q20.11719 55.71289 21.5332 52.49023 Q22.2168 51.02539 23.4375 49.02344 Q24.6582 47.02148 26.70898 44.28711 C33.47982 35.1888 41.94336 23.81592 47.02148 16.99219 Q48.92578 19.53125 49.85352 23.04688 Q50.78125 26.70898 50.78125 31.5918 Q50.78125 32.56836 50.75684 33.81348 Q50.73242 35.05859 50.63477 36.76758 C50.61849 36.88151 50.59814 37.02393 50.58594 37.10938 C52.58789 37.10938 56.5918 37.10938 58.59375 37.10938 C58.59375 36.6333 58.59375 35.68115 58.59375 35.20508 Q58.59375 27.19727 56.78711 21.43555 Q54.98047 15.47852 51.31836 11.18164 C54.08529 7.45443 57.54395 2.79541 59.61914 0 C57.01904 0 51.81885 0 49.21875 0 C48.2666 1.33057 46.3623 3.9917 45.41016 5.32227 Q43.45703 3.66211 41.35742 2.39258 Q39.25781 1.12305 36.76758 0.24414 Q34.7168 -0.48828 32.22656 -0.97656 Q29.73633 -1.46484 26.95312 -1.46484 zM28.56445 6.10352 Q30.76172 6.10352 33.00781 6.68945 Q35.5957 7.37305 37.40234 8.39844 Q38.57422 9.08203 39.59961 9.7168 Q40.67383 10.35156 40.74707 10.49805 Q40.82031 10.64453 41.21094 10.88867 C34.36825 20.20532 25.81489 31.85113 20.68287 38.83861 Q16.09303 35.12768 13.62305 31.68945 Q11.37695 27.68555 11.37695 23.0957 Q11.37695 15.82031 16.21094 10.98633 Q18.50586 8.69141 21.65527 7.39746 Q24.80469 6.10352 28.56445 6.10352 z" />
<glyph unicode="'" horiz-adv-x="60.205078" d="M26 73.09961 C28.25 73.09961 32.75 73.09961 35 73.09961 C35 66.32471 35 52.7749 35 46 C32.75 46 28.25 46 26 46 C26 52.7749 26 66.32471 26 73.09961 z" />
<glyph unicode="(" horiz-adv-x="60.205078" d="M31.02804 -8.49224 Q23.55734 3.373 20.04171 14.16401 Q16.42843 25.29683 16.42843 36.08784 Q16.42843 46.7812 20.04171 58.01167 Q21.89718 63.62691 24.58273 69.1689 Q27.26828 74.71089 31.02804 80.57026 C33.63221 80.57026 36.88742 80.57026 38.84054 80.57026 Q35.37375 74.66206 33.05441 69.26655 Q30.73507 63.87105 29.17257 58.4023 Q25.94992 47.17183 25.94992 36.08784 Q25.94992 13.91987 38.84054 -8.49224 C36.23638 -8.49224 32.98117 -8.49224 31.02804 -8.49224 z" />
<glyph unicode=")" horiz-adv-x="60.205078" d="M20.00651 -7.99841 Q26.40299 3.18323 29.72331 14.4137 Q31.23698 19.63831 32.06706 25.25354 Q32.89714 30.86878 32.89714 36.58167 Q32.89714 47.81214 29.72331 58.79847 Q28.20964 64.02308 25.79264 69.63831 Q23.37565 75.25354 20.00651 81.06409 C22.61068 81.06409 25.86589 81.06409 27.81901 81.06409 Q35.28971 69.49183 38.80534 58.5055 Q42.41862 47.27503 42.41862 36.58167 Q42.41862 25.79065 38.80534 14.56019 Q35.24089 3.52503 27.81901 -7.99841 C25.21484 -7.99841 21.95964 -7.99841 20.00651 -7.99841 z" />
<glyph unicode="*" horiz-adv-x="60.205078" d="M8.7939 54.08112 C12.99848 51.63784 21.40763 46.75128 25.6122 44.308 C25.61839 49.12475 25.63075 58.75825 25.63693 63.57499 C27.75051 63.57699 31.97766 63.58099 34.09123 63.58298 C34.1015 58.74574 34.12205 49.07125 34.13232 44.23401 C38.43067 46.70514 47.02737 51.6474 51.32572 54.11854 C52.38762 52.3135 54.51142 48.70343 55.57332 46.89839 C51.28534 44.41714 42.70937 39.45463 38.42139 36.97338 C42.68454 34.47149 51.21084 29.46772 55.47399 26.96584 C54.39983 25.18752 52.25151 21.63088 51.17734 19.85257 C46.90382 22.31138 38.35677 27.22901 34.08324 29.68783 C34.08938 24.61604 34.10165 14.47245 34.10778 9.40066 Q31.05223 9.36979 29.78014 9.39028 Q28.50804 9.41076 25.63674 9.40884 Q25.61205 11.61566 25.61205 17.76943 Q25.61205 23.92319 25.63693 29.64674 C19.96086 26.45062 12.86577 22.45548 8.60871 20.05839 C7.57976 21.82848 5.52186 25.36866 4.49291 27.13876 C8.71106 29.6065 17.14737 34.542 21.36552 37.00974 C17.15575 39.47963 8.73622 44.41941 4.52646 46.8893 C5.59332 48.68725 7.72704 52.28316 8.7939 54.08112 z" />
<glyph unicode="+" horiz-adv-x="60.205078" d="M25.80314 32.0624 C20.35236 32.0624 9.45079 32.0624 4 32.0624 C4 34.1376 4 38.28799 4 40.36319 C9.45079 40.36319 20.35236 40.36319 25.80314 40.36319 C25.80314 45.78311 25.80314 56.62295 25.80314 62.04287 C27.85393 62.04287 31.95549 62.04287 34.00627 62.04287 C34.00627 56.62295 34.00627 45.78311 34.00627 40.36319 C39.50013 40.36319 50.48784 40.36319 55.9817 40.36319 C55.9817 38.28799 55.9817 34.1376 55.9817 32.0624 C50.48784 32.0624 39.50013 32.0624 34.00627 32.0624 C34.00627 26.64248 34.00627 15.80264 34.00627 10.38272 C31.95549 10.38272 27.85393 10.38272 25.80314 10.38272 C25.80314 15.80264 25.80314 26.64248 25.80314 32.0624 z" />
<glyph unicode="," horiz-adv-x="60.205078" d="M30 0 Q27.036 0 25.04908 2.01667 Q23.06216 4.03335 23.06216 7.30247 Q23.06216 10.57159 25.11081 12.62024 Q27.15945 14.66889 30.12346 14.66889 Q33.08746 14.66889 35.13611 12.62024 Q37.18476 10.57159 37.18476 7.30247 Q37.21695 3.62065 37.07803 1.28676 Q36.93911 -1.04714 36.05572 -3.86479 Q34.74433 -7.14935 32.5836 -9.79155 Q30.42287 -12.43375 27.23153 -14.57772 Q26.27412 -13.05073 25.64927 -11.97459 Q25.02442 -10.89846 24.04618 -9.39573 Q26.82954 -7.35763 28.07925 -5.41365 Q29.32895 -3.46967 30 0 z" />
<glyph unicode="-" horiz-adv-x="60.205078" d="M8.06026 40.38272 C19.06988 40.38272 41.08914 40.38272 52.09877 40.38272 C52.12074 38.28704 52.16468 34.09568 52.18666 32 C41.17703 32 19.15777 32 8.14815 32 C8.12618 34.09568 8.08223 38.28704 8.06026 40.38272 z" />
<glyph unicode="." horiz-adv-x="60.205078" d="M30.1939 -0.08379 Q27.22989 -0.08379 25.18124 1.96486 Q23.1326 4.01351 23.1326 7.28263 Q23.1326 10.55175 25.18124 12.60039 Q27.22989 14.64904 30.1939 14.64904 Q33.1579 14.64904 35.20655 12.60039 Q37.25519 10.55175 37.25519 7.28263 Q37.25519 4.01351 35.20655 1.96486 Q33.1579 -0.08379 30.1939 -0.08379 z" />
<glyph unicode="/" horiz-adv-x="60.205078" d="M44.72266 77.17773 C47.04199 77.17773 51.68066 77.17773 54 77.17773 C44.40527 56.6333 25.21582 15.54443 15.62109 -5 C13.28955 -5 8.62646 -5 6.29492 -5 C15.90186 15.54443 35.11572 56.6333 44.72266 77.17773 z" />
<glyph unicode="0" horiz-adv-x="60.205078" d="M30.07812 -1.41602 Q18.35938 -1.41602 12.45117 8.1543 Q6.49414 17.77344 6.49414 36.37695 Q6.49414 55.0293 12.45117 64.64844 Q18.35938 74.21875 30.07812 74.21875 Q41.79688 74.21875 47.75391 64.64844 Q50.68359 59.96094 52.19727 52.9541 Q53.71094 45.94727 53.71094 36.37695 Q53.71094 26.80664 52.19727 19.82422 Q50.68359 12.8418 47.75391 8.1543 Q41.74805 -1.41602 30.07812 -1.41602 zM40.42969 58.81209 Q37.06055 66.28279 30.07812 66.28279 Q23.19336 66.28279 19.82422 58.86092 Q18.11523 55.19881 17.26074 49.65682 Q16.40625 44.11482 16.40625 36.2535 Q16.41975 31.37654 17.10817 26.53441 Q28.76543 42.73457 40.42969 58.81209 zM20.2105 14.89898 Q23.57964 7.42828 30.56207 7.42828 Q37.44683 7.42828 40.81597 14.85015 Q42.52496 18.51226 43.37945 24.05425 Q44.23394 29.59625 44.23394 37.45757 Q44.22044 42.33453 43.53202 47.17666 Q31.87476 30.9765 20.2105 14.89898 z" />
<glyph unicode="1" horiz-adv-x="60.205078" d="M16.0231 8.30078 C18.93018 8.30078 24.74435 8.30078 27.65143 8.30078 C27.65143 21.65229 27.65143 48.35531 27.65143 61.70681 C24.99307 59.47896 19.67635 55.02324 17.01799 52.79538 C16.97151 55.63483 16.87856 61.31372 16.83208 64.15316 C19.5125 66.33997 24.87335 70.71358 27.55377 72.90039 C29.83441 72.90039 34.39568 72.90039 36.67631 72.90039 C36.67631 56.75049 36.67631 24.45068 36.67631 8.30078 C39.56543 8.30078 45.34367 8.30078 48.23278 8.30078 C48.23278 6.22559 48.23278 2.0752 48.23278 0 C40.18036 0 24.07552 0 16.0231 0 C16.0231 2.0752 16.0231 6.22559 16.0231 8.30078 z" />
<glyph unicode="2" horiz-adv-x="60.205078" d="M7.42188 6.54297 Q7.42188 8.34961 8.64258 9.57031 Q11.42578 12.5 15.23438 16.52832 Q19.04297 20.55664 23.38867 25.29297 Q26.70898 28.90625 28.39355 30.7373 Q30.07812 32.56836 30.95703 33.54492 Q31.83594 34.57031 32.76367 35.69336 Q35.35156 38.81836 36.88965 41.01562 Q38.42773 43.21289 39.4043 45.36133 Q41.11328 49.16992 41.11328 52.97852 Q41.11328 59.0332 37.54883 62.45117 Q33.93555 65.91797 27.63672 65.91797 Q18.89648 65.91797 8.00781 59.42383 C8.00781 62.74414 8.00781 66.89453 8.00781 69.38477 Q12.98828 71.77734 17.91992 72.99805 Q22.75391 74.21875 27.49023 74.21875 Q32.56836 74.21875 37.01172 72.85156 Q41.45508 71.48438 44.77539 68.55469 Q47.70508 65.9668 49.46289 62.23145 Q51.2207 58.49609 51.2207 53.80859 Q51.2207 49.02344 49.07227 44.18945 Q47.99805 41.74805 46.31348 39.42871 Q44.62891 37.10938 41.99219 33.93555 Q40.57617 32.27539 38.62305 30.07812 Q36.66992 27.88086 34.08203 25.09766 Q32.22656 23.0957 30.63965 21.48438 Q29.05273 19.87305 27.29492 18.11523 Q25.53711 16.40625 23.51352 14.21037 Q21.48992 12.01449 18.21844 8.54769 C29.54656 8.54769 43.70672 8.54769 52.20281 8.54769 C52.20281 6.41077 52.20281 2.13692 52.20281 0 C41.00758 0 18.61711 0 7.42188 0 C7.42188 1.63574 7.42188 4.90723 7.42188 6.54297 z" />
<glyph unicode="3" horiz-adv-x="60.205078" d="M27.63672 -1.41602 Q25.29297 -1.41602 22.72949 -1.19629 Q20.16602 -0.97656 17.5293 -0.48828 Q15.2832 -0.09766 12.59766 0.58594 Q9.91211 1.26953 7.27539 2.19727 C7.27539 5.51758 7.27539 9.66797 7.27539 12.1582 Q9.76562 10.88867 12.1582 9.86328 Q14.55078 8.83789 17.08984 8.1543 Q19.53125 7.51953 21.89941 7.20215 Q24.26758 6.88477 26.70898 6.88477 Q34.86328 6.88477 39.16016 10.54688 Q43.50586 14.25781 43.50586 20.94727 Q43.50586 27.49023 39.20898 31.20117 Q34.91211 34.91211 27.39258 34.91211 C24.88607 34.91211 21.75293 34.91211 19.87305 34.91211 C19.87305 36.93848 19.87305 40.99121 19.87305 43.01758 C21.75293 43.01758 25.5127 43.01758 27.39258 43.01758 Q34.27734 43.01758 38.03711 45.99609 Q41.79688 48.92578 41.79688 54.44336 Q41.79688 59.96094 38.28125 62.93945 Q34.86328 65.91797 28.02734 65.91797 Q23.97461 65.91797 19.18945 64.94141 Q14.50195 64.01367 9.47266 62.01172 C9.47266 65.03906 9.47266 68.82324 9.47266 71.09375 Q15.42969 72.65625 20.01953 73.4375 Q24.36523 74.21875 28.27148 74.21875 Q33.39844 74.21875 37.71973 72.90039 Q42.04102 71.58203 45.26367 68.89648 Q51.5625 63.67188 51.5625 54.78516 Q51.5625 51.61133 50.70801 49.12109 Q49.85352 46.63086 48.24219 44.67773 Q44.92188 40.72266 38.47656 39.01367 Q45.6543 37.10938 49.46289 32.27539 Q51.46484 29.73633 52.36816 26.66016 Q53.27148 23.58398 53.27148 20.06836 Q53.27148 10.10742 46.58203 4.3457 Q43.26172 1.51367 38.5498 0.04883 Q33.83789 -1.41602 27.63672 -1.41602 z" />
<glyph unicode="4" horiz-adv-x="60.205078" d="M36.87633 17.38281 C28.90236 17.38281 12.95443 17.38281 4.98047 17.38281 C4.98047 19.9304 4.98047 25.02559 4.98047 27.57318 C11.87259 38.90498 25.65683 61.56859 32.54895 72.90039 C35.83749 72.90039 42.41458 72.90039 45.70312 72.90039 C45.70312 61.02295 45.70312 37.26807 45.70312 25.39062 C48.13232 25.39062 52.99072 25.39062 55.41992 25.39062 C55.41992 23.38867 55.41992 19.38477 55.41992 17.38281 C52.99072 17.38281 48.13232 17.38281 45.70312 17.38281 C45.70312 13.03711 45.70312 4.3457 45.70312 0 C43.49643 0 39.08303 0 36.87633 0 C36.87633 4.3457 36.87633 13.03711 36.87633 17.38281 zM36.87633 25.39062 C36.87633 35.02197 36.87633 54.28467 36.87633 63.91602 C34.44921 60.05703 29.59499 52.33905 27.16788 48.48006 C23.69116 42.7077 16.73772 31.16298 13.261 25.39062 C19.16483 25.39062 30.97249 25.39062 36.87633 25.39062 z" />
<glyph unicode="5" horiz-adv-x="60.205078" d="M25.63477 -1.41602 Q23.4375 -1.41602 20.72754 -1.2207 Q18.01758 -1.02539 15.625 -0.63477 Q13.13477 -0.24414 11.03516 0.3418 Q8.93555 0.92773 6.98242 1.70898 C6.98242 5.04557 6.98242 9.21631 6.98242 11.71875 Q11.57227 9.27734 16.01562 8.10547 Q20.55664 6.88477 25.04883 6.88477 Q33.59375 6.88477 37.89062 11.18164 Q42.28516 15.52734 42.28516 23.29102 Q42.28516 27.53906 41.06445 30.56641 Q39.84375 33.59375 37.74414 35.5957 Q35.69336 37.54883 32.4707 38.7207 Q29.24805 39.89258 24.80469 39.89258 Q20.99609 39.89258 17.28516 39.01367 Q13.47656 38.08594 10.10742 36.2793 C10.10742 48.48633 10.10742 63.74512 10.10742 72.90039 C19.33594 72.90039 37.79297 72.90039 47.02148 72.90039 C47.02148 70.8252 47.02148 66.6748 47.02148 64.59961 C40.03906 64.59961 26.07422 64.59961 19.0918 64.59961 C19.0918 60.11963 19.0918 51.15967 19.0918 46.67969 Q21.19141 47.46094 23.33984 47.85156 Q25.19531 48.19336 27.63672 48.19336 Q33.54492 48.19336 38.03711 46.38672 Q42.5293 44.58008 45.60547 41.50391 Q52.19727 34.86328 52.19727 23.48633 Q52.19727 11.81641 45.3125 5.17578 Q41.94336 1.95312 37.08496 0.26855 Q32.22656 -1.41602 25.63477 -1.41602 z" />
<glyph unicode="6" horiz-adv-x="60.205078" d="M30.9082 -1.04565 Q24.21875 -1.04565 19.77539 1.13733 Q15.33203 3.32031 12.45117 7.76367 Q9.375 12.54883 7.93457 19.48242 Q6.49414 26.41602 6.49414 35.35156 Q6.49414 55.07812 15.24707 63.92178 Q24 72.76543 34.08203 72.98418 Q35.80247 72.98148 37.82311 73.03443 Q39.84375 73.08738 41.40625 72.74559 Q43.35938 72.35496 45.09277 71.95421 Q46.82617 71.55346 48.38867 70.91869 C48.38867 67.89135 48.38867 64.10717 48.38867 61.83666 Q45.26367 63.69213 41.8457 64.61986 Q40.13672 65.10815 38.28125 65.14269 Q36.42578 65.17723 34.7168 65.17723 Q27.37037 65.01235 20.78053 57.65215 Q15.94654 50.52324 15.57617 38.08594 Q17.91992 42.96875 22.07031 45.60547 Q26.26953 48.19336 31.98242 48.19336 Q42.04102 48.19336 47.87598 41.69922 Q53.71094 35.20508 53.71094 23.48633 Q53.71094 11.57227 47.80273 5.26331 Q41.89453 -1.04565 30.9082 -1.04565 zM30.9082 6.6692 Q37.40234 6.6692 40.67383 11.0149 Q43.99414 15.3606 43.99414 23.38867 Q43.99414 31.83594 40.67383 36.18164 Q38.96484 38.42773 36.47461 39.45312 Q33.98438 40.47852 30.95703 40.47852 Q27.53906 40.47852 25.04883 39.28223 Q22.55859 38.08594 20.89844 35.98633 Q19.18945 33.83789 18.2373 30.68848 Q17.28516 27.53906 17.28516 23.38867 Q17.28516 19.23828 18.2373 16.27405 Q19.18945 13.30982 20.89844 11.16139 Q22.55859 9.06178 25.04883 7.86549 Q27.53906 6.6692 30.9082 6.6692 z" />
<glyph unicode="7" horiz-adv-x="60.205078" d="M41.69922 64.59961 C32.97119 64.59961 15.51514 64.59961 6.78711 64.59961 C6.78711 66.6748 6.78711 70.8252 6.78711 72.90039 C18.26172 72.90039 41.21094 72.90039 52.68555 72.90039 C52.68555 71.85059 52.68555 69.75098 52.68555 68.70117 C46.16699 51.52588 33.12988 17.17529 26.61133 0 C24.03564 0 18.88428 0 16.30859 0 C22.65625 16.1499 35.35156 48.44971 41.69922 64.59961 z" />
<glyph unicode="8" horiz-adv-x="60.205078" d="M30.0293 -1.41602 Q18.94531 -1.41602 12.6709 4.05273 Q6.39648 9.52148 6.39648 19.53125 Q6.39648 27.29492 10.30273 32.22656 Q12.55522 37.10938 19.87944 38.7207 Q16.90092 39.45312 15.16433 40.9668 Q13.42773 42.48047 11.66992 44.67773 Q9.81445 46.97266 8.95996 49.70703 Q8.10547 52.44141 8.10547 55.51758 Q8.10547 63.96484 14.01367 69.14062 Q16.89453 71.63086 20.87402 72.9248 Q24.85352 74.21875 30.07812 74.21875 Q40.2832 74.21875 46.19141 69.14062 Q52.09961 64.11133 52.09961 55.46875 Q52.09961 49.02344 49.41087 44.70215 Q46.72213 40.38086 40.32564 38.7207 Q47.69869 37.10938 50.75364 32.22656 Q53.80859 27.34375 53.80859 19.62891 Q53.80859 14.50195 52.17285 10.62012 Q50.53711 6.73828 47.50977 4.10156 Q41.16211 -1.41602 30.0293 -1.41602 zM30.07812 42.38281 Q36.03516 42.38281 39.16016 45.45898 Q42.28516 48.53516 42.28516 54.39453 Q42.28516 60.35156 39.20898 63.47656 Q36.08398 66.60156 30.07812 66.60156 Q24.16992 66.60156 21.04492 63.47656 Q17.91992 60.35156 17.91992 54.39453 Q17.91992 48.53516 21.04492 45.45898 Q24.16992 42.38281 30.07812 42.38281 zM30.22461 6.29883 Q36.71875 6.29883 40.30762 10.03418 Q43.89648 13.76953 43.89648 20.41016 Q43.89648 24.02344 42.94434 26.61133 Q41.99219 29.19922 40.2832 30.9082 Q36.62109 34.61914 30.07812 34.61914 Q23.53516 34.61914 19.92188 30.95703 Q16.30859 27.24609 16.30859 20.55664 Q16.30859 13.81836 19.92188 10.05859 Q23.63281 6.29883 30.22461 6.29883 z" />
<glyph unicode="9" horiz-adv-x="60.205078" d="M27.24691 -0.74074 Q23.74074 -0.49383 22.41005 -0.50395 Q21.07936 -0.51408 19 -0.37037 Q15 0.38272 11.52344 1.39022 C11.52755 4.09863 11.5327 7.48415 11.53578 9.51546 Q15 8 18.06641 7.24404 Q21.67969 7.00822 25.24414 6.88477 Q33.68031 7.13168 38.5143 14.21176 Q43.29945 21.34066 44.28711 34.7168 Q43.16406 32.22656 41.45508 30.32227 Q39.74609 28.41797 37.8418 27.19727 Q33.78906 24.60938 27.7832 24.60938 Q17.82227 24.60938 12.01172 31.10352 Q6.20117 37.64648 6.20117 49.31641 Q6.20117 55.07812 7.6416 59.79004 Q9.08203 64.50195 12.1582 67.82227 Q17.96875 74.21875 29.00391 74.21875 Q35.69336 74.21875 40.13672 71.85059 Q44.58008 69.48242 47.46094 65.03906 Q50.58594 60.15625 52.00195 53.17383 Q53.41797 46.19141 53.41797 37.40234 Q53.41797 27.73438 51.23957 20.58244 Q49.06117 13.43051 45.39906 8.49887 Q39.68699 0.12346 27.24691 -0.74074 zM28.95508 32.32422 Q32.37305 32.32422 34.86328 33.52051 Q37.35352 34.7168 39.01367 36.81641 Q42.57812 41.30859 42.57812 49.41406 Q42.57812 57.51953 39.01367 62.01172 Q37.35352 64.11133 34.86328 65.30762 Q32.37305 66.50391 28.95508 66.50391 Q25.92773 66.50391 23.4375 65.47852 Q20.94727 64.45312 19.23828 62.20703 Q15.91797 57.86133 15.91797 49.41406 Q15.91797 40.9668 19.23828 36.62109 Q22.46094 32.32422 28.95508 32.32422 z" />
<glyph unicode=":" horiz-adv-x="60.205078" d="M29.81439 11.50617 Q26.85038 11.50617 24.86346 13.52285 Q22.87654 15.53952 22.87654 18.80864 Q22.87654 22.07776 24.92519 24.12641 Q26.97384 26.17506 29.93784 26.17506 Q32.90185 26.17506 34.95049 24.12641 Q36.99914 22.07776 36.99914 18.80864 Q36.99914 15.53952 34.88877 13.52285 Q32.77839 11.50617 29.81439 11.50617 zM30.01549 45.29359 Q27.03342 45.29359 25.04537 47.36448 Q22.97449 49.35252 22.97449 52.66593 Q22.97449 55.89651 25.04537 57.96739 Q27.03342 59.99686 30.01549 59.99686 Q33.03898 59.99686 35.02702 57.96739 Q37.05649 55.93793 37.05649 52.66593 Q37.05649 49.35252 35.02702 47.36448 Q33.03898 45.29359 30.01549 45.29359 z" />
<glyph unicode=";" horiz-adv-x="60.205078" d="M30.01549 45.27539 Q27.03342 45.27539 25.04537 47.34627 Q22.97449 49.33432 22.97449 52.64773 Q22.97449 55.87831 25.04537 57.94919 Q27.03342 59.97866 30.01549 59.97866 Q33.03898 59.97866 35.02702 57.94919 Q37.05649 55.91973 37.05649 52.64773 Q37.05649 49.33432 35.02702 47.34627 Q33.03898 45.27539 30.01549 45.27539 zM29.87353 11.45442 Q26.90952 11.45442 24.9226 13.47109 Q22.93568 15.48777 22.93568 18.75689 Q22.93568 22.02601 24.98433 24.07465 Q27.03298 26.1233 29.99698 26.1233 Q32.96099 26.1233 35.00963 24.07465 Q37.05828 22.02601 37.05828 18.75689 Q37.09048 15.07507 36.95156 12.74117 Q36.81264 10.40728 35.92925 7.58962 Q34.61786 4.30507 32.45713 1.66287 Q30.2964 -0.97933 27.10505 -3.1233 Q26.14765 -1.59631 25.5228 -0.52018 Q24.89794 0.55596 23.91971 2.05868 Q26.70307 4.09678 27.95277 6.04077 Q29.20248 7.98475 29.87353 11.45442 z" />
<glyph unicode="&#x3c;" horiz-adv-x="60.205078" d="M4 32.41016 C4 34.43652 4 38.48926 4 40.51562 C16.90283 45.61816 42.7085 55.82324 55.61133 60.92578 C55.61133 58.7041 55.61133 54.26074 55.61133 52.03906 C45.23535 48.13281 24.4834 40.32031 14.10742 36.41406 C24.4834 32.54443 45.23535 24.80518 55.61133 20.93555 C55.61133 18.70166 55.61133 14.23389 55.61133 12 C42.7085 17.10254 16.90283 27.30762 4 32.41016 z" />
<glyph unicode="=" horiz-adv-x="60.205078" d="M4.38867 51.98765 C17.2915 51.98765 43.09717 51.98765 56 51.98765 C56 49.91246 56 45.76207 56 43.68687 C43.09717 43.68687 17.2915 43.68687 4.38867 43.68687 C4.38867 45.76207 4.38867 49.91246 4.38867 51.98765 zM4.38867 29.64535 C17.2915 29.64535 43.09717 29.64535 56 29.64535 C56 27.54574 56 23.34652 56 21.24691 C43.09717 21.24691 17.2915 21.24691 4.38867 21.24691 C4.38867 23.34652 4.38867 27.54574 4.38867 29.64535 z" />
<glyph unicode="&#x3e;" horiz-adv-x="60.205078" d="M4.31779 11.85192 C4.31779 14.08581 4.31779 18.55358 4.31779 20.78747 C14.69377 24.6571 35.44572 32.39636 45.8217 36.26599 C35.44572 40.17224 14.69377 47.98474 4.31779 51.89099 C4.31779 54.11267 4.31779 58.55603 4.31779 60.77771 C17.22062 55.67517 43.02629 45.47009 55.92912 40.36755 C55.92912 38.34118 55.92912 34.28845 55.92912 32.26208 C43.02629 27.15954 17.22062 16.95446 4.31779 11.85192 z" />
<glyph unicode="?" horiz-adv-x="60.205078" d="M23.2569 28.4668 Q23.2569 32.32422 24.72174 35.5957 Q26.33307 38.96484 30.33697 42.96875 C31.80182 44.41732 33.63287 46.22803 34.73151 47.31445 Q36.14752 48.73047 37.24615 50.02441 Q38.34479 51.31836 38.8819 52.34375 Q40.05377 54.49219 40.05377 56.93359 Q40.05377 59.22852 39.17486 60.96191 Q38.29596 62.69531 36.87994 63.91602 Q33.70611 66.60156 28.43268 66.60156 Q24.37994 66.60156 20.18072 64.94141 Q17.98346 64.11133 15.71295 62.8418 Q13.44244 61.57227 11.04986 59.91211 C11.04986 62.97201 11.04986 66.79688 11.04986 69.0918 Q15.73736 71.92383 20.32721 73.24219 Q24.72174 74.60938 29.84869 74.60938 Q34.73151 74.60938 38.41803 73.36426 Q42.10455 72.11914 44.59479 69.92188 Q49.91705 65.18555 49.91705 57.51953 Q49.91705 53.56445 48.2569 50.43945 Q46.49908 47.16797 42.05572 42.77344 C40.62343 41.3737 38.83307 39.62402 37.75885 38.57422 Q34.34088 35.30273 33.46197 33.30078 Q32.53424 31.39648 32.53424 29.24805 C32.53424 27.18099 32.53424 24.59717 32.53424 23.04688 C30.2149 23.04688 25.57623 23.04688 23.2569 23.04688 C23.2569 24.40186 23.2569 27.11182 23.2569 28.4668 zM28.02469 0.05951 Q25.06069 0.05951 23.01204 2.10816 Q20.96339 4.15681 20.96339 7.42593 Q20.96339 10.69505 23.01204 12.74369 Q25.06069 14.79234 28.02469 14.79234 Q30.98869 14.79234 33.03734 12.74369 Q35.08599 10.69505 35.08599 7.42593 Q35.08599 4.15681 33.03734 2.10816 Q30.98869 0.05951 28.02469 0.05951 z" />
<glyph unicode="@" horiz-adv-x="60.205078" d="M41.73815 -3.28395 Q33.46077 -3.28395 25.89012 -0.76922 Q18.31947 1.74552 12.91898 7.93046 Q7.82133 13.80091 5.03412 19.85926 Q2.24691 25.9176 2.24691 36.61021 Q2.24691 46.46419 4.73507 53.33426 Q7.22322 60.20433 12.31905 65.72417 Q18.67927 72.11346 24.47526 74.30013 Q30.27125 76.48679 34.72957 76.3742 Q45.67901 76.31481 51.60494 71.0679 Q57.53086 65.82099 57.75448 55.63974 C57.75448 42.18662 57.75448 25.37022 57.75448 15.28039 C55.8449 15.28039 52.02574 15.28039 50.11616 15.28039 C50.11616 16.6355 50.11616 19.34573 50.11616 20.70085 Q48.19823 17.39872 45.33841 16.01419 Q42.10821 14.23209 39.7709 14.23209 Q32.0883 14.60246 26.61483 20.89223 Q24.19218 23.72263 22.81338 27.41316 Q21.43459 31.10369 21.43459 36.29275 Q21.43459 41.06249 22.6872 45.23071 Q23.93982 49.39892 26.61483 52.59622 Q29.39078 55.89835 32.66291 57.60356 Q35.93505 59.30878 39.61949 59.30878 Q41.97931 59.46851 45.28794 57.87184 Q48.17572 56.22226 50.11616 52.84002 C50.11616 53.94073 50.11616 55.31662 50.11616 56.14215 Q49.30216 61.50588 46.50326 64.73042 Q41.77302 68.36091 34.37627 68.57907 Q29.7608 68.18305 25.78865 65.97122 Q21.81651 63.7594 18.13207 59.09795 Q11.27363 49.08674 11.01841 36.71504 Q11.27363 24.37997 19.04056 14.31634 Q22.60699 10.30597 27.64372 7.76156 Q32.68044 5.21715 38.9778 4.97024 Q48.2716 4.70988 57.66294 8.33567 C58.47049 5.68894 59.47992 2.38053 60.08558 0.39548 Q55.80247 -1.09259 51.48148 -2.2037 Q47.16049 -3.31481 41.73815 -3.28395 zM39.49384 23.84381 Q43.30544 23.84381 45.93181 27.40917 Q48.55819 30.97453 48.55819 37.09008 Q48.55819 43.39673 45.61376 47.02783 Q42.66934 50.41202 39.44783 50.41202 Q35.72127 50.53548 32.98473 46.60968 Q30.74074 43.59877 30.48813 37.13785 Q30.8642 30.51235 33.10819 27.15232 Q36.09862 23.84381 39.49384 23.84381 z" />
<glyph unicode="A" horiz-adv-x="60.205078" d="M24.12109 72.90039 C27.11182 72.90039 33.09326 72.90039 36.08398 72.90039 C41.6626 54.67529 52.81982 18.2251 58.39844 0 C55.84717 0 50.74463 0 48.19336 0 C46.85059 4.74854 44.16504 14.24561 42.82227 18.99414 C36.43799 18.99414 23.66943 18.99414 17.28516 18.99414 C15.9668 14.24561 13.33008 4.74854 12.01172 0 C9.46045 0 4.35791 0 1.80664 0 C7.38525 18.2251 18.54248 54.67529 24.12109 72.90039 zM40.47852 26.9043 C37.87842 36.23047 32.67822 54.88281 30.07812 64.20898 C27.47803 54.88281 22.27783 36.23047 19.67773 26.9043 C24.87793 26.9043 35.27832 26.9043 40.47852 26.9043 z" />
<glyph unicode="B" horiz-adv-x="60.205078" d="M6.99436 72.90039 C12.38987 72.90039 23.18088 72.90039 28.57639 72.90039 Q39.7092 72.90039 45.81272 68.06641 Q51.62049 63.10897 51.8674 54.3457 Q51.8674 50.92773 51.03733 48.31543 Q50.20725 45.70312 48.69358 43.84766 Q47.13108 41.99219 45.97295 41.19054 Q44.81481 40.38889 41.29666 39.01367 Q49.38742 36.82834 52.08213 32.91016 Q56.13486 27.88086 56.13486 19.9707 Q56.13486 10.10742 49.64072 5.07812 Q43.09775 0 30.30478 0 C22.53464 0 12.82196 0 6.99436 0 C6.99436 18.2251 6.99436 54.67529 6.99436 72.90039 zM29.49219 42.82227 Q36.71875 42.82227 39.84375 45.60547 Q43.01758 48.33984 43.01758 54.24805 Q43.01758 59.96094 39.89258 62.35352 Q36.71875 64.79492 29.49219 64.79492 C25.46156 64.79492 20.42327 64.79492 17.40029 64.79492 C17.40029 59.30176 17.40029 48.31543 17.40029 42.82227 C20.42327 42.82227 26.46921 42.82227 29.49219 42.82227 zM31.4159 8.10547 Q39.91199 8.10547 43.67175 11.13281 Q47.33386 14.16016 47.33386 20.99609 Q47.33386 28.125 43.47644 31.49414 Q39.57019 34.81445 31.4159 34.81445 C26.74403 34.81445 20.90419 34.81445 17.40029 34.81445 C17.40029 28.13721 17.40029 14.78271 17.40029 8.10547 C20.90419 8.10547 27.91199 8.10547 31.4159 8.10547 z" />
<glyph unicode="C" horiz-adv-x="60.205078" d="M36.23047 -1.41602 Q29.39453 -1.41602 23.90137 1.02539 Q18.4082 3.4668 14.50195 8.49609 Q6.78711 18.50586 6.78711 36.32812 Q6.78711 48.24219 10.30273 56.71387 Q13.81836 65.18555 20.41016 69.67773 Q27.05078 74.21875 36.23047 74.21875 Q40.9668 74.21875 44.75098 73.29102 Q48.53516 72.36328 52.39258 70.21484 C52.39258 66.8457 52.39258 62.63428 52.39258 60.10742 Q48.82812 63.08594 44.62891 64.64844 Q40.38086 66.21094 36.18164 66.21094 Q26.66016 66.21094 21.875 58.78906 Q17.08984 51.36719 17.08984 36.37695 Q17.08984 6.5918 36.2793 6.5918 Q40.47852 6.5918 44.72656 8.1543 Q48.82812 9.7168 52.39258 12.69531 C52.39258 9.32617 52.39258 5.11475 52.39258 2.58789 Q48.53516 0.58594 44.67773 -0.43945 Q40.77148 -1.41602 36.23047 -1.41602 z" />
<glyph unicode="D" horiz-adv-x="60.205078" d="M6.68945 72.90039 C11.31411 72.90039 20.56342 72.90039 25.18808 72.90039 Q41.8873 72.90039 48.06906 64.01367 Q54.25082 55.12695 54.25082 36.37695 Q54.25082 17.77344 46.83449 8.88672 Q38.92433 0 25.18808 0 C19.02187 0 11.31411 0 6.68945 0 C6.68945 18.2251 6.68945 54.67529 6.68945 72.90039 zM24.99277 8.10547 Q34.65326 8.10547 39.41262 14.25781 Q44.34426 20.36133 44.34426 36.47461 Q44.34426 52.63672 39.46144 58.69141 Q36.97121 61.81641 34.03375 63.30566 Q31.09628 64.79492 24.99277 64.79492 C22.1957 64.79492 18.69936 64.79492 16.60156 64.79492 C16.60156 50.62256 16.60156 22.27783 16.60156 8.10547 C18.69936 8.10547 22.89496 8.10547 24.99277 8.10547 z" />
<glyph unicode="E" horiz-adv-x="60.205078" d="M9.61914 72.90039 C20.43457 72.90039 42.06543 72.90039 52.88086 72.90039 C52.88086 70.8252 52.88086 66.6748 52.88086 64.59961 C44.53125 64.59961 27.83203 64.59961 19.48242 64.59961 C19.48242 59.2041 19.48242 48.41309 19.48242 43.01758 C27.46582 43.01758 43.43262 43.01758 51.41602 43.01758 C51.41602 40.94238 51.41602 36.79199 51.41602 34.7168 C43.43262 34.7168 27.46582 34.7168 19.48242 34.7168 C19.48242 28.11279 19.48242 14.90479 19.48242 8.30078 C28.06396 8.30078 45.22705 8.30078 53.80859 8.30078 C53.80859 6.22559 53.80859 2.0752 53.80859 0 C42.76123 0 20.6665 0 9.61914 0 C9.61914 18.2251 9.61914 54.67529 9.61914 72.90039 z" />
<glyph unicode="F" horiz-adv-x="60.205078" d="M11.37695 72.90039 C22.03271 72.92529 43.34424 72.9751 54 73 C54 71 54 67 54 65 C45.75 65 29.25 65 21 65 C21 59.25 21 47.75 21 42 C27 42 39 42 45 42 C45 40 45 36 45 34 C39 34 27 34 21 34 C21 25.5 21 8.5 21 0 C18.59424 0 13.78271 0 11.37695 0 C11.37695 18.2251 11.37695 54.67529 11.37695 72.90039 z" />
<glyph unicode="G" horiz-adv-x="60.205078" d="M34.17969 -1.41602 Q27.19727 -1.41602 21.80176 1.12305 Q16.40625 3.66211 12.64648 8.54492 Q4.98047 18.55469 4.98047 36.32812 Q4.98047 54.39453 12.79297 64.30664 Q20.60547 74.21875 34.32617 74.21875 Q39.11133 74.21875 43.31055 72.94922 Q47.60742 71.58203 51.41602 68.99414 C51.41602 65.625 51.41602 61.41357 51.41602 58.88672 Q49.31641 60.88867 47.24121 62.25586 Q45.16602 63.62305 43.31055 64.45312 Q41.16211 65.38086 38.91602 65.7959 Q36.66992 66.21094 34.47266 66.21094 Q24.95117 66.21094 20.11719 58.78906 Q15.2832 51.36719 15.2832 36.2793 Q15.2832 28.56445 16.45508 23.07129 Q17.62695 17.57812 19.9707 13.91602 Q24.60938 6.5918 34.32617 6.5918 Q37.54883 6.5918 40.03906 7.37305 Q41.21094 7.76367 42.33398 8.3252 Q43.45703 8.88672 44.48242 9.7168 C44.48242 16.24349 44.48242 24.40186 44.48242 29.29688 C41.21621 29.29688 34.68379 29.29688 31.41758 29.29688 C31.41758 31.32324 31.41758 35.37598 31.41758 37.40234 C37.03975 37.40234 48.28408 37.40234 53.90625 37.40234 C53.90625 29.55322 53.90625 13.85498 53.90625 6.00586 Q49.90234 2.29492 45.01953 0.48828 Q40.03906 -1.41602 34.17969 -1.41602 z" />
<glyph unicode="H" horiz-adv-x="60.205078" d="M6.68945 72.90039 C9.16748 72.90039 14.12353 72.90039 16.60156 72.90039 C16.60156 65.42969 16.60156 50.48828 16.60156 43.01758 C23.35205 43.01758 36.85303 43.01758 43.60352 43.01758 C43.60352 50.48828 43.60352 65.42969 43.60352 72.90039 C46.08154 72.90039 51.0376 72.90039 53.51562 72.90039 C53.51562 54.67529 53.51562 18.2251 53.51562 0 C51.0376 0 46.08154 0 43.60352 0 C43.60352 8.6792 43.60352 26.0376 43.60352 34.7168 C36.85303 34.7168 23.35205 34.7168 16.60156 34.7168 C16.60156 26.0376 16.60156 8.6792 16.60156 0 C14.12353 0 9.16748 0 6.68945 0 C6.68945 18.2251 6.68945 54.67529 6.68945 72.90039 z" />
<glyph unicode="I" horiz-adv-x="60.205078" d="M9.81445 8.30078 C13.63525 8.30078 21.27686 8.30078 25.09766 8.30078 C25.09766 22.37549 25.09766 50.5249 25.09766 64.59961 C21.27686 64.59961 13.63525 64.59961 9.81445 64.59961 C9.81445 66.6748 9.81445 70.8252 9.81445 72.90039 C19.93408 72.90039 40.17334 72.90039 50.29297 72.90039 C50.29297 70.8252 50.29297 66.6748 50.29297 64.59961 C46.47217 64.59961 38.83057 64.59961 35.00977 64.59961 C35.00977 50.5249 35.00977 22.37549 35.00977 8.30078 C38.83057 8.30078 46.47217 8.30078 50.29297 8.30078 C50.29297 6.22559 50.29297 2.0752 50.29297 0 C40.17334 0 19.93408 0 9.81445 0 C9.81445 2.0752 9.81445 6.22559 9.81445 8.30078 z" />
<glyph unicode="J" horiz-adv-x="60.205078" d="M26 -1 Q21 -1 15 -1 Q10 -1 6 -1 C6 1.66667 6 5 6 7 Q10 7 14 7 Q19 7 24 7 Q27.27148 7 29.96875 7.6748 Q32.66602 8.34961 34.08203 10.25391 Q36.81641 13.86719 36.81641 23.7793 C36.81641 37.38607 36.81641 54.39453 36.81641 64.59961 C32.16553 64.59961 22.86377 64.59961 18.21289 64.59961 C18.21289 66.6748 18.21289 70.8252 18.21289 72.90039 C25.32959 72.90039 39.56299 72.90039 46.67969 72.90039 C46.67969 60.62012 46.67969 36.05957 46.67969 23.7793 Q46.67969 14.59961 44.43359 9.05762 Q42.1875 3.51562 37.30469 1.02539 Q33.91016 -1 26 -1 z" />
<glyph unicode="K" horiz-adv-x="60.205078" d="M6.68945 72.90039 C9.16748 72.90039 14.12353 72.90039 16.60156 72.90039 C16.60156 64.79492 16.60156 48.58398 16.60156 40.47852 C24.3042 48.58398 39.70947 64.79492 47.41211 72.90039 C50.30518 72.90039 56.09131 72.90039 58.98438 72.90039 C51.89209 65.4541 37.70752 50.56152 30.61523 43.11523 C37.91504 32.33643 52.51465 10.77881 59.81445 0 C56.83594 0 50.87891 0 47.90039 0 C41.95557 9.13086 30.06592 27.39258 24.12109 36.52344 C22.24121 34.52148 18.48145 30.51758 16.60156 28.51562 C16.60156 21.38672 16.60156 7.12891 16.60156 0 C14.12353 0 9.16748 0 6.68945 0 C6.68945 18.2251 6.68945 54.67529 6.68945 72.90039 z" />
<glyph unicode="L" horiz-adv-x="60.205078" d="M10.49805 72.90039 C12.97607 72.90039 17.93213 72.90039 20.41016 72.90039 C20.41016 56.75049 20.41016 24.45068 20.41016 8.30078 C29.21143 8.30078 46.81396 8.30078 55.61523 8.30078 C55.61523 6.22559 55.61523 2.0752 55.61523 0 C44.33594 0 21.77734 0 10.49805 0 C10.49805 18.2251 10.49805 54.67529 10.49805 72.90039 z" />
<glyph unicode="M" horiz-adv-x="60.205078" d="M3.70539 72.90039 C7.00129 72.90039 13.59309 72.90039 16.88898 72.90039 C20.19272 63.96255 26.80019 46.08688 30.10393 37.14904 C33.43207 46.08688 40.08837 63.96255 43.41652 72.90039 C46.72463 72.90039 53.34084 72.90039 56.64894 72.90039 C56.64894 54.67529 56.64894 18.2251 56.64894 0 C54.48969 0 50.17117 0 48.01191 0 C48.01191 15.94675 48.01191 47.84026 48.01191 63.78701 C44.48706 54.18008 37.43737 34.96621 33.91252 25.35928 C32.04484 25.35928 28.30949 25.35928 26.44182 25.35928 C22.90476 34.96621 15.83065 54.18008 12.2936 63.78701 C12.2936 47.84026 12.2936 15.94675 12.2936 0 C10.14654 0 5.85244 0 3.70539 0 C3.70539 18.2251 3.70539 54.67529 3.70539 72.90039 z" />
<glyph unicode="N" horiz-adv-x="60.205078" d="M6.78711 72.90039 C9.91211 72.90039 16.16211 72.90039 19.28711 72.90039 C25.43945 58.05227 37.74414 28.35603 43.89648 13.50791 C43.89648 28.35603 43.89648 58.05227 43.89648 72.90039 C46.27686 72.90039 51.0376 72.90039 53.41797 72.90039 C53.41797 54.67529 53.41797 18.2251 53.41797 0 C50.29297 0 44.04297 0 40.91797 0 C34.76563 14.84812 22.46094 44.54436 16.30859 59.39248 C16.30859 44.54436 16.30859 14.84812 16.30859 0 C13.92822 0 9.16748 0 6.78711 0 C6.78711 18.2251 6.78711 54.67529 6.78711 72.90039 z" />
<glyph unicode="O" horiz-adv-x="60.205078" d="M30.07812 -0.92219 Q17.72461 -0.92219 11.71875 8.40398 Q5.71289 17.68133 5.71289 36.37695 Q5.71289 55.07258 11.76758 64.34992 Q17.87109 73.72492 30.07812 73.72492 Q36.08398 73.72492 40.72266 71.47883 Q45.36133 69.23273 48.48633 64.34992 Q54.49219 54.97492 54.49219 36.37695 Q54.49219 17.82781 48.48633 8.45281 Q45.36133 3.57 40.72266 1.32391 Q36.08398 -0.92219 30.07812 -0.92219 zM30.07812 7.08562 Q37.59766 7.08562 40.91797 13.97039 Q44.18945 20.65984 44.18945 36.37695 Q44.18945 52.09406 40.91797 58.83234 Q37.59766 65.71711 30.07812 65.71711 Q22.65625 65.71711 19.33594 58.83234 Q16.01562 51.80109 16.01562 36.37695 Q16.01562 21.00164 19.33594 13.97039 Q22.65625 7.08562 30.07812 7.08562 z" />
<glyph unicode="P" horiz-adv-x="60.205078" d="M8.39844 72.90039 C13.7207 72.90039 24.36523 72.90039 29.6875 72.90039 Q41.79688 72.90039 48.19336 67.38281 Q51.46484 64.50195 52.97852 60.37598 Q54.49219 56.25 54.49219 51.07422 Q54.49219 40.33203 48.24219 34.81445 Q42.04102 29.29688 29.6875 29.29688 C25.87891 29.29688 21.11816 29.29688 18.26172 29.29688 C18.26172 21.97266 18.26172 7.32422 18.26172 0 C15.7959 0 10.86426 0 8.39844 0 C8.39844 18.2251 8.39844 54.67529 8.39844 72.90039 zM29.6875 37.40234 Q33.34961 37.40234 35.98633 38.37891 Q38.62305 39.35547 40.38086 41.01562 Q44.18945 44.62891 44.18945 51.12305 Q44.18945 57.61719 40.38086 61.23047 Q36.66992 64.79492 29.6875 64.79492 C25.87891 64.79492 21.11816 64.79492 18.26172 64.79492 C18.26172 57.94678 18.26172 44.25049 18.26172 37.40234 C21.11816 37.40234 26.83105 37.40234 29.6875 37.40234 z" />
<glyph unicode="Q" horiz-adv-x="60.205078" d="M30.07976 -0.89403 Q17.72625 -0.89403 11.72039 8.43215 Q5.71453 17.70949 5.71453 36.40512 Q5.71453 55.10074 11.76922 64.37809 Q17.87273 73.75309 30.07976 73.75309 Q36.08562 73.75309 40.7243 71.50699 Q45.36297 69.2609 48.48797 64.37809 Q54.49383 55.00309 54.49383 36.40512 Q54.49383 17.85597 48.48797 8.48097 Q45.36297 3.59816 40.7243 1.35207 Q36.08562 -0.89403 30.07976 -0.89403 zM30.07976 7.11379 Q37.5993 7.11379 40.91961 13.99855 Q44.19109 20.68801 44.19109 36.40512 Q44.19109 52.12223 40.91961 58.86051 Q37.5993 65.74527 30.07976 65.74527 Q22.65789 65.74527 19.33758 58.86051 Q16.01726 51.82926 16.01726 36.40512 Q16.01726 21.0298 19.33758 13.99855 Q22.65789 7.11379 30.07976 7.11379 zM48.39506 10.5679 L60.24691 -3.90123 L60.24691 -10.12346 L53.87654 -10.12346 L41.90123 4.44444 L48.39506 10.5679 z" />
<glyph unicode="R" horiz-adv-x="60.205078" d="M6.98242 72.90039 C12.06055 72.90039 22.2168 72.90039 27.29492 72.90039 Q39.35547 72.90039 45.70312 67.48047 Q52.09961 62.01172 52.09961 52.00195 Q52.09961 48.14453 51.12305 45.23926 Q50.14648 42.33398 48.19336 40.03906 Q44.33594 35.44922 37.10938 34.42383 Q41.06445 33.44727 43.60352 30.76172 Q44.9707 29.3457 46.55762 26.78223 Q48.14453 24.21875 50.29297 19.92188 C53.59701 13.28125 57.72705 4.98047 60.20508 0 C57.55615 0 52.2583 0 49.60938 0 C47.43652 4.60205 43.09082 13.80615 40.91797 18.4082 Q39.01367 22.46094 37.3291 24.95117 Q35.64453 27.44141 34.17969 28.56445 Q32.66602 29.73633 30.63965 30.27344 Q28.61328 30.81055 26.31836 30.81055 C23.17708 30.81055 19.25049 30.81055 16.89453 30.81055 C16.89453 23.10791 16.89453 7.70264 16.89453 0 C14.4165 0 9.46045 0 6.98242 0 C6.98242 18.2251 6.98242 54.67529 6.98242 72.90039 zM27.68555 38.91602 Q34.76562 38.91602 38.23242 42.08984 Q41.69922 45.26367 41.69922 51.70898 Q41.69922 58.10547 38.03711 61.47461 Q36.2793 63.03711 33.61816 63.91602 Q30.95703 64.79492 27.29492 64.79492 C23.82812 64.79492 19.49463 64.79492 16.89453 64.79492 C16.89453 58.3252 16.89453 45.38574 16.89453 38.91602 C19.59229 38.91602 24.98779 38.91602 27.68555 38.91602 z" />
<glyph unicode="S" horiz-adv-x="60.205078" d="M28.51562 -1.41602 Q23.29102 -1.41602 18.11523 -0.29297 Q12.93945 0.83008 7.71484 2.97852 C7.71484 6.47786 7.71484 10.85205 7.71484 13.47656 Q13.23242 9.96094 18.35938 8.25195 Q23.29102 6.5918 28.36914 6.5918 Q35.83984 6.5918 40.03906 9.91211 Q44.18945 13.23242 44.18945 19.53125 Q44.18945 24.75586 41.35742 27.58789 Q39.79492 29.19922 37.42676 30.22461 Q35.05859 31.25 31.39648 32.08008 C29.63867 32.48698 27.44141 32.99561 26.12305 33.30078 Q21.19141 34.42383 17.50488 36.08398 Q13.81836 37.74414 11.37695 40.23438 Q6.78711 44.82422 6.78711 52.68555 Q6.78711 62.59766 13.37891 68.4082 Q16.50391 71.19141 20.87402 72.70508 Q25.24414 74.21875 30.81055 74.21875 Q35.05859 74.21875 39.64844 73.29102 Q41.89453 72.80273 44.36035 72.09473 Q46.82617 71.38672 49.41406 70.41016 C49.41406 67.07357 49.41406 62.90283 49.41406 60.40039 Q47.07031 61.91406 44.84863 62.96387 Q42.62695 64.01367 40.42969 64.74609 Q35.88867 66.21094 31.34766 66.21094 Q24.36523 66.21094 20.28809 62.93945 Q16.21094 59.66797 16.21094 53.95508 Q16.21094 51.46484 16.91895 49.78027 Q17.62695 48.0957 18.89648 46.875 Q21.67969 44.23828 28.80859 42.57812 C30.53385 42.1875 32.69043 41.69922 33.98438 41.40625 Q44.0918 39.11133 48.87695 33.88672 Q53.61328 28.85742 53.61328 20.01953 Q53.61328 14.45312 51.9043 10.52246 Q50.19531 6.5918 47.2168 4.05273 Q40.82031 -1.41602 28.51562 -1.41602 z" />
<glyph unicode="T" horiz-adv-x="60.205078" d="M25.19531 64.59961 C19.47021 64.59961 8.02002 64.59961 2.29492 64.59961 C2.29492 66.6748 2.29492 70.8252 2.29492 72.90039 C16.19873 72.90039 44.00635 72.90039 57.91016 72.90039 C57.91016 70.8252 57.91016 66.6748 57.91016 64.59961 C52.20947 64.59961 40.80811 64.59961 35.10742 64.59961 C35.10742 48.44971 35.10742 16.1499 35.10742 0 C32.62939 0 27.67334 0 25.19531 0 C25.19531 16.1499 25.19531 48.44971 25.19531 64.59961 z" />
<glyph unicode="U" horiz-adv-x="60.205078" d="M30.20158 -1.41602 Q25.98765 -1.41602 19.61504 0 Q17.71074 0.68359 15.68438 1.78223 Q13.65801 2.88086 12.09551 4.29688 Q10.58184 5.66406 9.40996 7.51953 Q8.23809 9.375 7.40801 12.1582 Q6.62676 14.59961 6.28496 18.28613 Q5.94317 21.97266 5.94317 27.97852 C5.94317 42.95247 5.94317 61.66992 5.94317 72.90039 C8.42119 72.90039 13.37725 72.90039 15.85528 72.90039 C15.85528 60.54688 15.85528 35.83984 15.85528 23.48633 Q15.85528 18.16406 16.14824 15.91797 Q16.44121 13.67188 17.17364 12.40234 Q18.73614 9.52148 21.71465 8.05664 Q24.64434 6.5918 30.07812 6.5918 Q35.56074 6.5918 38.49043 8.05664 Q41.51777 9.61914 43.03144 12.40234 Q43.81269 13.81836 44.05683 15.86914 Q44.3498 18.16406 44.3498 23.38867 C44.3498 39.89258 44.3498 60.52246 44.3498 72.90039 C46.81562 72.90039 51.74726 72.90039 54.21308 72.90039 C54.21308 61.66992 54.21308 39.20898 54.21308 27.97852 Q54.21308 21.5332 53.82246 17.94434 Q53.43183 14.35547 52.8459 12.1582 Q51.52754 7.42188 48.06074 4.29688 Q46.44941 2.83203 44.47187 1.75781 Q42.49433 0.68359 40.59004 0 Q38.7834 -0.63477 35.93292 -1.02539 Q33.08244 -1.41602 30.20158 -1.41602 z" />
<glyph unicode="V" horiz-adv-x="60.205078" d="M2.7832 72.90039 C5.18015 72.90039 9.97405 72.90039 12.371 72.90039 C16.79778 56.90481 25.65134 24.91365 30.07812 8.91806 C34.51711 24.91365 43.39509 56.90481 47.83408 72.90039 C50.23103 72.90039 55.02493 72.90039 57.42188 72.90039 C52.0874 54.67529 41.41846 18.2251 36.08398 0 C33.09326 0 27.11182 0 24.12109 0 C18.78662 18.2251 8.11768 54.67529 2.7832 72.90039 z" />
<glyph unicode="W" horiz-adv-x="60.205078" d="M0 72.90039 C2.2196 72.90039 6.6588 72.90039 8.8784 72.90039 C10.7166 58.35238 14.39299 29.25637 16.23119 14.70836 C18.39898 24.25148 22.73456 43.33773 24.90234 52.88086 C27.47803 52.88086 32.62939 52.88086 35.20508 52.88086 C37.39728 43.31332 41.78168 24.17824 43.97389 14.6107 C45.81208 29.18312 49.48848 58.32797 51.32668 72.90039 C53.54628 72.90039 57.98548 72.90039 60.20508 72.90039 C57.48291 54.67529 52.03857 18.2251 49.31641 0 C46.98486 0 42.32178 0 39.99023 0 C37.51221 10.48813 32.55615 31.46439 30.07812 41.95252 C27.6123 31.46439 22.68066 10.48813 20.21484 0 C17.8833 0 13.22021 0 10.88867 0 C8.1665 18.2251 2.72217 54.67529 0 72.90039 z" />
<glyph unicode="X" horiz-adv-x="60.205078" d="M25.29297 38.62305 C20.01953 47.19238 9.47266 64.33105 4.19922 72.90039 C6.84814 72.90039 12.146 72.90039 14.79492 72.90039 C18.79883 66.02783 26.80664 52.28271 30.81055 45.41016 C34.8877 52.28271 43.04199 66.02783 47.11914 72.90039 C49.76807 72.90039 55.06592 72.90039 57.71484 72.90039 C52.2583 64.33105 41.34521 47.19238 35.88867 38.62305 C41.73584 28.96729 53.43018 9.65576 59.27734 0 C56.62842 0 51.33057 0 48.68164 0 C44.21387 7.84912 35.27832 23.54736 30.81055 31.39648 C25.98877 23.54736 16.34522 7.84912 11.52344 0 C8.8623 0 3.54004 0 0.87891 0 C6.98242 9.65576 19.18945 28.96729 25.29297 38.62305 z" />
<glyph unicode="Y" horiz-adv-x="60.205078" d="M25.09766 32.71484 C19.2749 42.76123 7.62939 62.854 1.80664 72.90039 C4.43115 72.90039 9.68018 72.90039 12.30469 72.90039 C16.74805 64.85596 25.63477 48.76709 30.07812 40.72266 C34.50928 48.76709 43.37158 64.85596 47.80273 72.90039 C50.45166 72.90039 55.74951 72.90039 58.39844 72.90039 C52.55127 62.854 40.85693 42.76123 35.00977 32.71484 C35.00977 24.53613 35.00977 8.17871 35.00977 0 C32.53174 0 27.57568 0 25.09766 0 C25.09766 8.17871 25.09766 24.53613 25.09766 32.71484 z" />
<glyph unicode="Z" horiz-adv-x="60.205078" d="M5.37109 7.51953 C14.63623 21.78955 33.1665 50.32959 42.43164 64.59961 C33.43506 64.59961 15.44189 64.59961 6.44531 64.59961 C6.44531 66.6748 6.44531 70.8252 6.44531 72.90039 C18.27393 72.90039 41.93115 72.90039 53.75977 72.90039 C53.75977 71.02051 53.75977 67.26074 53.75977 65.38086 C44.23828 51.11084 25.19531 22.5708 15.67383 8.30078 C25.46387 8.30078 45.04395 8.30078 54.83398 8.30078 C54.83398 6.22559 54.83398 2.0752 54.83398 0 C42.46826 0 17.73682 0 5.37109 0 C5.37109 1.87988 5.37109 5.63965 5.37109 7.51953 z" />
<glyph unicode="[" horiz-adv-x="60.205078" d="M14.53125 82.25926 C22.14844 82.25926 37.38281 82.25926 45 82.25926 C45 80.32847 45 76.46689 45 74.5361 C39.62891 74.5361 28.88672 74.5361 23.51562 74.5361 C23.51562 55.50145 23.51562 17.43215 23.51562 -1.6025 C28.88672 -1.6025 39.62891 -1.6025 45 -1.6025 C45 -3.53329 45 -7.39487 45 -9.32567 C37.38281 -9.32567 22.14844 -9.32567 14.53125 -9.32567 C14.53125 13.57057 14.53125 59.36303 14.53125 82.25926 z" />
<glyph unicode="\" horiz-adv-x="60.205078" d="M53.85254 -4.77405 C51.521 -4.77405 46.85791 -4.77405 44.52637 -4.77405 C34.93164 15.77038 15.74219 56.85925 6.14746 77.40368 C8.4668 77.40368 13.10547 77.40368 15.4248 77.40368 C25.03174 56.85925 44.24561 15.77038 53.85254 -4.77405 z" />
<glyph unicode="]" horiz-adv-x="60.205078" d="M15 -1.5361 C20.37109 -1.5361 31.11328 -1.5361 36.48438 -1.5361 C36.48438 17.48635 36.48438 55.53123 36.48438 74.55367 C31.11328 74.55367 20.37109 74.55367 15 74.55367 C15 76.48447 15 80.34605 15 82.27684 C22.61719 82.27684 37.85156 82.27684 45.46875 82.27684 C45.46875 59.39281 45.46875 13.62476 45.46875 -9.25926 C37.85156 -9.25926 22.61719 -9.25926 15 -9.25926 C15 -7.32847 15 -3.46689 15 -1.5361 z" />
<glyph unicode="^" horiz-adv-x="60.205078" d="M25.78125 72.90039 C27.94189 72.90039 32.26318 72.90039 34.42383 72.90039 C39.99023 66.10107 51.12305 52.50244 56.68945 45.70312 C53.99191 45.70312 48.59682 45.70312 45.89928 45.70312 C41.94399 50.46317 34.03341 59.98327 30.07812 64.74332 C26.13504 59.98327 18.24888 50.46317 14.3058 45.70312 C11.60825 45.70312 6.21317 45.70312 3.51562 45.70312 C9.08203 52.50244 20.21484 66.10107 25.78125 72.90039 z" />
<glyph unicode="_" horiz-adv-x="60.205078" d="M-0.88603 -2.13016 C14.60498 -2.13016 45.58701 -2.13016 61.07802 -2.13016 C61.07802 -3.86268 61.07802 -7.32773 61.07802 -9.06025 C45.58701 -9.06025 14.60498 -9.06025 -0.88603 -9.06025 C-0.88603 -7.32773 -0.88603 -3.86268 -0.88603 -2.13016 z" />
<glyph unicode="`" horiz-adv-x="60.205078" d="M30.6033 58.53467 C27.03725 63.89612 19.90515 74.61902 16.3391 79.98047 C19.03387 79.98047 24.42341 79.98047 27.11818 79.98047 C30.70267 74.61902 37.87167 63.89612 41.45616 58.53467 C38.74295 58.53467 33.31652 58.53467 30.6033 58.53467 z" />
<glyph unicode="a" horiz-adv-x="60.205078" d="M24.85352 -1.41602 Q16.94336 -1.41602 11.79199 3.14941 Q6.64062 7.71484 6.64062 16.25977 Q6.64062 23.33984 10.05859 27.31934 Q13.47656 31.29883 18.99414 32.91016 Q24.51172 34.52148 30.76172 34.52148 C34.7819 34.52148 39.80713 34.52148 42.82227 34.52148 C42.82227 34.87549 42.82227 35.5835 42.82227 35.9375 Q42.82227 42.91992 39.28223 45.6543 Q35.74219 48.38867 29.3457 48.38867 Q24.36523 48.38867 21.07151 48.37643 Q17.77778 48.3642 13.85441 48.15116 C13.85441 50.69328 13.85441 53.87093 13.85441 55.77751 Q18.02469 55.7716 21.17055 55.88873 Q24.31641 56.00586 29.10156 56.00586 Q33.98438 56.00586 38.59863 54.66309 Q43.21289 53.32031 46.58203 50.24414 Q49.95117 47.2168 51.07422 42.08984 Q51.85547 38.47656 51.85547 31.20117 C51.85547 27.47396 51.85547 22.81494 51.85547 20.01953 Q51.85547 15.42969 51.85366 9.92163 Q51.85185 4.41358 51.77337 -0.12346 C49.09152 -0.0823 45.7392 -0.03086 43.72782 0 Q43.82716 3.05556 43.76543 4.04321 Q43.7037 5.03086 43.72697 7.18967 Q40.84611 2.25803 35.68185 0.42101 Q30.51758 -1.41602 24.85352 -1.41602 zM27.05078 6.10352 Q32.61719 6.10352 36.1084 8.83789 Q39.59961 11.57227 41.21094 15.9668 Q42.82227 20.41016 42.82227 25.48828 C42.82227 26.1556 42.82227 26.98975 42.82227 27.49023 C39.97803 27.49023 34.28955 27.49023 31.44531 27.49023 Q27.63672 27.49023 23.99902 26.63574 Q20.36133 25.78125 17.96875 23.38867 Q15.625 20.99609 15.625 16.40625 Q15.625 11.23047 18.79883 8.66699 Q21.97266 6.10352 27.05078 6.10352 z" />
<glyph unicode="b" horiz-adv-x="60.205078" d="M33.44727 -1.41602 Q23.0957 -1.41602 18.4082 6.88477 C18.11523 4.58984 17.74902 1.72119 17.5293 0 C15.50293 0 11.4502 0 9.42383 0 C9.42383 18.99414 9.42383 56.98242 9.42383 75.97656 C11.66992 75.97656 16.16211 75.97656 18.4082 75.97656 C18.4082 68.90869 18.4082 54.77295 18.4082 47.70508 Q20.6543 51.95312 24.60938 53.97949 Q28.56445 56.00586 33.49609 56.00586 Q39.35547 56.00586 43.35938 53.49121 Q47.36328 50.97656 49.75586 46.77734 Q52.19727 42.62695 53.24707 37.54883 Q54.29688 32.4707 54.29688 27.39258 Q54.29688 22.26562 53.22266 17.16309 Q52.14844 12.06055 49.70703 7.86133 Q47.31445 3.66211 43.31055 1.12305 Q39.30664 -1.41602 33.44727 -1.41602 zM31.64062 6.20117 Q35.9375 6.20117 38.5498 8.20312 Q41.16211 10.20508 42.48047 13.42773 Q43.84766 16.65039 44.33594 20.3125 Q44.82422 23.97461 44.82422 27.29492 Q44.82422 30.61523 44.33594 34.30176 Q43.84766 37.98828 42.48047 41.16211 Q41.16211 44.38477 38.5498 46.38672 Q35.9375 48.38867 31.64062 48.38867 Q27.39258 48.38867 24.78027 46.38672 Q22.16797 44.38477 20.75195 41.21094 Q19.38477 38.03711 18.89648 34.35059 Q18.4082 30.66406 18.4082 27.34375 Q18.4082 23.97461 18.89648 20.28809 Q19.38477 16.60156 20.75195 13.37891 Q22.16797 10.20508 24.78027 8.20312 Q27.39258 6.20117 31.64062 6.20117 z" />
<glyph unicode="c" horiz-adv-x="60.205078" d="M34.42383 -1.41602 Q25.78125 -1.41602 19.89746 2.22168 Q14.01367 5.85938 10.98633 12.35352 Q8.00781 18.84766 8.00781 27.29492 Q8.00781 35.79102 11.03516 42.26074 Q14.0625 48.73047 19.9707 52.34375 Q25.87891 56.00586 34.61914 56.00586 Q39.16016 56.00586 42.82227 54.95605 Q46.48438 53.90625 50.29297 51.80664 C50.29297 48.66536 50.29297 44.73877 50.29297 42.38281 Q46.82617 45.45898 43.33496 46.92383 Q39.84375 48.38867 35.40039 48.38867 Q28.80859 48.38867 24.87793 45.55664 Q20.94727 42.72461 19.18945 37.93945 Q17.48047 33.1543 17.48047 27.29492 Q17.48047 21.48438 19.23828 16.6748 Q20.99609 11.86523 24.90234 9.0332 Q28.80859 6.20117 35.35156 6.20117 Q39.64844 6.20117 43.35938 7.61719 Q47.07031 9.0332 50.29297 12.10938 C50.29297 9.00065 50.29297 5.11475 50.29297 2.7832 Q43.31055 -1.41602 34.42383 -1.41602 z" />
<glyph unicode="d" horiz-adv-x="60.205078" d="M27.05078 -1.41602 Q21.09375 -1.41602 17.04102 1.12305 Q12.98828 3.66211 10.54688 7.91016 Q8.1543 12.1582 7.08008 17.30957 Q6.00586 22.46094 6.00586 27.68555 Q6.00586 40.77148 11.74316 48.38867 Q17.48047 56.00586 27.24609 56.00586 Q32.03125 56.00586 35.83984 53.97949 Q39.64844 51.95312 41.89453 47.70508 C41.89453 57.12891 41.89453 68.90869 41.89453 75.97656 C44.14062 75.97656 48.63281 75.97656 50.87891 75.97656 C50.87891 56.98242 50.87891 18.99414 50.87891 0 C48.85254 0 44.7998 0 42.77344 0 C42.55371 1.72119 42.11426 5.16357 41.89453 6.88477 Q37.06055 -1.41602 27.05078 -1.41602 zM28.66211 6.20117 Q32.91016 6.20117 35.52246 8.20312 Q38.13477 10.20508 39.50195 13.37891 Q40.91797 16.60156 41.40625 20.28809 Q41.89453 23.97461 41.89453 27.34375 Q41.89453 30.66406 41.40625 34.32617 Q40.91797 37.98828 39.50195 41.16211 Q38.13477 44.38477 35.52246 46.38672 Q32.91016 48.38867 28.66211 48.38867 Q24.36523 48.38867 21.75293 46.38672 Q19.14062 44.38477 17.77344 41.16211 Q16.45508 37.98828 15.9668 34.32617 Q15.47852 30.66406 15.47852 27.34375 Q15.47852 24.02344 15.9668 20.33691 Q16.45508 16.65039 17.77344 13.42773 Q19.14062 10.25391 21.75293 8.22754 Q24.36523 6.20117 28.66211 6.20117 z" />
<glyph unicode="e" horiz-adv-x="60.205078" d="M33.10547 -1.41602 Q20.45898 -1.41602 13.25684 6.17676 Q6.05469 13.76953 6.05469 26.9043 Q6.05469 35.05859 8.91113 41.65039 Q11.76758 48.24219 17.38281 52.09961 Q23.04688 56.00586 31.34766 56.00586 Q42.28516 56.00586 48.31543 48.99902 Q54.3457 41.99219 54.3457 29.58984 C54.3457 28.125 54.3457 26.29395 54.3457 25.19531 C44.6167 25.19531 25.15869 25.19531 15.42969 25.19531 C15.42969 25.12207 15.42969 24.97559 15.42969 24.90234 Q15.42969 16.35742 19.92188 11.2793 Q24.41406 6.20117 33.20312 6.20117 Q38.28125 6.20117 43.04199 7.8125 Q47.80273 9.42383 52.24609 11.71875 C52.24609 8.74023 52.24609 5.01709 52.24609 2.7832 Q47.60742 0.87891 42.84668 -0.26855 Q38.08594 -1.41602 33.10547 -1.41602 zM45.36133 32.22656 Q45.36133 36.76758 43.99414 40.42969 Q42.62695 44.0918 39.59961 46.24023 Q36.62109 48.38867 31.68945 48.38867 Q26.70898 48.38867 23.36426 46.21582 Q20.01953 44.04297 18.11523 40.38086 Q16.25977 36.71875 15.77148 32.22656 C25.63477 32.22656 37.96387 32.22656 45.36133 32.22656 z" />
<glyph unicode="f" horiz-adv-x="60.205078" d="M22.63045 42.02607 C19.35092 42.02607 12.79185 42.02607 9.51232 42.02607 C9.51232 43.92599 9.51232 47.72585 9.51232 49.62577 C12.79185 49.62577 19.35092 49.62577 22.63045 49.62577 C22.63045 51.10261 22.63045 54.05629 22.63045 55.53313 Q22.63045 64.51751 26.75643 68.76555 Q30.8824 73.0136 39.62264 73.0136 C43.38425 73.0136 48.08627 73.0136 50.90748 73.0136 C50.90748 71.14592 50.90748 67.41057 50.90748 65.5429 C48.23275 65.5429 42.8833 65.5429 40.20857 65.5429 Q35.42342 65.5429 33.51912 63.56536 Q31.61482 61.58782 31.61482 56.55852 C31.61482 54.2476 31.61482 51.35896 31.61482 49.62577 C35.72811 49.62577 43.95469 49.62577 48.06797 49.62577 C48.06797 47.72585 48.06797 43.92599 48.06797 42.02607 C43.95469 42.02607 35.72811 42.02607 31.61482 42.02607 C31.61482 31.51955 31.61482 10.50652 31.61482 0 C29.36873 0 24.87654 0 22.63045 0 C22.63045 10.50652 22.63045 31.51955 22.63045 42.02607 z" />
<glyph unicode="g" horiz-adv-x="60.205078" d="M34 -21 Q30 -21 24 -21 Q18 -21 14 -21 C14 -18.33333 14 -15 14 -13 Q18.42467 -12.9953 22.71234 -12.99765 Q27 -13 31 -13 Q44 -13 44 -1 Q44 1 44 3.25 Q44 5.5 44 7 Q41 2 37.27246 0.80469 Q33.54492 -0.39062 28.4668 -0.39062 Q22.65625 -0.39062 18.60352 2.09961 Q14.55078 4.58984 12.06055 8.69141 Q9.61914 12.8418 8.49609 17.84668 Q7.37305 22.85156 7.37305 27.83203 Q7.37305 32.8125 8.49609 37.79297 Q9.61914 42.77344 12.10938 46.875 Q14.59961 51.02539 18.67676 53.51562 Q22.75391 56.00586 28.61328 56.00586 Q33.54492 56.00586 37.70086 54.01681 Q41.8568 52.02775 44.24937 47.53557 C44.21312 49.85444 44.16781 52.75303 44.14062 54.49219 C46.16699 54.49219 50.21973 54.49219 52.24609 54.49219 C52.18457 40.86914 52.06152 13.62305 52 0 Q52 -8 47 -14.5 Q42 -21 34 -21 zM30.27344 7.08008 Q36.66992 7.08008 39.96582 12.40234 Q43.26172 17.72461 43.26172 27.88086 Q43.26172 31.15234 42.77344 34.7168 Q42.28516 38.28125 40.91797 41.35742 Q39.59961 44.48242 37.01172 46.43555 Q34.42383 48.38867 30.22461 48.38867 Q23.73047 48.38867 20.28809 43.21289 Q16.8457 38.03711 16.8457 27.97852 Q16.8457 17.82227 20.36133 12.45117 Q23.87695 7.08008 30.27344 7.08008 z" />
<glyph unicode="h" horiz-adv-x="60.205078" d="M9.52148 75.97656 C11.76758 75.97656 16.25977 75.97656 18.50586 75.97656 C18.50586 69.00475 18.50586 55.06113 18.50586 48.08931 Q23.4375 56.87006 34.66797 56.37623 Q41.40625 56.37623 44.99512 53.06604 Q48.58398 49.75586 49.95117 44.72656 Q51.31836 39.69727 51.31836 33.88672 C51.31836 22.59115 51.31836 8.47168 51.31836 0 C49.06006 0 44.54346 0 42.28516 0 C42.28516 8.47168 42.28516 25.41504 42.28516 33.88672 Q42.28516 41.25977 39.94418 44.72656 Q37.6032 48.19336 32.13445 48.19336 Q27.05633 48.19336 23.95297 45.67871 Q20.84961 43.16406 19.67773 39.20898 Q18.50586 35.25391 18.50586 30.9082 C18.50586 20.60547 18.50586 7.72705 18.50586 0 C16.25977 0 11.76758 0 9.52148 0 C9.52148 18.99414 9.52148 56.98242 9.52148 75.97656 z" />
<glyph unicode="i" horiz-adv-x="60.205078" d="M28.25316 64.59961 Q26.78832 64.59961 26.78832 66.06445 C26.78832 68.88021 26.78832 72.3999 26.78832 74.51172 Q26.78832 75.97656 28.25316 75.97656 C30.59691 75.97656 33.5266 75.97656 35.28441 75.97656 Q36.74925 75.97656 36.74925 74.51172 C36.74925 71.69596 36.74925 68.17627 36.74925 66.06445 Q36.74925 64.59961 35.28441 64.59961 C32.94066 64.59961 30.01097 64.59961 28.25316 64.59961 zM27.71605 0 Q27.71605 6 27.74046 8.00488 Q27.76488 10.00977 27.76488 19.43359 C27.76488 28.47078 27.76488 39.76725 27.76488 46.54514 C24.83588 46.54514 18.9779 46.54514 16.0489 46.54514 C16.0489 48.58073 16.0489 52.65191 16.0489 54.6875 C21.22399 54.6875 31.57416 54.6875 36.74925 54.6875 Q36.71839 51.1518 36.69253 48.0296 Q36.66667 44.90741 36.6258 40.54471 Q36.6258 34.58767 36.64623 33.08087 Q36.66667 31.57407 36.64943 28.46113 C36.66667 25.64815 36.74518 17.81298 36.7771 14.2636 Q36.79012 11.08025 36.7596 7.69531 Q36.72907 4.31038 36.71605 0 C33.71605 0 29.96605 0 27.71605 0 z" />
<glyph unicode="j" horiz-adv-x="60.205078" d="M33.9347 64.59961 Q32.46986 64.59961 32.46986 66.06445 C32.46986 68.88021 32.46986 72.3999 32.46986 74.51172 Q32.46986 75.97656 33.9347 75.97656 C36.27845 75.97656 39.20814 75.97656 40.96595 75.97656 Q42.4308 75.97656 42.4308 74.51172 C42.4308 71.69596 42.4308 68.17627 42.4308 66.06445 Q42.4308 64.59961 40.96595 64.59961 C38.6222 64.59961 35.69252 64.59961 33.9347 64.59961 zM11.12727 -12.93668 C14.47754 -12.93668 21.17808 -12.93668 24.52836 -12.93668 Q33.31742 -12.93668 33.31742 -0.97656 C33.31742 14.88028 33.31742 34.70133 33.31742 46.59397 C29.97248 46.59397 23.28261 46.59397 19.93767 46.59397 C19.93767 48.61735 19.93767 52.66412 19.93767 54.6875 C25.5287 54.6875 36.71076 54.6875 42.30179 54.6875 C42.30179 40.77148 42.30179 12.93945 42.30179 -0.97656 Q42.30179 -10.44922 37.90726 -15.68673 Q33.51273 -20.92424 25.50492 -20.92424 C20.71237 -20.92424 14.72168 -20.92424 11.12727 -20.92424 C11.12727 -18.92735 11.12727 -14.93357 11.12727 -12.93668 z" />
<glyph unicode="k" horiz-adv-x="60.205078" d="M11.03516 75.97656 C13.35449 75.97656 17.99316 75.97656 20.3125 75.97656 C20.3125 64.97803 20.3125 42.98096 20.3125 31.98242 C26.2085 37.65869 38.00049 49.01123 43.89648 54.6875 C46.63086 54.6875 52.09961 54.6875 54.83398 54.6875 C49.45068 49.53613 38.68408 39.2334 33.30078 34.08203 C39.52637 25.56152 51.97754 8.52051 58.20312 0 C55.45654 0 49.96338 0 47.2168 0 C42.16309 7.05566 32.05566 21.16699 27.00195 28.22266 C25.32959 26.64795 21.98486 23.49854 20.3125 21.92383 C20.3125 16.44287 20.3125 5.48096 20.3125 0 C17.99316 0 13.35449 0 11.03516 0 C11.03516 18.99414 11.03516 56.98242 11.03516 75.97656 z" />
<glyph unicode="l" horiz-adv-x="60.205078" d="M26.08642 0 Q26.08642 7 26.08642 21.5 Q26.08642 36 26.08642 40 Q26.08642 44 26.08642 47.94444 Q26.08642 51.88889 25.96296 64.92593 C21.76096 64.9077 16.50846 64.88491 13.35696 64.87124 C13.35696 66.90683 13.35696 70.97801 13.35696 73.0136 C18.83376 73.0136 29.78736 73.0136 35.26415 73.0136 C35.21972 68.0102 35.13085 58.0034 35.08642 53 Q35.08642 47.04297 35.08642 45.02148 Q35.08642 43 35.08642 38 C35.08642 35 35.08642 31.25 35.08642 29 Q35.08642 22 35.08642 14 Q35.08642 6 35.08642 0 Q31.08642 0 30.08642 0 Q29.08642 0 26.08642 0 z" />
<glyph unicode="m" horiz-adv-x="60.205078" d="M3.96424 54.6875 C5.83837 54.6875 9.58662 54.6875 11.46074 54.6875 C11.44001 53.48476 11.39853 51.07928 11.3778 49.87654 Q14.69811 55.8824 23.29102 56.00586 Q29.16233 56.00586 31.8967 49.12109 Q36.45158 56.00586 44.6916 56.00586 Q51.33222 56.00586 53.96894 51.02539 Q56.65449 45.89844 56.65449 31.68945 C56.65449 21.1263 56.65449 7.92236 56.65449 0 C54.60371 0 50.50215 0 48.45136 0 C48.45136 7.82471 48.45136 23.47412 48.45136 31.29883 Q48.45136 37.45117 48.13398 40.82031 Q47.8166 44.18945 47.13301 45.80078 Q45.9123 48.48633 42.05211 48.48633 Q38.34117 48.48633 35.9375 45.55664 Q35.10742 43.84766 34.76562 40.57617 Q34.42383 37.30469 34.42383 31.29883 C34.42383 20.86589 34.42383 7.82471 34.42383 0 C32.37305 0 28.27148 0 26.2207 0 C26.2207 7.82471 26.2207 23.47412 26.2207 31.29883 Q26.2207 37.20703 25.87891 40.67383 Q25.53711 44.14062 24.80469 45.75195 Q23.48633 48.48633 19.87305 48.48633 Q15.0252 48.48633 13.70684 45.60547 Q12.92559 43.94531 12.58379 40.55176 Q12.24199 37.1582 12.24199 31.29883 C12.24199 20.86589 12.24199 7.82471 12.24199 0 C10.17256 0 6.03368 0 3.96424 0 C3.96424 13.67188 3.96424 41.01562 3.96424 54.6875 z" />
<glyph unicode="n" horiz-adv-x="60.205078" d="M9.52148 54.6875 C11.54785 54.6875 15.60059 54.6875 17.62695 54.6875 C17.84668 52.63672 18.28613 48.53516 18.50586 46.48438 Q23.4375 56.00586 34.57031 56.00586 Q51.31836 56.00586 51.31836 33.88672 C51.31836 22.59115 51.31836 8.47168 51.31836 0 C49.06006 0 44.54346 0 42.28516 0 C42.28516 8.47168 42.28516 25.41504 42.28516 33.88672 Q42.28516 41.25977 39.72168 44.72656 Q37.1582 48.19336 31.78711 48.19336 Q25.39062 48.19336 21.94824 43.67676 Q18.50586 39.16016 18.50586 30.9082 C18.50586 20.60547 18.50586 7.72705 18.50586 0 C16.25977 0 11.76758 0 9.52148 0 C9.52148 13.67188 9.52148 41.01562 9.52148 54.6875 z" />
<glyph unicode="o" horiz-adv-x="60.205078" d="M30.17578 -1.41602 Q18.75 -1.41602 12.71973 5.98145 Q6.68945 13.37891 6.68945 27.24609 Q6.68945 41.16211 12.74414 48.58398 Q18.79883 56.00586 30.12695 56.00586 Q41.45508 56.00586 47.48535 48.6084 Q53.51562 41.21094 53.51562 27.19727 Q53.51562 13.28125 47.50977 5.93262 Q41.50391 -1.41602 30.17578 -1.41602 zM30.12695 6.20117 Q36.81641 6.20117 40.40527 11.66992 Q43.99414 17.13867 43.99414 27.34375 Q43.99414 37.5 40.40527 42.94434 Q36.81641 48.38867 30.12695 48.38867 Q23.38867 48.38867 19.7998 42.94434 Q16.21094 37.5 16.21094 27.34375 Q16.21094 17.13867 19.82422 11.66992 Q23.4375 6.20117 30.12695 6.20117 z" />
<glyph unicode="p" horiz-adv-x="60.205078" d="M9.27734 54.6875 C11.31592 54.6875 15.39307 54.6875 17.43164 54.6875 C17.65137 52.94189 18.09082 49.45068 18.31055 47.70508 Q22.99805 56.00586 33.00781 56.00586 Q42.82227 56.00586 48.46191 48.33984 Q54.10156 40.67383 54.10156 27.39258 Q54.10156 14.01367 48.41309 6.29883 Q42.72461 -1.41602 33.00781 -1.41602 Q22.75391 -1.41602 18.31055 6.88477 C18.31055 -2.34375 18.31055 -13.87939 18.31055 -20.80078 C16.05225 -20.80078 11.53564 -20.80078 9.27734 -20.80078 C9.27734 -1.92871 9.27734 35.81543 9.27734 54.6875 zM31.83594 6.20117 Q44.67773 6.20117 44.67773 27.29492 Q44.67773 48.38867 31.83594 48.38867 Q25.24414 48.38867 21.77734 42.91992 Q18.31055 37.45117 18.31055 27.34375 Q18.31055 17.1875 21.80176 11.69434 Q25.29297 6.20117 31.83594 6.20117 z" />
<glyph unicode="q" horiz-adv-x="60.205078" d="M42.48047 6.78711 Q37.89062 -1.61133 27.58789 -1.61133 Q21.72852 -1.61133 17.72461 0.90332 Q13.7207 3.41797 11.2793 7.56836 Q8.83789 11.71875 7.76367 16.72363 Q6.68945 21.72852 6.68945 26.75781 Q6.68945 40.23438 12.37793 48.02246 Q18.06641 55.81055 27.88086 55.81055 Q37.89062 55.81055 42.48047 47.50977 C42.77344 49.83724 43.13965 52.74658 43.35938 54.49219 C45.39795 54.49219 49.4751 54.49219 51.51367 54.49219 C51.51367 35.62012 51.51367 -2.12402 51.51367 -20.99609 C49.25537 -20.99609 44.73877 -20.99609 42.48047 -20.99609 C42.48047 -14.05029 42.48047 -0.15869 42.48047 6.78711 zM29.3457 6.00586 Q35.64453 6.00586 39.0625 11.49902 Q42.48047 16.99219 42.48047 27.14844 Q42.48047 37.30469 39.08691 42.74902 Q35.69336 48.19336 29.3457 48.19336 Q22.99805 48.19336 19.60449 42.72461 Q16.21094 37.25586 16.21094 27.09961 Q16.21094 16.99219 19.60449 11.49902 Q22.99805 6.00586 29.3457 6.00586 z" />
<glyph unicode="r" horiz-adv-x="60.205078" d="M14.74609 54.6875 C16.87726 54.6875 21.13959 54.6875 23.27076 54.6875 C23.3053 52.63144 23.37439 48.51933 23.40893 46.46328 Q26.07422 50.9158 30.68848 53.46083 Q35.30273 56.00586 41.74805 56.00586 Q48.48633 56.00586 53.4668 52.58789 C53.4668 49.52799 53.4668 45.70312 53.4668 43.4082 Q48.19336 47.70508 40.9668 47.70508 Q32.66602 47.70508 28.19027 42.63662 Q23.71453 37.56817 23.49383 29 C23.59107 25.0373 23.70793 7.25 23.7793 0 C20.76823 0 17.00439 0 14.74609 0 C14.74609 13.67188 14.74609 41.01562 14.74609 54.6875 z" />
<glyph unicode="s" horiz-adv-x="60.205078" d="M28.75977 -1.41602 Q20.94727 -1.41602 10.40039 2.00195 C10.40039 5.0944 10.40039 8.95996 10.40039 11.2793 Q20.6543 6.10352 28.66211 6.10352 Q34.375 6.10352 37.79297 8.49609 Q41.21094 10.88867 41.21094 14.89258 Q41.21094 18.35938 38.35449 20.4834 Q35.49805 22.60742 29.24805 23.92578 C27.99479 24.1862 26.42822 24.51172 25.48828 24.70703 Q17.77344 26.26953 14.18457 29.8584 Q10.5957 33.44727 10.5957 39.64844 Q10.5957 47.50977 15.9668 51.75781 Q21.33789 56.00586 31.25 56.00586 Q39.64844 56.00586 47.50977 52.7832 C47.50977 49.85352 47.50977 46.19141 47.50977 43.99414 Q39.84375 48.48633 31.49414 48.48633 Q19.67773 48.48633 19.67773 40.42969 Q19.67773 37.79297 20.70312 36.25488 Q21.72852 34.7168 24.60938 33.64258 Q27.49023 32.61719 33.10547 31.49414 C34.3099 31.26628 35.81543 30.98145 36.71875 30.81055 Q50.29297 28.125 50.29297 16.01562 Q50.29297 7.91016 44.53125 3.24707 Q38.76953 -1.41602 28.75977 -1.41602 z" />
<glyph unicode="t" horiz-adv-x="60.205078" d="M33.23146 -0.19531 Q23.17286 -0.19531 18.99806 3.88184 Q14.82325 7.95898 14.82325 17.82227 Q14.82325 24.9332 14.82325 25.52534 Q14.82325 26.11748 14.82325 68.99414 Q16.82716 69 18.83693 69.0498 Q20.84669 69.09961 23.82716 69 C23.82065 64.22917 23.81251 58.26562 23.80763 54.6875 C28.91017 54.6875 39.11525 54.6875 44.21779 54.6875 C44.21779 52.63325 44.21779 48.52476 44.21779 46.47051 C39.11525 46.47051 28.91017 46.47051 23.80763 46.47051 C23.80763 39.30845 23.80763 24.98433 23.80763 17.82227 Q23.80763 11.81641 26.10255 9.89324 Q28.39747 7.97008 34.11036 7.97008 C38.63177 7.97008 44.28352 7.97008 47.67458 7.97008 C47.67458 5.92873 47.67458 1.84604 47.67458 -0.19531 C44.0638 -0.19531 36.84224 -0.19531 33.23146 -0.19531 z" />
<glyph unicode="u" horiz-adv-x="60.205078" d="M26.17188 -1.41602 Q8.16346 -1.41602 8.16346 20.70312 C8.16346 31.9987 8.16346 46.11816 8.16346 54.58984 C10.40955 54.58984 14.90174 54.58984 17.14783 54.58984 C17.14783 46.11816 17.14783 29.1748 17.14783 20.70312 Q17.14783 6.39648 29.19922 6.39648 Q36 7 39.30864 11 Q42.61728 15 42.61728 21 C42.71234 32.19661 42.83115 46.19238 42.90244 54.58984 C45.16074 54.58984 49.67734 54.58984 51.93564 54.58984 C51.95173 40.9501 51.98391 13.67061 52 0.03086 C49.90432 0.02315 45.71296 0.00772 43.61728 0 C43.61728 1.5 43.61728 4.5 43.61728 6 Q39.61728 -2 26.17188 -1.41602 z" />
<glyph unicode="v" horiz-adv-x="60.205078" d="M4.88281 54.6875 C7.21436 54.6875 11.87744 54.6875 14.20898 54.6875 C18.17627 43.21289 26.11084 20.26367 30.07812 8.78906 C34.05762 20.26367 42.0166 43.21289 45.99609 54.6875 C48.32764 54.6875 52.99072 54.6875 55.32227 54.6875 C50.46387 41.01562 40.74707 13.67188 35.88867 0 C32.99561 0 27.20947 0 24.31641 0 C19.45801 13.67188 9.74121 41.01562 4.88281 54.6875 z" />
<glyph unicode="w" horiz-adv-x="60.205078" d="M0 54.6875 C2.22168 54.6875 6.66504 54.6875 8.88672 54.6875 C11.16504 44.01562 15.72168 22.67188 18 12 C19.75 18.75 23.25 32.25 25 39 C27.5 39 32.5 39 35 39 C37 32.25 41 18.75 43 12 C45.07959 22.67188 49.23877 44.01562 51.31836 54.6875 C53.54004 54.6875 57.9834 54.6875 60.20508 54.6875 C57.00684 41.01562 50.61035 13.67188 47.41211 0 C45.26367 0 40.9668 0 38.81836 0 C36.6333 7.49512 32.26318 22.48535 30.07812 29.98047 C27.90527 22.48535 23.55957 7.49512 21.38672 0 C19.23828 0 14.94141 0 12.79297 0 C9.59473 13.67188 3.19824 41.01562 0 54.6875 z" />
<glyph unicode="x" horiz-adv-x="60.205078" d="M25.19531 28.51562 C20.30029 35.05859 10.51025 48.14453 5.61523 54.6875 C8.10547 54.6875 13.08594 54.6875 15.57617 54.6875 C19.20166 49.74365 26.45264 39.85596 30.07812 34.91211 C33.6792 39.85596 40.88135 49.74365 44.48242 54.6875 C47.00928 54.6875 52.06299 54.6875 54.58984 54.6875 C49.69482 48.14453 39.90479 35.05859 35.00977 28.51562 C40.38086 21.38672 51.12305 7.12891 56.49414 0 C53.89404 0 48.69385 0 46.09375 0 C42.08984 5.48096 34.08203 16.44287 30.07812 21.92383 C26.08643 16.44287 18.10303 5.48096 14.11133 0 C11.51123 0 6.31104 0 3.71094 0 C9.08203 7.12891 19.82422 21.38672 25.19531 28.51562 z" />
<glyph unicode="y" horiz-adv-x="60.205078" d="M35.38272 -12.74074 C43.11111 -12 43.38272 -4.51852 43.2716 1.48148 C36.2716 1.48148 32.61728 1.48148 25.61728 1.48148 Q9.37037 3.48148 7.61728 19.23457 C7.64333 31.05221 7.67588 45.82427 7.69541 54.6875 C9.95674 54.7039 14.47941 54.73669 16.74074 54.75309 Q16.74074 45.75309 16.74074 38.42901 Q16.74074 31.10494 16.74074 22.60494 Q16.75309 15.60494 19.06173 12.73457 Q21.37037 9.8642 27.61728 9.8642 Q35.61728 9.8642 36.94444 9.8642 Q38.2716 9.8642 43.2716 9.8642 Q43.2716 20.8642 43.2716 32.30864 Q43.2716 43.75309 43.13537 54.65664 C46.13963 54.68879 49.89495 54.72897 52.14815 54.75309 Q52.14815 45.75309 52.20988 38.05401 Q52.2716 30.35494 52.2716 21.60494 C52.2716 9.2716 52.38272 4.00617 52.38272 -4.49383 C50.98765 -16 42.38272 -21.12346 37.38272 -21.12346 C34.38272 -21.12346 26.04938 -21.12346 19.38272 -21.12346 C14.38272 -21.12346 14.38272 -12.74074 19.38272 -12.74074 C22.38272 -12.74074 28.71605 -12.74074 35.38272 -12.74074 z" />
<glyph unicode="z" horiz-adv-x="60.205078" d="M9.91211 8.30078 C17.76123 18.12744 33.45947 37.78076 41.30859 47.60742 C33.75244 47.60742 18.64014 47.60742 11.08398 47.60742 C11.08398 49.40186 11.08398 52.99072 11.08398 54.78516 C21.0083 54.78516 40.85693 54.78516 50.78125 54.78516 C50.78125 52.73437 50.78125 48.63281 50.78125 46.58203 C42.93213 36.76758 27.23389 17.13867 19.38477 7.32422 C27.23389 7.32422 42.93213 7.32422 50.78125 7.32422 C50.78125 5.49316 50.78125 1.83105 50.78125 0 C40.56396 0 20.12939 0 9.91211 0 C9.91211 2.0752 9.91211 6.22559 9.91211 8.30078 z" />
<glyph unicode="{" horiz-adv-x="60.205078" d="M47.13477 -9.77898 Q35.07422 -9.77898 30.875 -6.1657 Q26.72461 -2.60125 26.72461 8.23859 C26.72461 12.12857 26.72461 16.99104 26.72461 19.90852 Q26.72461 27.23273 24.13672 30.11359 Q21.5 32.4518 14.66406 32.4518 C12.77604 32.4518 10.41602 32.4518 9 32.4518 C9 34.44432 9 38.42936 9 40.42188 C10.41602 40.42188 13.24805 40.42188 14.66406 40.42188 Q21.54883 40.42188 24.13672 42.71125 Q26.72461 45.59211 26.72461 52.81867 C26.72461 56.72492 26.72461 61.60774 26.72461 64.53742 Q26.72461 75.37727 30.875 78.94172 Q34.87891 82.50617 47.13477 82.50617 C48.17643 82.50617 49.47852 82.50617 50.25977 82.50617 C50.25977 80.60625 50.25977 76.80639 50.25977 74.90647 C49.40527 74.90647 47.69629 74.90647 46.8418 74.90647 Q40.00586 74.90647 37.95508 73.42414 Q35.85547 71.32453 35.85547 64.34211 C35.85547 60.30565 35.85547 55.26008 35.85547 52.23273 Q35.85547 44.56672 33.6582 41.09992 Q31.41211 37.63313 26.04102 36.41242 Q31.46094 35.09406 33.6582 31.62727 Q35.85547 28.16047 35.85547 20.54328 C35.85547 16.50682 35.85547 11.46125 35.85547 8.43391 Q35.85547 1.45148 37.95508 -0.64812 Q40.00586 -2.13045 46.8418 -2.13045 C47.98112 -2.13045 49.40527 -2.13045 50.25977 -2.13045 C50.25977 -4.04258 50.25977 -7.86685 50.25977 -9.77898 C49.47852 -9.77898 47.91602 -9.77898 47.13477 -9.77898 z" />
<glyph unicode="|" horiz-adv-x="60.205078" d="M25.60156 80.7037 C27.70117 80.7037 31.90039 80.7037 34 80.7037 C34 58.57407 34 14.31481 34 -7.81481 C31.90039 -7.81481 27.70117 -7.81481 25.60156 -7.81481 C25.60156 14.31481 25.60156 58.57407 25.60156 80.7037 z" />
<glyph unicode="}" horiz-adv-x="60.205078" d="M10 -2.10455 C10.83008 -2.10455 12.49023 -2.10455 13.32031 -2.10455 Q20.15625 -2.10455 22.30469 -0.5734 Q24.4043 1.52621 24.4043 8.4598 C24.4043 12.49626 24.4043 17.54184 24.4043 20.56918 Q24.4043 28.18637 26.60156 31.65316 Q28.79883 35.11996 34.21875 36.43832 Q28.84766 37.70785 26.65039 41.12582 Q25.57617 42.78598 24.99023 45.44711 Q24.4043 48.10824 24.4043 52.25863 C24.4043 56.29509 24.4043 61.34066 24.4043 64.36801 Q24.4043 71.3016 22.30469 73.40121 Q20.15625 74.93236 13.32031 74.93236 C12.21354 74.93236 10.83008 74.93236 10 74.93236 C10 76.83229 10 80.63214 10 82.53207 C10.75684 82.53207 12.27051 82.53207 13.02734 82.53207 Q25.2832 82.53207 29.28711 78.96762 Q33.38867 75.40316 33.38867 64.56332 C33.38867 60.65707 33.38867 55.77426 33.38867 52.84457 Q33.38867 49.03598 34.41406 46.61898 Q35.43945 44.20199 37.49023 42.73715 Q39.44336 41.32113 42.25098 40.88445 Q45.05859 40.44777 48.42773 40.44777 C49.4694 40.44777 50.77148 40.44777 51.55273 40.44777 C51.55273 38.45525 51.55273 34.47022 51.55273 32.4777 C50.77148 32.4777 49.20898 32.4777 48.42773 32.4777 Q41.25 32.4777 37.49023 30.13949 Q35.43945 28.62582 34.41406 26.18441 Q33.38867 23.74301 33.38867 19.93441 C33.38867 16.04444 33.38867 11.18197 33.38867 8.26449 Q33.38867 -2.52652 29.28711 -6.13981 Q25.08789 -9.75309 13.02734 -9.75309 C12.01823 -9.75309 10.75684 -9.75309 10 -9.75309 C10 -7.84095 10 -4.01669 10 -2.10455 z" />
<glyph unicode="~" horiz-adv-x="60.205078" d="M56 43.54528 Q56 41.1358 55.24316 38.19485 Q54.48633 35.25391 52.67969 32.08008 Q49.16406 25 41.10742 25 Q37.25 25 34.41797 26.66016 Q31.87891 28.27148 28.26562 33.20312 Q24.4082 38.57422 22.65039 39.89258 Q20.64844 41.30859 18.89062 41.30859 Q15.13086 41.30859 13.56836 37.79297 Q12 32.24691 11.51758 28.67513 C8.97852 29.29241 5.80469 30.06402 3.90039 30.52698 Q5.1358 37.87654 7.2207 41.94336 Q11.27344 48.92578 18.64648 48.92578 Q22.21094 48.92578 25.0918 47.2168 Q26.55664 46.33789 28.24121 44.70215 Q29.92578 43.06641 31.48828 40.86914 Q34.17383 37.20703 36.61523 34.76562 Q38.66602 32.61719 40.91211 32.61719 Q44.81836 32.61719 46.40918 36.12341 Q48 39.62963 48.38281 45.27368 C50.92187 44.69755 54.0957 43.97738 56 43.54528 z" />
<glyph unicode="" horiz-adv-x="60.205078" d="" />
<glyph unicode="" horiz-adv-x="60.205078" d="M30.56641 73.14453 Q33.98438 73.14453 36.23047 70.80078 Q38.47656 68.55469 38.47656 64.69727 Q38.47656 60.88867 36.23047 58.64258 Q33.93555 56.34766 30.56641 56.34766 Q27.19727 56.34766 24.90234 58.64258 Q22.65625 60.88867 22.65625 64.69727 Q22.65625 68.55469 24.90234 70.80078 Q27.14844 73.14453 30.56641 73.14453 zM33.64258 46.48438 C34.46045 39.56299 36.09619 25.72021 36.91406 18.79883 C36.91406 13.3667 36.91406 2.50244 36.91406 -2.92969 C33.6792 -2.92969 27.20947 -2.92969 23.97461 -2.92969 C23.97461 2.50244 23.97461 13.3667 23.97461 18.79883 C24.91455 25.72021 26.79443 39.56299 27.73438 46.48438 C29.21143 46.48438 32.16553 46.48438 33.64258 46.48438 z" />
<glyph unicode="" horiz-adv-x="60.205078" d="M34.08203 -1.31836 Q28.61328 -0.78125 24.31641 1.34277 Q20.01953 3.4668 16.79688 7.42188 Q13.7207 11.18164 11.9873 16.28418 Q10.25391 21.38672 10.25391 27.24609 Q10.25391 33.20312 12.03613 38.35449 Q13.81836 43.50586 16.8457 47.2168 Q19.82422 50.87891 24.07227 53.125 Q28.32031 55.37109 34.08203 55.9082 C34.08203 60.57943 34.08203 66.41846 34.08203 69.92188 C35.33936 69.92188 37.854 69.92188 39.11133 69.92188 C39.11133 66.41846 39.11133 59.41162 39.11133 55.9082 Q42.08984 55.66406 45.09277 54.95605 Q48.0957 54.24805 51.80664 52.58789 C51.80664 49.78841 51.80664 46.28906 51.80664 44.18945 Q48.68164 46.04492 45.36133 47.2168 Q43.65234 47.80273 42.13867 48.0957 Q40.625 48.38867 39.11133 48.48633 C39.11133 34.32617 39.11133 16.62598 39.11133 6.00586 Q40.67383 6.10352 42.23633 6.46973 Q43.79883 6.83594 45.41016 7.37305 Q46.92383 7.91016 48.58398 8.66699 Q50.24414 9.42383 51.80664 10.40039 C51.80664 7.60091 51.80664 4.10156 51.80664 2.00195 Q49.56055 1.02539 48.07129 0.53711 Q46.58203 0.04883 45.06836 -0.3418 Q41.79688 -1.17188 39.11133 -1.31836 C39.11133 -5.97331 39.11133 -11.79199 39.11133 -15.2832 C37.854 -15.2832 35.33936 -15.2832 34.08203 -15.2832 C34.08203 -11.79199 34.08203 -4.80957 34.08203 -1.31836 zM34.08203 48.38867 Q27.58789 47.80273 23.73047 42.04102 Q19.82422 36.23047 19.82422 27.29492 Q19.82422 18.4082 23.73047 12.59766 Q27.68555 6.83594 34.08203 6.20117 C34.08203 20.26367 34.08203 37.8418 34.08203 48.38867 z" />
<glyph unicode="" horiz-adv-x="60.205078" d="M6.78711 8.30078 C9.66797 8.30078 15.42969 8.30078 18.31055 8.30078 C18.31055 13.97705 18.31055 25.32959 18.31055 31.00586 C15.88135 31.00586 11.02295 31.00586 8.59375 31.00586 C8.59375 32.75146 8.59375 36.24268 8.59375 37.98828 C11.02295 37.98828 15.88135 37.98828 18.31055 37.98828 C18.31055 40.89355 18.31055 46.7041 18.31055 49.60938 Q18.31055 62.01172 23.68164 68.11523 Q29.00391 74.21875 39.55078 74.21875 Q43.16406 74.21875 46.43555 73.53516 Q47.60742 73.29102 49.4873 72.72949 Q51.36719 72.16797 53.32031 71.38672 C53.32031 68.39193 53.32031 64.64844 53.32031 62.40234 Q51.66016 63.57422 50.07324 64.37988 Q48.48633 65.18555 47.2168 65.625 Q44.18945 66.69922 40.86914 66.69922 Q34.27734 66.69922 31.20117 62.35352 Q28.07617 58.05664 28.07617 48.58398 C28.07617 45.05208 28.07617 40.63721 28.07617 37.98828 C32.60498 37.98828 41.6626 37.98828 46.19141 37.98828 C46.19141 36.24268 46.19141 32.75146 46.19141 31.00586 C41.6626 31.00586 32.60498 31.00586 28.07617 31.00586 C28.07617 25.32959 28.07617 13.97705 28.07617 8.30078 C34.63135 8.30078 47.7417 8.30078 54.29688 8.30078 C54.29688 6.22559 54.29688 2.0752 54.29688 0 C42.41943 0 18.66455 0 6.78711 0 C6.78711 2.0752 6.78711 6.22559 6.78711 8.30078 z" />
<glyph unicode="" horiz-adv-x="60.205078" d="M10.00977 13.91602 C12.03613 15.94238 16.08887 19.99512 18.11523 22.02148 Q16.50391 24.6582 15.84473 26.80664 Q15.18555 28.95508 15.18555 31.34766 Q15.18555 33.83789 15.9668 36.03516 Q16.79688 38.37891 18.21289 40.47852 C15.47852 43.18034 12.06055 46.55762 10.00977 48.58398 C11.15723 49.74365 13.45215 52.06299 14.59961 53.22266 C16.62598 51.17187 20.67871 47.07031 22.70508 45.01953 Q24.95117 46.5332 27.19727 47.26562 Q29.39453 47.99805 31.78711 47.99805 Q36.23047 47.99805 41.21094 45.11719 C43.91276 47.81901 47.29004 51.19629 49.31641 53.22266 C50.41504 52.0874 52.6123 49.81689 53.71094 48.68164 C51.68457 46.65527 47.63184 42.60254 45.60547 40.57617 Q47.2168 37.89062 47.80273 35.9375 Q48.48633 33.74023 48.48633 31.25 Q48.48633 28.85742 47.75391 26.66016 Q46.97266 24.21875 45.50781 22.2168 C48.24219 19.51497 51.66016 16.1377 53.71094 14.11133 C52.56348 12.96387 50.26855 10.66895 49.12109 9.52148 C47.09473 11.56006 43.04199 15.63721 41.01562 17.67578 Q38.76953 16.16211 36.57227 15.42969 Q34.27734 14.69727 31.83594 14.69727 Q27.19727 14.69727 22.50977 17.48047 C19.84049 14.82747 16.50391 11.51123 14.50195 9.52148 C13.37891 10.62012 11.13281 12.81738 10.00977 13.91602 zM31.88477 20.80078 Q36.32812 20.80078 39.35547 23.82812 Q42.38281 26.95312 42.38281 31.39648 Q42.38281 35.83984 39.4043 38.81836 Q36.42578 41.79688 31.88477 41.79688 Q27.44141 41.79688 24.46289 38.86719 Q21.38672 35.9375 21.38672 31.34766 Q21.38672 27.05078 24.41406 23.87695 Q27.49023 20.80078 31.88477 20.80078 z" />
<glyph unicode="" horiz-adv-x="60.205078" d="M25.09766 25.58594 C20.22705 25.58594 10.48584 25.58594 5.61523 25.58594 C5.61523 26.94092 5.61523 29.65088 5.61523 31.00586 C10.48584 31.00586 20.22705 31.00586 25.09766 31.00586 C25.09766 31.43311 25.09766 32.2876 25.09766 32.71484 C23.99902 34.55811 21.80176 38.24463 20.70312 40.08789 C16.93115 40.08789 9.38721 40.08789 5.61523 40.08789 C5.61523 41.44287 5.61523 44.15283 5.61523 45.50781 C8.58154 45.50781 14.51416 45.50781 17.48047 45.50781 C13.56201 52.35596 5.7251 66.05225 1.80664 72.90039 C4.43115 72.90039 9.68018 72.90039 12.30469 72.90039 C16.74805 64.85596 25.63477 48.76709 30.07812 40.72266 C34.50928 48.76709 43.37158 64.85596 47.80273 72.90039 C50.45166 72.90039 55.74951 72.90039 58.39844 72.90039 C54.37012 66.05225 46.31348 52.35596 42.28516 45.50781 C45.36133 45.50781 51.51367 45.50781 54.58984 45.50781 C54.58984 44.15283 54.58984 41.44287 54.58984 40.08789 C50.74463 40.08789 43.0542 40.08789 39.20898 40.08789 C38.15918 38.24463 36.05957 34.55811 35.00977 32.71484 C35.00977 32.2876 35.00977 31.43311 35.00977 31.00586 C39.90479 31.00586 49.69482 31.00586 54.58984 31.00586 C54.58984 29.65088 54.58984 26.94092 54.58984 25.58594 C49.69482 25.58594 39.90479 25.58594 35.00977 25.58594 C35.00977 19.18945 35.00977 6.39648 35.00977 0 C32.53174 0 27.57568 0 25.09766 0 C25.09766 6.39648 25.09766 19.18945 25.09766 25.58594 z" />
<glyph unicode="" horiz-adv-x="60.205078" d="M26 80.01172 C28.09961 80.01172 32.29883 80.01172 34.39844 80.01172 C34.39844 70.75879 34.39844 52.25293 34.39844 43 C32.29883 43 28.09961 43 26 43 C26 52.25293 26 70.75879 26 80.01172 zM26 30.01172 C28.09961 30.01172 32.29883 30.01172 34.39844 30.01172 C34.39844 20.75879 34.39844 2.25293 34.39844 -7 C32.29883 -7 28.09961 -7 26 -7 C26 2.25293 26 20.75879 26 30.01172 z" />
<glyph unicode="" horiz-adv-x="60.205078" d="M29.05273 -9.52148 Q27.14844 -9.52148 25.19531 -9.32617 Q23.24219 -9.13086 21.67969 -8.83789 Q19.92188 -8.49609 17.84668 -7.93457 Q15.77148 -7.37305 13.62305 -6.68945 C13.62305 -4.02018 13.62305 -0.68359 13.62305 1.31836 Q22.16797 -2.49023 27.97852 -2.49023 Q32.91016 -2.49023 35.64453 -0.43945 Q38.37891 1.61133 38.37891 5.0293 Q38.37891 7.95898 35.79102 10.49805 Q33.20312 13.03711 27.58789 16.30859 C27.19727 16.53646 26.70898 16.82129 26.41602 16.99219 Q21.5332 19.82422 18.21289 22.02148 Q14.89258 24.21875 12.8418 26.61133 Q9.7168 30.32227 9.7168 35.35156 Q9.7168 39.64844 12.01172 43.26172 Q14.30664 46.72852 18.70117 49.12109 Q15.72266 51.26953 14.35547 54.00391 Q12.89062 56.78711 12.89062 60.05859 Q12.89062 66.60156 17.77344 70.41016 Q20.3125 72.41211 23.68164 73.31543 Q27.05078 74.21875 30.71289 74.21875 Q32.56836 74.21875 34.5459 74.02344 Q36.52344 73.82812 38.08594 73.53516 Q41.55273 72.85156 45.70312 71.38672 C45.70312 68.71745 45.70312 65.38086 45.70312 63.37891 Q37.64648 67.1875 31.78711 67.1875 Q29.29688 67.1875 27.53906 66.6748 Q25.78125 66.16211 24.56055 65.23438 Q23.24219 64.25781 22.58301 62.86621 Q21.92383 61.47461 21.92383 60.15625 Q21.92383 57.76367 24.24316 55.29785 Q26.5625 52.83203 31.88477 49.80469 C32.55208 49.43034 33.38623 48.9624 33.88672 48.68164 Q39.74609 45.45898 42.77344 43.18848 Q45.80078 40.91797 47.36328 39.11133 Q50.58594 35.35156 50.58594 30.37109 Q50.58594 26.07422 48.38867 22.60742 Q46.09375 19.14062 41.60156 16.60156 Q44.53125 14.0625 45.99609 11.42578 Q46.67969 10.15625 47.0459 8.71582 Q47.41211 7.27539 47.41211 5.41992 Q47.41211 -1.31836 42.43164 -5.41992 Q37.45117 -9.52148 29.05273 -9.52148 zM36.62109 20.01953 Q39.69727 22.31445 41.11328 24.41406 Q42.57812 26.61133 42.57812 28.90625 Q42.57812 30.9082 41.62598 32.71484 Q40.67383 34.52148 39.11133 35.9375 Q35.54688 39.30664 23.68164 45.70312 Q20.60547 43.4082 19.18945 41.30859 Q18.50586 40.2832 18.09082 39.20898 Q17.67578 38.13477 17.67578 36.76758 Q17.67578 33.10547 21.19141 29.83398 Q23.0957 28.02734 26.58691 25.78125 Q30.07812 23.53516 36.62109 20.01953 z" />
<glyph unicode="" horiz-adv-x="60.205078" d="M24.02344 75.78125 Q25.48828 75.78125 25.48828 74.31641 C25.48828 72.00521 25.48828 69.11621 25.48828 67.38281 Q25.48828 65.91797 24.02344 65.91797 C21.69596 65.91797 18.78662 65.91797 17.04102 65.91797 Q15.57617 65.91797 15.57617 67.38281 C15.57617 69.69401 15.57617 72.58301 15.57617 74.31641 Q15.57617 75.78125 17.04102 75.78125 C19.36849 75.78125 22.27783 75.78125 24.02344 75.78125 zM43.11523 75.78125 Q44.58008 75.78125 44.58008 74.31641 C44.58008 72.00521 44.58008 69.11621 44.58008 67.38281 Q44.58008 65.91797 43.11523 65.91797 C40.80404 65.91797 37.91504 65.91797 36.18164 65.91797 Q34.7168 65.91797 34.7168 67.38281 C34.7168 69.69401 34.7168 72.58301 34.7168 74.31641 Q34.7168 75.78125 36.18164 75.78125 C38.49284 75.78125 41.38184 75.78125 43.11523 75.78125 z" />
<glyph unicode="" horiz-adv-x="60.205078" d="M30.07812 6.10352 Q17.72461 6.10352 8.83789 14.99023 Q4.58984 19.23828 2.24609 24.75586 Q0 29.98047 0 36.18164 Q0 42.48047 2.24609 47.70508 Q4.58984 53.17383 8.88672 57.51953 Q13.08594 61.86523 18.60352 64.11133 Q23.92578 66.30859 30.07812 66.30859 Q36.23047 66.30859 41.60156 64.11133 Q44.38477 62.98828 46.82617 61.30371 Q49.26758 59.61914 51.31836 57.51953 Q53.71094 55.07812 55.34668 52.56348 Q56.98242 50.04883 57.95898 47.70508 Q60.20508 42.48047 60.20508 36.23047 Q60.20508 29.98047 58.00781 24.80469 Q56.93359 22.26562 55.24902 19.72656 Q53.56445 17.1875 51.36719 14.99023 Q49.31641 12.93945 46.82617 11.23047 Q44.33594 9.52148 41.55273 8.34961 Q36.32812 6.10352 30.07812 6.10352 zM30.12695 11.08398 Q35.10742 11.08398 39.64844 12.93945 Q44.23828 14.94141 47.80273 18.45703 Q49.46289 20.11719 50.95215 22.26562 Q52.44141 24.41406 53.36914 26.66016 Q55.17578 30.9082 55.17578 36.18164 Q55.17578 41.30859 53.32031 45.84961 Q51.46484 50.29297 47.80273 54.00391 Q44.14062 57.66602 39.74609 59.47266 Q35.40039 61.2793 30.07812 61.2793 Q24.75586 61.2793 20.50781 59.47266 Q16.01562 57.61719 12.40234 54.00391 Q8.69141 50.29297 6.88477 45.84961 Q4.98047 41.30859 4.98047 36.23047 Q4.98047 31.10352 6.88477 26.66016 Q8.05664 23.87695 9.52148 21.89941 Q10.98633 19.92188 12.40234 18.50586 Q16.06445 14.84375 20.55664 12.93945 Q25 11.08398 30.12695 11.08398 zM31.15234 18.01758 Q22.26562 18.01758 17.23633 22.90039 Q12.20703 27.7832 12.20703 36.18164 Q12.20703 44.62891 17.28516 49.60938 Q22.41211 54.49219 31.15234 54.49219 Q33.88672 54.49219 36.86523 53.95508 Q39.4043 53.4668 42.1875 52.29492 C42.1875 50.53711 42.1875 48.33984 42.1875 47.02148 Q39.35547 48.38867 36.66992 49.07227 Q35.30273 49.41406 33.91113 49.56055 Q32.51953 49.70703 31.29883 49.70703 Q28.51562 49.70703 26.17188 48.85254 Q23.82812 47.99805 22.11914 46.14258 Q18.79883 42.5293 18.79883 36.08398 Q18.79883 29.78516 22.19238 26.29395 Q25.58594 22.80273 32.08008 22.80273 Q37.59766 22.80273 42.1875 25.29297 C42.1875 23.60026 42.1875 21.48438 42.1875 20.21484 Q37.06055 18.01758 31.15234 18.01758 z" />
<glyph unicode="" horiz-adv-x="60.205078" d="M26.70898 34.08203 Q20.60547 34.08203 16.8457 37.40234 Q13.18359 40.72266 13.18359 46.33789 Q13.18359 52.63672 17.72461 56.10352 Q22.31445 59.52148 30.71289 59.52148 C33.67513 59.52148 37.37793 59.52148 39.59961 59.52148 C39.59961 59.57031 39.59961 59.66797 39.59961 59.7168 Q39.59961 64.16016 36.66992 66.35742 Q34.96094 67.62695 32.8125 68.11523 Q30.66406 68.60352 28.4668 68.60352 Q25.48828 68.60352 22.55859 67.77344 Q19.43359 66.8457 16.21094 65.2832 C16.21094 67.35026 16.21094 69.93408 16.21094 71.48438 Q19.53125 72.90039 22.85156 73.53516 Q24.51172 73.87695 26.0498 74.04785 Q27.58789 74.21875 29.44336 74.21875 Q38.03711 74.21875 42.33398 70.01953 Q46.58203 65.91797 46.58203 56.88477 C46.58203 49.5931 46.58203 40.47852 46.58203 35.00977 C45.00732 35.00977 41.85791 35.00977 40.2832 35.00977 C40.1123 36.37695 39.77051 39.11133 39.59961 40.47852 Q37.1582 37.30469 34.0332 35.69336 Q30.95703 34.08203 26.70898 34.08203 zM28.125 39.89258 Q33.20312 39.89258 36.42578 43.4082 Q39.59961 46.875 39.59961 52.49023 C39.59961 52.96224 39.59961 53.55225 39.59961 53.90625 C38.04932 53.90625 34.94873 53.90625 33.39844 53.90625 Q26.31836 53.90625 23.33984 52.24609 Q20.3125 50.53711 20.3125 46.77734 Q20.3125 45.01953 20.89844 43.82324 Q21.48438 42.62695 22.46094 41.79688 Q24.60938 39.89258 28.125 39.89258 zM14.30664 28.90625 C22.46094 28.90625 38.76953 28.90625 46.92383 28.90625 C46.92383 27.40479 46.92383 24.40186 46.92383 22.90039 C38.76953 22.90039 22.46094 22.90039 14.30664 22.90039 C14.30664 24.40186 14.30664 27.40479 14.30664 28.90625 z" />
<glyph unicode="" horiz-adv-x="60.205078" d="M3.85742 27.29492 C3.85742 28.2959 3.85742 30.29785 3.85742 31.29883 C9.58252 36.40137 21.03271 46.60645 26.75781 51.70898 C26.75781 49.37744 26.75781 44.71436 26.75781 42.38281 C23.0835 39.11133 15.73486 32.56836 12.06055 29.29688 C15.73486 26.02539 23.0835 19.48242 26.75781 16.21094 C26.75781 13.87939 26.75781 9.21631 26.75781 6.88477 C21.03271 11.9873 9.58252 22.19238 3.85742 27.29492 zM26.02539 27.29492 C26.02539 28.2959 26.02539 30.29785 26.02539 31.29883 C31.75049 36.40137 43.20068 46.60645 48.92578 51.70898 C48.92578 49.37744 48.92578 44.71436 48.92578 42.38281 C45.25146 39.11133 37.90283 32.56836 34.22852 29.29688 C37.90283 26.02539 45.25146 19.48242 48.92578 16.21094 C48.92578 13.87939 48.92578 9.21631 48.92578 6.88477 C43.20068 11.9873 31.75049 22.19238 26.02539 27.29492 z" />
<glyph unicode="" horiz-adv-x="60.205078" d="M47.70508 33.69141 C36.85303 33.69141 15.14893 33.69141 4.29688 33.69141 C4.29688 35.79102 4.29688 39.99023 4.29688 42.08984 C17.19971 42.08984 43.00537 42.08984 55.9082 42.08984 C55.9082 36.09619 55.9082 24.10889 55.9082 18.11523 C53.85742 18.11523 49.75586 18.11523 47.70508 18.11523 C47.70508 22.00928 47.70508 29.79736 47.70508 33.69141 z" />
<glyph unicode="" horiz-adv-x="60.205078" d="M17.38281 31.39648 C23.74268 31.39648 36.4624 31.39648 42.82227 31.39648 C42.82227 29.39453 42.82227 25.39062 42.82227 23.38867 C36.4624 23.38867 23.74268 23.38867 17.38281 23.38867 C17.38281 25.39062 17.38281 29.39453 17.38281 31.39648 z" />
<glyph unicode="" horiz-adv-x="60.205078" d="M30.07812 6.10352 Q17.72461 6.10352 8.83789 14.99023 Q4.58984 19.23828 2.24609 24.75586 Q0 29.98047 0 36.18164 Q0 42.48047 2.24609 47.70508 Q4.58984 53.17383 8.88672 57.51953 Q13.08594 61.86523 18.60352 64.11133 Q23.92578 66.30859 30.07812 66.30859 Q36.23047 66.30859 41.60156 64.11133 Q44.38477 62.98828 46.82617 61.30371 Q49.26758 59.61914 51.31836 57.51953 Q53.71094 55.07812 55.34668 52.56348 Q56.98242 50.04883 57.95898 47.70508 Q60.20508 42.48047 60.20508 36.23047 Q60.20508 29.98047 58.00781 24.80469 Q56.93359 22.26562 55.24902 19.72656 Q53.56445 17.1875 51.36719 14.99023 Q49.31641 12.93945 46.82617 11.23047 Q44.33594 9.52148 41.55273 8.34961 Q36.32812 6.10352 30.07812 6.10352 zM30.12695 11.08398 Q35.10742 11.08398 39.64844 12.93945 Q44.23828 14.94141 47.80273 18.45703 Q49.46289 20.11719 50.95215 22.26562 Q52.44141 24.41406 53.36914 26.66016 Q55.17578 30.9082 55.17578 36.18164 Q55.17578 41.30859 53.32031 45.84961 Q51.46484 50.29297 47.80273 54.00391 Q44.14062 57.66602 39.74609 59.47266 Q35.40039 61.2793 30.07812 61.2793 Q24.75586 61.2793 20.50781 59.47266 Q16.01562 57.61719 12.40234 54.00391 Q8.69141 50.29297 6.88477 45.84961 Q4.98047 41.30859 4.98047 36.23047 Q4.98047 31.10352 6.88477 26.66016 Q8.05664 23.87695 9.52148 21.89941 Q10.98633 19.92188 12.40234 18.50586 Q16.06445 14.84375 20.55664 12.93945 Q25 11.08398 30.12695 11.08398 zM17.67578 53.71094 C20.58105 53.71094 26.3916 53.71094 29.29688 53.71094 Q36.57227 53.71094 39.99023 51.31836 Q43.50586 48.92578 43.50586 44.0918 Q43.50586 40.57617 41.35742 38.28125 Q39.20898 35.98633 35.30273 35.30273 Q36.13281 35.10742 37.64648 33.44727 Q38.23242 32.66602 39.2334 31.32324 Q40.23438 29.98047 40.91797 28.90625 C42.77344 25.87891 45.09277 22.09473 46.48438 19.82422 C44.73877 19.82422 41.24756 19.82422 39.50195 19.82422 C38.1958 21.94824 35.5835 26.19629 34.27734 28.32031 Q31.83594 32.27539 30.41992 33.25195 Q29.00391 34.27734 26.70898 34.27734 C25.8138 34.27734 24.69482 34.27734 24.02344 34.27734 C24.02344 30.66406 24.02344 23.4375 24.02344 19.82422 C22.43652 19.82422 19.2627 19.82422 17.67578 19.82422 C17.67578 28.2959 17.67578 45.23926 17.67578 53.71094 zM29.00391 38.28125 Q33.39844 38.28125 35.20508 39.59961 Q37.01172 40.91797 37.01172 43.94531 Q37.01172 45.36133 36.59668 46.50879 Q36.18164 47.65625 35.20508 48.33984 Q33.34961 49.60938 29.00391 49.60938 C27.34375 49.60938 25.26855 49.60938 24.02344 49.60938 C24.02344 46.77734 24.02344 41.11328 24.02344 38.28125 C25.26855 38.28125 27.75879 38.28125 29.00391 38.28125 z" />
<glyph unicode="" horiz-adv-x="60.205078" d="M44.67773 67.28516 C37.37793 67.28516 22.77832 67.28516 15.47852 67.28516 C15.47852 69.0918 15.47852 72.70508 15.47852 74.51172 C22.77832 74.51172 37.37793 74.51172 44.67773 74.51172 C44.67773 72.70508 44.67773 69.0918 44.67773 67.28516 z" />
<glyph unicode="" horiz-adv-x="60.205078" d="M29.88281 43.21289 Q26.80664 43.21289 23.97461 44.31152 Q21.14258 45.41016 18.94531 47.60742 Q16.99219 49.56055 15.7959 52.34375 Q14.59961 55.12695 14.59961 58.54492 Q14.59961 65.13672 19.04297 69.67773 Q23.4375 74.21875 30.0293 74.21875 Q31.49414 74.21875 33.08105 73.9502 Q34.66797 73.68164 36.13281 73.04688 Q37.54883 72.46094 38.86719 71.50879 Q40.18555 70.55664 41.16211 69.58008 Q42.33398 68.35938 43.18848 66.99219 Q44.04297 65.625 44.48242 64.55078 Q45.60547 61.76758 45.60547 58.69141 Q45.60547 52.00195 41.11328 47.65625 Q39.01367 45.60547 36.1084 44.40918 Q33.20312 43.21289 29.88281 43.21289 zM29.98047 49.41406 Q31.98242 49.41406 33.74023 50.14648 Q35.49805 50.87891 36.71875 52.09961 Q38.13477 53.51562 38.76953 55.22461 Q39.4043 56.93359 39.4043 58.64258 Q39.4043 62.5 36.66992 65.23438 Q35.54688 66.35742 33.83789 67.13867 Q32.12891 67.91992 30.07812 67.91992 Q26.17188 67.91992 23.53516 65.2832 Q20.80078 62.54883 20.80078 58.54492 Q20.80078 54.6875 23.48633 52.00195 Q26.17188 49.41406 29.98047 49.41406 z" />
<glyph unicode="" horiz-adv-x="60.205078" d="M25.97656 32.8125 C20.55664 32.8125 9.7168 32.8125 4.29688 32.8125 C4.29688 34.8877 4.29688 39.03809 4.29688 41.11328 C9.7168 41.11328 20.55664 41.11328 25.97656 41.11328 C25.97656 45.12939 25.97656 53.16162 25.97656 57.17773 C28.02734 57.17773 32.12891 57.17773 34.17969 57.17773 C34.17969 53.16162 34.17969 45.12939 34.17969 41.11328 C39.61182 41.11328 50.47607 41.11328 55.9082 41.11328 C55.9082 39.03809 55.9082 34.8877 55.9082 32.8125 C50.47607 32.8125 39.61182 32.8125 34.17969 32.8125 C34.17969 28.75977 34.17969 20.6543 34.17969 16.60156 C32.12891 16.60156 28.02734 16.60156 25.97656 16.60156 C25.97656 20.6543 25.97656 28.75977 25.97656 32.8125 zM4.29688 8.30078 C17.19971 8.30078 43.00537 8.30078 55.9082 8.30078 C55.9082 6.22559 55.9082 2.0752 55.9082 0 C43.00537 0 17.19971 0 4.29688 0 C4.29688 2.0752 4.29688 6.22559 4.29688 8.30078 z" />
<glyph unicode="" horiz-adv-x="60.205078" d="M15.72266 60.05859 C18.54248 62.81738 24.18213 68.33496 27.00195 71.09375 Q30.0293 74.02344 31.51855 75.68359 Q33.00781 77.34375 33.93555 78.80859 Q35.88867 81.78711 35.88867 84.32617 Q35.88867 87.25586 33.44727 89.11133 Q31.00586 90.9668 27.09961 90.9668 Q24.60938 90.9668 21.875 90.08789 Q19.0918 89.20898 16.01562 87.45117 C16.01562 89.48568 16.01562 92.02881 16.01562 93.55469 Q19.33594 94.92188 22.16797 95.60547 Q25.19531 96.28906 28.125 96.28906 Q34.96094 96.28906 39.11133 93.06641 Q41.25977 91.40625 42.28516 89.25781 Q43.31055 87.10938 43.31055 84.66797 Q43.31055 82.95898 42.82227 81.61621 Q42.33398 80.27344 41.50391 78.95508 Q39.30664 75.58594 33.88672 70.26367 C30.45247 66.92708 26.15967 62.75635 23.58398 60.25391 C28.58887 60.25391 38.59863 60.25391 43.60352 60.25391 C43.60352 58.8623 43.60352 56.0791 43.60352 54.6875 C36.6333 54.6875 22.69287 54.6875 15.72266 54.6875 C15.72266 56.03027 15.72266 58.71582 15.72266 60.05859 z" />
<glyph unicode="" horiz-adv-x="60.205078" d="M27.44141 54.15039 Q25.73242 54.15039 24.36523 54.29688 Q22.99805 54.44336 21.58203 54.6875 Q20.01953 54.98047 18.70117 55.32227 Q17.38281 55.66406 15.91797 56.15234 C15.91797 58.12174 15.91797 60.5835 15.91797 62.06055 Q17.62695 61.37695 19.14062 60.91309 Q20.6543 60.44922 22.07031 60.10742 Q24.56055 59.47266 27.14844 59.47266 Q31.88477 59.47266 34.86328 61.47461 Q36.13281 62.35352 36.91406 63.7207 Q37.69531 65.08789 37.69531 66.94336 Q37.69531 70.36133 35.00977 72.2168 Q32.27539 74.07227 27.00195 74.07227 C25.92773 74.07227 24.58496 74.07227 23.7793 74.07227 C23.7793 75.39063 23.7793 78.02734 23.7793 79.3457 C24.68262 79.3457 26.48926 79.3457 27.39258 79.3457 Q31.88477 79.3457 34.32617 80.9082 Q36.71875 82.42188 36.71875 85.30273 Q36.71875 88.08594 34.375 89.64844 Q32.08008 91.16211 27.92969 91.16211 Q25.58594 91.16211 22.90039 90.57617 Q21.5332 90.2832 20.1416 89.84375 Q18.75 89.4043 17.28516 88.86719 C17.28516 90.83659 17.28516 93.29834 17.28516 94.77539 Q18.99414 95.16602 20.55664 95.4834 Q22.11914 95.80078 23.53516 96.04492 Q26.36719 96.48438 28.90625 96.48438 Q35.79102 96.48438 39.99023 93.60352 Q44.0918 90.72266 44.0918 85.9375 Q44.0918 82.4707 41.94336 80.17578 Q39.79492 77.88086 35.69336 76.95312 Q40.33203 75.92773 42.72461 73.29102 Q45.11719 70.75195 45.11719 66.65039 Q45.11719 60.74219 40.47852 57.42188 Q35.83984 54.15039 27.44141 54.15039 z" />
<glyph unicode="" horiz-adv-x="60.205078" d="M30.71289 61.62109 C28.83301 61.62109 25.07324 61.62109 23.19336 61.62109 C26.62353 66.21094 33.48389 75.39063 36.91406 79.98047 C39.33105 79.98047 44.16504 79.98047 46.58203 79.98047 C42.61475 75.39063 34.68018 66.21094 30.71289 61.62109 z" />
<glyph unicode="" horiz-adv-x="60.205078" d="M8.05664 54.6875 C10.30273 54.6875 14.79492 54.6875 17.04102 54.6875 C17.04102 46.19141 17.04102 29.19922 17.04102 20.70312 Q17.04102 16.89453 17.82227 14.35547 Q18.60352 11.81641 19.9707 10.10742 Q22.90039 6.39648 28.41797 6.39648 Q34.57031 6.39648 37.69531 10.54688 Q40.82031 14.69727 40.82031 22.80273 C40.82031 33.43099 40.82031 46.71631 40.82031 54.6875 C43.07861 54.6875 47.59521 54.6875 49.85352 54.6875 C49.85352 44.14062 49.85352 23.04688 49.85352 12.5 Q49.85352 9.61914 50.63477 8.25195 Q51.41602 6.88477 52.88086 6.88477 Q53.36914 6.88477 54.19922 7.12891 Q54.88281 7.32422 56.25 8.00781 C56.25 5.59896 56.25 2.58789 56.25 0.78125 Q54.39453 -0.29297 52.73438 -0.87891 Q50.87891 -1.41602 49.41406 -1.41602 Q46.38672 -1.41602 44.58008 0.53711 Q42.72461 2.53906 42.13867 6.29883 Q39.89258 2.34375 36.66992 0.48828 Q33.44727 -1.41602 29.00391 -1.41602 Q20.41016 -1.41602 16.21094 6.20117 C16.21094 -2.83203 16.21094 -14.12354 16.21094 -20.89844 C14.17236 -20.89844 10.09522 -20.89844 8.05664 -20.89844 C8.05664 -2.00195 8.05664 35.79102 8.05664 54.6875 z" />
<glyph unicode="" horiz-adv-x="60.205078" d="M27.19727 31.68945 Q16.65039 32.51953 10.9375 37.93945 Q8.1543 40.57617 6.66504 44.06738 Q5.17578 47.55859 5.17578 52.24609 Q5.17578 61.57227 11.57227 67.23633 Q17.96875 72.90039 28.41797 72.90039 C35.70964 72.90039 44.82422 72.90039 50.29297 72.90039 C50.29297 52.27051 50.29297 11.01074 50.29297 -9.61914 C48.57178 -9.61914 45.12939 -9.61914 43.4082 -9.61914 C43.4082 9.50928 43.4082 47.76611 43.4082 66.89453 C41.07666 66.89453 36.41357 66.89453 34.08203 66.89453 C34.08203 47.76611 34.08203 9.50928 34.08203 -9.61914 C32.36084 -9.61914 28.91846 -9.61914 27.19727 -9.61914 C27.19727 0.70801 27.19727 21.3623 27.19727 31.68945 z" />
<glyph unicode="" horiz-adv-x="60.205078" d="M30.07812 28.125 Q26.75781 28.125 24.46289 30.41992 Q22.16797 32.71484 22.16797 36.37695 Q22.16797 40.03906 24.46289 42.33398 Q26.75781 44.62891 30.07812 44.62891 Q33.39844 44.62891 35.69336 42.33398 Q37.98828 40.03906 37.98828 36.37695 Q37.98828 32.71484 35.69336 30.41992 Q33.39844 28.125 30.07812 28.125 z" />
<glyph unicode="" horiz-adv-x="60.205078" d="M34.17969 0 Q36.81641 -2.92969 38.23242 -5.61523 Q38.76953 -6.73828 39.13574 -7.9834 Q39.50195 -9.22852 39.50195 -10.69336 Q39.50195 -14.84375 36.57227 -17.08984 Q35.15625 -18.16406 33.00781 -18.72559 Q30.85938 -19.28711 27.83203 -19.28711 Q25.68359 -19.28711 23.58398 -18.99414 Q21.33789 -18.70117 19.28711 -18.11523 C19.28711 -15.98307 19.28711 -13.31787 19.28711 -11.71875 Q22.65625 -13.28125 26.66016 -13.28125 Q32.71484 -13.28125 32.71484 -8.78906 Q32.71484 -7.22656 31.64062 -5.12695 Q30.56641 -3.02734 28.41797 0 C30.33854 0 32.73926 0 34.17969 0 z" />
<glyph unicode="" horiz-adv-x="60.205078" d="M17.67578 60.05859 C20.17822 60.05859 25.18311 60.05859 27.68555 60.05859 C27.68555 67.51709 27.68555 82.43408 27.68555 89.89258 C24.96338 89.39209 19.51904 88.39111 16.79688 87.89062 C16.79688 89.30664 16.79688 92.13867 16.79688 93.55469 C19.59229 94.03076 25.18311 94.98291 27.97852 95.45898 C29.66309 95.45898 33.03223 95.45898 34.7168 95.45898 C34.7168 86.60889 34.7168 68.90869 34.7168 60.05859 C37.20703 60.05859 42.1875 60.05859 44.67773 60.05859 C44.67773 58.71582 44.67773 56.03027 44.67773 54.6875 C37.92725 54.6875 24.42627 54.6875 17.67578 54.6875 C17.67578 56.03027 17.67578 58.71582 17.67578 60.05859 z" />
<glyph unicode="" horiz-adv-x="60.205078" d="M30.07812 34.08203 Q25.48828 34.08203 22.26562 35.5957 Q19.04297 37.10938 16.8457 39.50195 Q14.55078 41.99219 13.23242 45.6543 Q11.91406 49.31641 11.91406 54.10156 Q11.91406 63.23242 16.8457 68.75 Q19.14062 71.28906 22.41211 72.75391 Q25.68359 74.21875 30.12695 74.21875 Q34.52148 74.21875 37.81738 72.75391 Q41.11328 71.28906 43.4082 68.70117 Q48.29102 63.23242 48.29102 54.10156 Q48.29102 45.01953 43.4082 39.55078 Q41.11328 37.01172 37.81738 35.54688 Q34.52148 34.08203 30.07812 34.08203 zM30.07812 39.79492 Q35.05859 39.79492 37.89062 43.60352 Q39.20898 45.36133 39.96582 47.99805 Q40.72266 50.63477 40.72266 54.19922 Q40.72266 60.88867 37.93945 64.69727 Q36.62109 66.50391 34.69238 67.50488 Q32.76367 68.50586 30.12695 68.50586 Q25.09766 68.50586 22.31445 64.74609 Q19.48242 60.88867 19.48242 54.10156 Q19.48242 47.26562 22.31445 43.50586 Q25.14648 39.79492 30.07812 39.79492 zM13.47656 28.90625 C21.72852 28.90625 38.23242 28.90625 46.48438 28.90625 C46.48438 27.40479 46.48438 24.40186 46.48438 22.90039 C38.23242 22.90039 21.72852 22.90039 13.47656 22.90039 C13.47656 24.40186 13.47656 27.40479 13.47656 28.90625 z" />
<glyph unicode="" horiz-adv-x="60.205078" d="M11.2793 16.21094 C14.95361 19.48242 22.30225 26.02539 25.97656 29.29688 C22.30225 32.56836 14.95361 39.11133 11.2793 42.38281 C11.2793 44.71436 11.2793 49.37744 11.2793 51.70898 C17.00439 46.60645 28.45459 36.40137 34.17969 31.29883 C34.17969 30.29785 34.17969 28.2959 34.17969 27.29492 C28.45459 22.19238 17.00439 11.9873 11.2793 6.88477 C11.2793 9.21631 11.2793 13.87939 11.2793 16.21094 zM33.44727 16.21094 C37.12158 19.48242 44.47021 26.02539 48.14453 29.29688 C44.47021 32.56836 37.12158 39.11133 33.44727 42.38281 C33.44727 44.71436 33.44727 49.37744 33.44727 51.70898 C39.17236 46.60645 50.62256 36.40137 56.34766 31.29883 C56.34766 30.29785 56.34766 28.2959 56.34766 27.29492 C50.62256 22.19238 39.17236 11.9873 33.44727 6.88477 C33.44727 9.21631 33.44727 13.87939 33.44727 16.21094 z" />
<glyph unicode="" horiz-adv-x="60.205078" d="M5.07812 45.60547 C7.58057 45.60547 12.58545 45.60547 15.08789 45.60547 C15.08789 53.06396 15.08789 67.98096 15.08789 75.43945 C12.36572 74.93896 6.92139 73.93799 4.19922 73.4375 C4.19922 74.85352 4.19922 77.68555 4.19922 79.10156 C6.99463 79.57764 12.58545 80.52978 15.38086 81.00586 C17.06543 81.00586 20.43457 81.00586 22.11914 81.00586 C22.11914 72.15576 22.11914 54.45557 22.11914 45.60547 C24.60938 45.60547 29.58984 45.60547 32.08008 45.60547 C32.08008 44.2627 32.08008 41.57715 32.08008 40.23438 C25.32959 40.23438 11.82861 40.23438 5.07812 40.23438 C5.07812 41.57715 5.07812 44.2627 5.07812 45.60547 zM1.31836 29.88281 C14.25781 33.08105 40.13672 39.47754 53.07617 42.67578 C53.40576 41.35742 54.06494 38.7207 54.39453 37.40234 C41.41846 34.2041 15.46631 27.80762 2.49023 24.60938 C2.19727 25.92773 1.61133 28.56445 1.31836 29.88281 zM40.9668 -4.10156 C36.24268 -4.10156 26.79443 -4.10156 22.07031 -4.10156 C22.07031 -2.62451 22.07031 0.32959 22.07031 1.80664 C26.50146 8.25195 35.36377 21.14258 39.79492 27.58789 C41.77246 27.58789 45.72754 27.58789 47.70508 27.58789 C47.70508 21.02051 47.70508 7.88574 47.70508 1.31836 C49.12109 1.31836 51.95313 1.31836 53.36914 1.31836 C53.36914 -0.03662 53.36914 -2.74658 53.36914 -4.10156 C51.95313 -4.10156 49.12109 -4.10156 47.70508 -4.10156 C47.70508 -6.37207 47.70508 -10.91309 47.70508 -13.18359 C46.02051 -13.18359 42.65137 -13.18359 40.9668 -13.18359 C40.9668 -10.91309 40.9668 -6.37207 40.9668 -4.10156 zM40.9668 1.31836 C40.9668 6.35986 40.9668 16.44287 40.9668 21.48438 C37.62207 16.44287 30.93262 6.35986 27.58789 1.31836 C30.93262 1.31836 37.62207 1.31836 40.9668 1.31836 z" />
<glyph unicode="" horiz-adv-x="60.205078" d="M5.07812 45.60547 C7.58057 45.60547 12.58545 45.60547 15.08789 45.60547 C15.08789 53.06396 15.08789 67.98096 15.08789 75.43945 C12.36572 74.93896 6.92139 73.93799 4.19922 73.4375 C4.19922 74.85352 4.19922 77.68555 4.19922 79.10156 C6.99463 79.57764 12.58545 80.52978 15.38086 81.00586 C17.06543 81.00586 20.43457 81.00586 22.11914 81.00586 C22.11914 72.15576 22.11914 54.45557 22.11914 45.60547 C24.60938 45.60547 29.58984 45.60547 32.08008 45.60547 C32.08008 44.2627 32.08008 41.57715 32.08008 40.23438 C25.32959 40.23438 11.82861 40.23438 5.07812 40.23438 C5.07812 41.57715 5.07812 44.2627 5.07812 45.60547 zM1.31836 29.88281 C14.25781 33.08105 40.13672 39.47754 53.07617 42.67578 C53.40576 41.35742 54.06494 38.7207 54.39453 37.40234 C41.41846 34.2041 15.46631 27.80762 2.49023 24.60938 C2.19727 25.92773 1.61133 28.56445 1.31836 29.88281 zM25.53711 -7.8125 C28.35693 -5.05371 33.99658 0.46387 36.81641 3.22266 Q39.84375 6.15234 41.30859 7.8125 Q42.77344 9.47266 43.75 10.9375 Q45.70312 13.91602 45.70312 16.45508 Q45.70312 19.38477 43.26172 21.24023 Q40.82031 23.0957 36.91406 23.0957 Q34.375 23.0957 31.68945 22.2168 Q28.90625 21.33789 25.83008 19.58008 C25.83008 21.61458 25.83008 24.15771 25.83008 25.68359 Q29.10156 27.05078 31.98242 27.73438 Q35.00977 28.41797 37.93945 28.41797 Q44.72656 28.41797 48.92578 25.19531 Q51.07422 23.53516 52.09961 21.38672 Q53.125 19.23828 53.125 16.79688 Q53.125 15.08789 52.63672 13.74512 Q52.14844 12.40234 51.31836 11.08398 Q49.12109 7.71484 43.70117 2.39258 C40.26693 -0.94401 35.97412 -5.11475 33.39844 -7.61719 C38.40332 -7.61719 48.41309 -7.61719 53.41797 -7.61719 C53.41797 -9.00879 53.41797 -11.79199 53.41797 -13.18359 C46.44775 -13.18359 32.50732 -13.18359 25.53711 -13.18359 C25.53711 -11.84082 25.53711 -9.15527 25.53711 -7.8125 z" />
<glyph unicode="" horiz-adv-x="60.205078" d="M16.35742 39.50195 Q14.64844 39.50195 13.28125 39.64844 Q11.91406 39.79492 10.49805 40.03906 Q8.93555 40.33203 7.61719 40.67383 Q6.29883 41.01562 4.83398 41.50391 C4.83398 43.47331 4.83398 45.93506 4.83398 47.41211 Q6.54297 46.72852 8.05664 46.26465 Q9.57031 45.80078 10.98633 45.45898 Q13.47656 44.82422 16.06445 44.82422 Q20.80078 44.82422 23.7793 46.82617 Q25.04883 47.70508 25.83008 49.07227 Q26.61133 50.43945 26.61133 52.29492 Q26.61133 55.71289 23.92578 57.56836 Q21.19141 59.42383 15.91797 59.42383 C14.84375 59.42383 13.50098 59.42383 12.69531 59.42383 C12.69531 60.74219 12.69531 63.37891 12.69531 64.69727 C13.59863 64.69727 15.40527 64.69727 16.30859 64.69727 Q20.80078 64.69727 23.24219 66.25977 Q25.63477 67.77344 25.63477 70.6543 Q25.63477 73.4375 23.29102 75 Q20.99609 76.51367 16.8457 76.51367 Q14.55078 76.51367 11.81641 75.92773 Q10.44922 75.63477 9.05762 75.19531 Q7.66602 74.75586 6.20117 74.21875 C6.20117 76.18815 6.20117 78.6499 6.20117 80.12695 Q7.91016 80.51758 9.47266 80.83496 Q11.03516 81.15234 12.45117 81.39648 Q15.33203 81.83594 17.82227 81.83594 Q24.70703 81.83594 28.90625 78.95508 Q33.00781 76.07422 33.00781 71.28906 Q33.00781 67.82227 30.85938 65.52734 Q28.71094 63.23242 24.60938 62.30469 Q29.19922 61.2793 31.64062 58.64258 Q34.0332 56.10352 34.0332 52.00195 Q34.0332 46.09375 29.39453 42.77344 Q24.75586 39.50195 16.35742 39.50195 zM1.31836 29.88281 C14.25781 33.08105 40.13672 39.47754 53.07617 42.67578 C53.40576 41.35742 54.06494 38.7207 54.39453 37.40234 C41.41846 34.2041 15.46631 27.80762 2.49023 24.60938 C2.19727 25.92773 1.61133 28.56445 1.31836 29.88281 zM40.9668 -4.10156 C36.24268 -4.10156 26.79443 -4.10156 22.07031 -4.10156 C22.07031 -2.62451 22.07031 0.32959 22.07031 1.80664 C26.50146 8.25195 35.36377 21.14258 39.79492 27.58789 C41.77246 27.58789 45.72754 27.58789 47.70508 27.58789 C47.70508 21.02051 47.70508 7.88574 47.70508 1.31836 C49.12109 1.31836 51.95313 1.31836 53.36914 1.31836 C53.36914 -0.03662 53.36914 -2.74658 53.36914 -4.10156 C51.95313 -4.10156 49.12109 -4.10156 47.70508 -4.10156 C47.70508 -6.37207 47.70508 -10.91309 47.70508 -13.18359 C46.02051 -13.18359 42.65137 -13.18359 40.9668 -13.18359 C40.9668 -10.91309 40.9668 -6.37207 40.9668 -4.10156 zM40.9668 1.31836 C40.9668 6.35986 40.9668 16.44287 40.9668 21.48438 C37.62207 16.44287 30.93262 6.35986 27.58789 1.31836 C30.93262 1.31836 37.62207 1.31836 40.9668 1.31836 z" />
<glyph unicode="" horiz-adv-x="60.205078" d="M32.03125 61.13281 Q29.00391 61.13281 26.95312 63.18359 Q24.85352 65.2832 24.85352 68.60352 Q24.85352 71.875 26.9043 73.92578 Q27.73438 74.75586 29.02832 75.36621 Q30.32227 75.97656 31.98242 75.97656 Q35.00977 75.97656 37.06055 73.92578 Q39.11133 71.875 39.11133 68.60352 Q39.11133 65.2832 37.06055 63.23242 Q34.96094 61.13281 32.03125 61.13281 zM29.39453 -1.31836 Q20.21484 -1.31836 14.84375 3.32031 Q9.42383 8.05664 9.42383 15.82031 Q9.42383 18.50586 10.08301 20.67871 Q10.74219 22.85156 12.45117 25.14648 Q14.16016 27.44141 17.28516 30.51758 C18.71745 31.91732 20.50781 33.66699 21.58203 34.7168 Q23.04688 36.13281 24.14551 37.40234 Q25.24414 38.67188 25.78125 39.89258 Q26.70898 41.79688 26.70898 45.01953 C26.70898 45.10091 26.70898 45.20264 26.70898 45.26367 Q26.75781 45.80078 26.78223 46.31348 Q26.80664 46.82617 26.80664 47.31445 C26.80664 49.31641 26.80664 51.81885 26.80664 53.32031 C29.12598 53.32031 33.76465 53.32031 36.08398 53.32031 C36.08398 51.44043 36.08398 47.68066 36.08398 45.80078 Q36.08398 41.01562 34.61914 37.69531 Q33.10547 34.27734 29.00391 30.32227 C27.53906 28.8737 25.70801 27.06299 24.60938 25.97656 Q23.63281 25 22.36328 23.63281 Q21.09375 22.26562 20.41016 20.94727 Q19.77539 19.77539 19.53125 18.48145 Q19.28711 17.1875 19.28711 16.21094 Q19.28711 14.11133 20.16602 12.3291 Q21.04492 10.54688 22.46094 9.375 Q25.63477 6.68945 30.9082 6.68945 Q32.95898 6.68945 34.96094 7.12891 Q36.96289 7.56836 39.16016 8.39844 Q43.55469 10.05859 48.29102 13.37891 C48.29102 10.31901 48.29102 6.49414 48.29102 4.19922 Q45.84961 2.73438 43.50586 1.70898 Q41.16211 0.68359 39.0625 0.04883 Q36.71875 -0.63477 34.25293 -0.97656 Q31.78711 -1.31836 29.39453 -1.31836 z" />
<glyph unicode="" horiz-adv-x="60.205078" d="M17.48047 90.2832 C19.72656 90.2832 24.21875 90.2832 26.46484 90.2832 C28.86963 87.06055 33.6792 80.61523 36.08398 77.39258 C34.2041 77.39258 30.44434 77.39258 28.56445 77.39258 C25.79346 80.61523 20.25146 87.06055 17.48047 90.2832 zM24.12109 72.90039 C27.11182 72.90039 33.09326 72.90039 36.08398 72.90039 C41.6626 54.67529 52.81982 18.2251 58.39844 0 C55.84717 0 50.74463 0 48.19336 0 C46.85059 4.74854 44.16504 14.24561 42.82227 18.99414 C36.43799 18.99414 23.66943 18.99414 17.28516 18.99414 C15.9668 14.24561 13.33008 4.74854 12.01172 0 C9.46045 0 4.35791 0 1.80664 0 C7.38525 18.2251 18.54248 54.67529 24.12109 72.90039 zM40.47852 26.9043 C37.87842 36.23047 32.67822 54.88281 30.07812 64.20898 C27.47803 54.88281 22.27783 36.23047 19.67773 26.9043 C24.87793 26.9043 35.27832 26.9043 40.47852 26.9043 z" />
<glyph unicode="" horiz-adv-x="60.205078" d="M33.74023 90.625 C36.01074 90.625 40.55176 90.625 42.82227 90.625 C40.02686 87.40234 34.43604 80.95703 31.64062 77.73438 C29.76074 77.73438 26.00098 77.73438 24.12109 77.73438 C26.52588 80.95703 31.33545 87.40234 33.74023 90.625 zM24.12109 72.90039 C27.11182 72.90039 33.09326 72.90039 36.08398 72.90039 C41.6626 54.67529 52.81982 18.2251 58.39844 0 C55.84717 0 50.74463 0 48.19336 0 C46.85059 4.74854 44.16504 14.24561 42.82227 18.99414 C36.43799 18.99414 23.66943 18.99414 17.28516 18.99414 C15.9668 14.24561 13.33008 4.74854 12.01172 0 C9.46045 0 4.35791 0 1.80664 0 C7.38525 18.2251 18.54248 54.67529 24.12109 72.90039 zM40.47852 26.9043 C37.87842 36.23047 32.67822 54.88281 30.07812 64.20898 C27.47803 54.88281 22.27783 36.23047 19.67773 26.9043 C24.87793 26.9043 35.27832 26.9043 40.47852 26.9043 z" />
<glyph unicode="" horiz-adv-x="60.205078" d="M25.48828 90.42969 C27.79541 90.42969 32.40967 90.42969 34.7168 90.42969 C37.29248 87.18262 42.44385 80.68848 45.01953 77.44141 C43.31055 77.44141 39.89258 77.44141 38.18359 77.44141 C36.15723 79.61426 32.10449 83.95996 30.07812 86.13281 C28.06396 83.95996 24.03564 79.61426 22.02148 77.44141 C20.3125 77.44141 16.89453 77.44141 15.18555 77.44141 C17.76123 80.68848 22.9126 87.18262 25.48828 90.42969 zM24.12109 72.90039 C27.11182 72.90039 33.09326 72.90039 36.08398 72.90039 C41.6626 54.67529 52.81982 18.2251 58.39844 0 C55.84717 0 50.74463 0 48.19336 0 C46.85059 4.74854 44.16504 14.24561 42.82227 18.99414 C36.43799 18.99414 23.66943 18.99414 17.28516 18.99414 C15.9668 14.24561 13.33008 4.74854 12.01172 0 C9.46045 0 4.35791 0 1.80664 0 C7.38525 18.2251 18.54248 54.67529 24.12109 72.90039 zM40.47852 26.9043 C37.87842 36.23047 32.67822 54.88281 30.07812 64.20898 C27.47803 54.88281 22.27783 36.23047 19.67773 26.9043 C24.87793 26.9043 35.27832 26.9043 40.47852 26.9043 z" />
<glyph unicode="" horiz-adv-x="60.205078" d="M14.01367 77.49023 Q14.01367 79.83398 14.59961 81.78711 Q15.18555 83.74023 16.55273 85.30273 Q19.04297 88.18359 23.24219 88.18359 Q24.6582 88.18359 26.46484 87.79297 Q27.7832 87.45117 30.32227 86.08398 C31.25 85.5957 32.40967 84.98535 33.10547 84.61914 Q34.08203 83.98438 35.05859 83.69141 Q35.83984 83.39844 36.62109 83.39844 Q38.13477 83.39844 39.11133 84.66797 Q40.08789 85.9375 40.08789 87.89062 C40.08789 87.98828 40.08789 88.11035 40.08789 88.18359 C41.61377 88.18359 44.66553 88.18359 46.19141 88.18359 Q46.09375 83.30078 43.60352 80.41992 Q41.11328 77.49023 36.96289 77.49023 Q35.54688 77.49023 33.88672 77.88086 Q33.20312 78.07617 32.2998 78.44238 Q31.39648 78.80859 29.88281 79.58984 C28.95508 80.12695 27.79541 80.79834 27.09961 81.20117 Q26.5625 81.54297 26.0498 81.7627 Q25.53711 81.98242 25.09766 82.17773 Q24.41406 82.42188 23.68164 82.42188 Q22.02148 82.42188 21.09375 81.20117 Q20.11719 79.93164 20.11719 77.7832 C20.11719 77.68555 20.11719 77.56348 20.11719 77.49023 C18.59131 77.49023 15.53955 77.49023 14.01367 77.49023 zM24.12109 72.90039 C27.11182 72.90039 33.09326 72.90039 36.08398 72.90039 C41.6626 54.67529 52.81982 18.2251 58.39844 0 C55.84717 0 50.74463 0 48.19336 0 C46.85059 4.74854 44.16504 14.24561 42.82227 18.99414 C36.43799 18.99414 23.66943 18.99414 17.28516 18.99414 C15.9668 14.24561 13.33008 4.74854 12.01172 0 C9.46045 0 4.35791 0 1.80664 0 C7.38525 18.2251 18.54248 54.67529 24.12109 72.90039 zM40.47852 26.9043 C37.87842 36.23047 32.67822 54.88281 30.07812 64.20898 C27.47803 54.88281 22.27783 36.23047 19.67773 26.9043 C24.87793 26.9043 35.27832 26.9043 40.47852 26.9043 z" />
<glyph unicode="" horiz-adv-x="60.205078" d="M17.04102 80.41992 Q15.57617 80.41992 15.57617 81.88477 C15.57617 84.21224 15.57617 87.12158 15.57617 88.86719 Q15.57617 90.33203 17.04102 90.33203 C19.36849 90.33203 22.27783 90.33203 24.02344 90.33203 Q25.48828 90.33203 25.48828 88.86719 C25.48828 86.53971 25.48828 83.63037 25.48828 81.88477 Q25.48828 80.41992 24.02344 80.41992 C21.69596 80.41992 18.78662 80.41992 17.04102 80.41992 zM36.18164 80.41992 Q34.7168 80.41992 34.7168 81.88477 C34.7168 84.21224 34.7168 87.12158 34.7168 88.86719 Q34.7168 90.33203 36.18164 90.33203 C38.49284 90.33203 41.38184 90.33203 43.11523 90.33203 Q44.58008 90.33203 44.58008 88.86719 C44.58008 86.53971 44.58008 83.63037 44.58008 81.88477 Q44.58008 80.41992 43.11523 80.41992 C40.80404 80.41992 37.91504 80.41992 36.18164 80.41992 zM24.12109 72.90039 C27.11182 72.90039 33.09326 72.90039 36.08398 72.90039 C41.6626 54.67529 52.81982 18.2251 58.39844 0 C55.84717 0 50.74463 0 48.19336 0 C46.85059 4.74854 44.16504 14.24561 42.82227 18.99414 C36.43799 18.99414 23.66943 18.99414 17.28516 18.99414 C15.9668 14.24561 13.33008 4.74854 12.01172 0 C9.46045 0 4.35791 0 1.80664 0 C7.38525 18.2251 18.54248 54.67529 24.12109 72.90039 zM40.47852 26.9043 C37.87842 36.23047 32.67822 54.88281 30.07812 64.20898 C27.47803 54.88281 22.27783 36.23047 19.67773 26.9043 C24.87793 26.9043 35.27832 26.9043 40.47852 26.9043 z" />
<glyph unicode="" horiz-adv-x="60.205078" d="M22.70508 68.31055 Q19.87305 69.92188 18.31055 72.85156 Q16.69922 75.73242 16.69922 79.3457 Q16.69922 83.20312 18.50586 86.23047 Q20.3125 89.25781 23.33984 91.01562 Q26.36719 92.82227 30.07812 92.82227 Q32.91016 92.82227 35.37598 91.77246 Q37.8418 90.72266 39.64844 88.91602 Q41.35742 87.20703 42.43164 84.76562 Q43.50586 82.32422 43.50586 79.3457 Q43.50586 75.83008 41.94336 72.94922 Q40.42969 70.16602 37.5 68.31055 C44.46615 45.54036 53.17383 17.07764 58.39844 0 C55.84717 0 50.74463 0 48.19336 0 C46.85059 4.74854 44.16504 14.24561 42.82227 18.99414 C36.43799 18.99414 23.66943 18.99414 17.28516 18.99414 C15.9668 14.24561 13.33008 4.74854 12.01172 0 C9.46045 0 4.35791 0 1.80664 0 C7.03125 17.07764 17.48047 51.23291 22.70508 68.31055 zM30.07812 72.02148 Q33.20312 72.02148 35.35156 74.16992 Q37.5 76.31836 37.5 79.39453 Q37.5 82.51953 35.35156 84.66797 Q34.22852 85.79102 32.83691 86.30371 Q31.44531 86.81641 30.0293 86.81641 Q26.95312 86.81641 24.85352 84.7168 Q22.70508 82.56836 22.70508 79.39453 Q22.70508 76.31836 24.85352 74.16992 Q27.00195 72.02148 30.07812 72.02148 zM40.47852 26.9043 C37.87842 36.18164 32.67822 54.73633 30.07812 64.01367 C27.47803 54.73633 22.27783 36.18164 19.67773 26.9043 C24.87793 26.9043 35.27832 26.9043 40.47852 26.9043 z" />
<glyph unicode="" horiz-adv-x="60.205078" d="M20.01953 72.90039 C29.18701 72.90039 47.52197 72.90039 56.68945 72.90039 C56.68945 70.8252 56.68945 66.6748 56.68945 64.59961 C52.56348 64.59961 44.31152 64.59961 40.18555 64.59961 C40.18555 59.2041 40.18555 48.41309 40.18555 43.01758 C43.93311 43.01758 51.42822 43.01758 55.17578 43.01758 C55.17578 40.94238 55.17578 36.79199 55.17578 34.7168 C51.42822 34.7168 43.93311 34.7168 40.18555 34.7168 C40.18555 28.11279 40.18555 14.90479 40.18555 8.30078 C44.54346 8.30078 53.25928 8.30078 57.61719 8.30078 C57.61719 6.22559 57.61719 2.0752 57.61719 0 C50.98877 0 37.73193 0 31.10352 0 C31.10352 4.67529 31.10352 14.02588 31.10352 18.70117 C26.80664 18.70117 18.21289 18.70117 13.91602 18.70117 C12.68311 14.02588 10.21729 4.67529 8.98438 0 C6.73828 0 2.24609 0 0 0 C5.00488 18.2251 15.01465 54.67529 20.01953 72.90039 zM31.10352 26.9043 C31.10352 36.32812 31.10352 55.17578 31.10352 64.59961 C29.79736 64.59961 27.18506 64.59961 25.87891 64.59961 C23.41309 55.17578 18.48145 36.32812 16.01562 26.9043 C19.7876 26.9043 27.33154 26.9043 31.10352 26.9043 z" />
<glyph unicode="" horiz-adv-x="60.205078" d="M36.18164 66.21094 Q26.66016 66.21094 21.875 58.78906 Q17.08984 51.36719 17.08984 36.37695 Q17.08984 21.43555 21.875 14.01367 Q24.16992 10.49805 27.70996 8.54492 Q31.25 6.5918 36.23047 6.5918 Q40.47852 6.5918 44.72656 8.1543 Q48.82812 9.7168 52.39258 12.69531 C52.39258 9.32617 52.39258 5.11475 52.39258 2.58789 Q48.53516 0.58594 44.67773 -0.43945 Q43.60352 -0.68359 42.45605 -0.90332 Q41.30859 -1.12305 40.13672 -1.2207 Q42.23633 -3.75977 43.11523 -5.61523 Q43.65234 -6.73828 44.01855 -7.9834 Q44.38477 -9.22852 44.38477 -10.69336 Q44.38477 -14.84375 41.45508 -17.08984 Q40.03906 -18.16406 37.89062 -18.72559 Q35.74219 -19.28711 32.71484 -19.28711 Q30.56641 -19.28711 28.4668 -18.99414 Q26.2207 -18.70117 24.16992 -18.11523 C24.16992 -15.98307 24.16992 -13.31787 24.16992 -11.71875 Q27.53906 -13.28125 31.54297 -13.28125 Q37.59766 -13.28125 37.59766 -8.78906 Q37.59766 -7.22656 36.52344 -5.12695 Q36.13281 -4.3457 35.57129 -3.39355 Q35.00977 -2.44141 34.22852 -1.36719 Q21.58203 -0.53711 14.50195 8.49609 Q6.78711 18.50586 6.78711 36.32812 Q6.78711 45.16602 8.71582 52.19727 Q10.64453 59.22852 14.55078 64.25781 Q22.36328 74.21875 36.23047 74.21875 Q40.77148 74.21875 44.67773 73.24219 Q48.53516 72.26562 52.39258 70.21484 C52.39258 66.8457 52.39258 62.63428 52.39258 60.10742 Q48.82812 63.08594 44.62891 64.64844 Q40.38086 66.21094 36.18164 66.21094 z" />
<glyph unicode="" horiz-adv-x="60.205078" d="M19.28711 90.625 C21.5332 90.625 26.02539 90.625 28.27148 90.625 C30.67627 87.40234 35.48584 80.95703 37.89062 77.73438 C36.01074 77.73438 32.25098 77.73438 30.37109 77.73438 C27.6001 80.95703 22.05811 87.40234 19.28711 90.625 zM9.61914 72.90039 C20.43457 72.90039 42.06543 72.90039 52.88086 72.90039 C52.88086 70.8252 52.88086 66.6748 52.88086 64.59961 C44.53125 64.59961 27.83203 64.59961 19.48242 64.59961 C19.48242 59.2041 19.48242 48.41309 19.48242 43.01758 C27.46582 43.01758 43.43262 43.01758 51.41602 43.01758 C51.41602 40.94238 51.41602 36.79199 51.41602 34.7168 C43.43262 34.7168 27.46582 34.7168 19.48242 34.7168 C19.48242 28.11279 19.48242 14.90479 19.48242 8.30078 C28.06396 8.30078 45.22705 8.30078 53.80859 8.30078 C53.80859 6.22559 53.80859 2.0752 53.80859 0 C42.76123 0 20.6665 0 9.61914 0 C9.61914 18.2251 9.61914 54.67529 9.61914 72.90039 z" />
<glyph unicode="" horiz-adv-x="60.205078" d="M33.69141 90.625 C35.96191 90.625 40.50293 90.625 42.77344 90.625 C39.97803 87.40234 34.38721 80.95703 31.5918 77.73438 C29.71191 77.73438 25.95215 77.73438 24.07227 77.73438 C26.47705 80.95703 31.28662 87.40234 33.69141 90.625 zM9.61914 72.90039 C20.43457 72.90039 42.06543 72.90039 52.88086 72.90039 C52.88086 70.8252 52.88086 66.6748 52.88086 64.59961 C44.53125 64.59961 27.83203 64.59961 19.48242 64.59961 C19.48242 59.2041 19.48242 48.41309 19.48242 43.01758 C27.46582 43.01758 43.43262 43.01758 51.41602 43.01758 C51.41602 40.94238 51.41602 36.79199 51.41602 34.7168 C43.43262 34.7168 27.46582 34.7168 19.48242 34.7168 C19.48242 28.11279 19.48242 14.90479 19.48242 8.30078 C28.06396 8.30078 45.22705 8.30078 53.80859 8.30078 C53.80859 6.22559 53.80859 2.0752 53.80859 0 C42.76123 0 20.6665 0 9.61914 0 C9.61914 18.2251 9.61914 54.67529 9.61914 72.90039 z" />
<glyph unicode="" horiz-adv-x="60.205078" d="M26.36719 90.42969 C28.67432 90.42969 33.28857 90.42969 35.5957 90.42969 C38.17139 87.18262 43.32275 80.68848 45.89844 77.44141 C44.18945 77.44141 40.77148 77.44141 39.0625 77.44141 C37.03613 79.61426 32.9834 83.95996 30.95703 86.13281 C28.94287 83.95996 24.91455 79.61426 22.90039 77.44141 C21.19141 77.44141 17.77344 77.44141 16.06445 77.44141 C18.64014 80.68848 23.7915 87.18262 26.36719 90.42969 zM9.61914 72.90039 C20.43457 72.90039 42.06543 72.90039 52.88086 72.90039 C52.88086 70.8252 52.88086 66.6748 52.88086 64.59961 C44.53125 64.59961 27.83203 64.59961 19.48242 64.59961 C19.48242 59.2041 19.48242 48.41309 19.48242 43.01758 C27.46582 43.01758 43.43262 43.01758 51.41602 43.01758 C51.41602 40.94238 51.41602 36.79199 51.41602 34.7168 C43.43262 34.7168 27.46582 34.7168 19.48242 34.7168 C19.48242 28.11279 19.48242 14.90479 19.48242 8.30078 C28.06396 8.30078 45.22705 8.30078 53.80859 8.30078 C53.80859 6.22559 53.80859 2.0752 53.80859 0 C42.76123 0 20.6665 0 9.61914 0 C9.61914 18.2251 9.61914 54.67529 9.61914 72.90039 z" />
<glyph unicode="" horiz-adv-x="60.205078" d="M17.91992 80.41992 Q16.45508 80.41992 16.45508 81.88477 C16.45508 84.21224 16.45508 87.12158 16.45508 88.86719 Q16.45508 90.33203 17.91992 90.33203 C20.2474 90.33203 23.15674 90.33203 24.90234 90.33203 Q26.36719 90.33203 26.36719 88.86719 C26.36719 86.53971 26.36719 83.63037 26.36719 81.88477 Q26.36719 80.41992 24.90234 80.41992 C22.57487 80.41992 19.66553 80.41992 17.91992 80.41992 zM37.06055 80.41992 Q35.5957 80.41992 35.5957 81.88477 C35.5957 84.21224 35.5957 87.12158 35.5957 88.86719 Q35.5957 90.33203 37.06055 90.33203 C39.37174 90.33203 42.26074 90.33203 43.99414 90.33203 Q45.45898 90.33203 45.45898 88.86719 C45.45898 86.53971 45.45898 83.63037 45.45898 81.88477 Q45.45898 80.41992 43.99414 80.41992 C41.68294 80.41992 38.79395 80.41992 37.06055 80.41992 zM9.61914 72.90039 C20.43457 72.90039 42.06543 72.90039 52.88086 72.90039 C52.88086 70.8252 52.88086 66.6748 52.88086 64.59961 C44.53125 64.59961 27.83203 64.59961 19.48242 64.59961 C19.48242 59.2041 19.48242 48.41309 19.48242 43.01758 C27.46582 43.01758 43.43262 43.01758 51.41602 43.01758 C51.41602 40.94238 51.41602 36.79199 51.41602 34.7168 C43.43262 34.7168 27.46582 34.7168 19.48242 34.7168 C19.48242 28.11279 19.48242 14.90479 19.48242 8.30078 C28.06396 8.30078 45.22705 8.30078 53.80859 8.30078 C53.80859 6.22559 53.80859 2.0752 53.80859 0 C42.76123 0 20.6665 0 9.61914 0 C9.61914 18.2251 9.61914 54.67529 9.61914 72.90039 z" />
<glyph unicode="" horiz-adv-x="60.205078" d="M18.16406 90.625 C20.41016 90.625 24.90234 90.625 27.14844 90.625 C29.55322 87.40234 34.36279 80.95703 36.76758 77.73438 C34.8877 77.73438 31.12793 77.73438 29.24805 77.73438 C26.47705 80.95703 20.93506 87.40234 18.16406 90.625 zM9.81445 8.30078 C13.63525 8.30078 21.27686 8.30078 25.09766 8.30078 C25.09766 22.37549 25.09766 50.5249 25.09766 64.59961 C21.27686 64.59961 13.63525 64.59961 9.81445 64.59961 C9.81445 66.6748 9.81445 70.8252 9.81445 72.90039 C19.93408 72.90039 40.17334 72.90039 50.29297 72.90039 C50.29297 70.8252 50.29297 66.6748 50.29297 64.59961 C46.47217 64.59961 38.83057 64.59961 35.00977 64.59961 C35.00977 50.5249 35.00977 22.37549 35.00977 8.30078 C38.83057 8.30078 46.47217 8.30078 50.29297 8.30078 C50.29297 6.22559 50.29297 2.0752 50.29297 0 C40.17334 0 19.93408 0 9.81445 0 C9.81445 2.0752 9.81445 6.22559 9.81445 8.30078 z" />
<glyph unicode="" horiz-adv-x="60.205078" d="M33.74023 90.625 C36.01074 90.625 40.55176 90.625 42.82227 90.625 C40.02686 87.40234 34.43604 80.95703 31.64062 77.73438 C29.76074 77.73438 26.00098 77.73438 24.12109 77.73438 C26.52588 80.95703 31.33545 87.40234 33.74023 90.625 zM9.81445 8.30078 C13.63525 8.30078 21.27686 8.30078 25.09766 8.30078 C25.09766 22.37549 25.09766 50.5249 25.09766 64.59961 C21.27686 64.59961 13.63525 64.59961 9.81445 64.59961 C9.81445 66.6748 9.81445 70.8252 9.81445 72.90039 C19.93408 72.90039 40.17334 72.90039 50.29297 72.90039 C50.29297 70.8252 50.29297 66.6748 50.29297 64.59961 C46.47217 64.59961 38.83057 64.59961 35.00977 64.59961 C35.00977 50.5249 35.00977 22.37549 35.00977 8.30078 C38.83057 8.30078 46.47217 8.30078 50.29297 8.30078 C50.29297 6.22559 50.29297 2.0752 50.29297 0 C40.17334 0 19.93408 0 9.81445 0 C9.81445 2.0752 9.81445 6.22559 9.81445 8.30078 z" />
<glyph unicode="" horiz-adv-x="60.205078" d="M25.43945 90.42969 C27.74658 90.42969 32.36084 90.42969 34.66797 90.42969 C37.24365 87.18262 42.39502 80.68848 44.9707 77.44141 C43.26172 77.44141 39.84375 77.44141 38.13477 77.44141 C36.1084 79.61426 32.05566 83.95996 30.0293 86.13281 C28.01514 83.95996 23.98682 79.61426 21.97266 77.44141 C20.26367 77.44141 16.8457 77.44141 15.13672 77.44141 C17.7124 80.68848 22.86377 87.18262 25.43945 90.42969 zM9.81445 8.30078 C13.63525 8.30078 21.27686 8.30078 25.09766 8.30078 C25.09766 22.37549 25.09766 50.5249 25.09766 64.59961 C21.27686 64.59961 13.63525 64.59961 9.81445 64.59961 C9.81445 66.6748 9.81445 70.8252 9.81445 72.90039 C19.93408 72.90039 40.17334 72.90039 50.29297 72.90039 C50.29297 70.8252 50.29297 66.6748 50.29297 64.59961 C46.47217 64.59961 38.83057 64.59961 35.00977 64.59961 C35.00977 50.5249 35.00977 22.37549 35.00977 8.30078 C38.83057 8.30078 46.47217 8.30078 50.29297 8.30078 C50.29297 6.22559 50.29297 2.0752 50.29297 0 C40.17334 0 19.93408 0 9.81445 0 C9.81445 2.0752 9.81445 6.22559 9.81445 8.30078 z" />
<glyph unicode="" horiz-adv-x="60.205078" d="M17.04102 80.41992 Q15.57617 80.41992 15.57617 81.88477 C15.57617 84.21224 15.57617 87.12158 15.57617 88.86719 Q15.57617 90.33203 17.04102 90.33203 C19.36849 90.33203 22.27783 90.33203 24.02344 90.33203 Q25.48828 90.33203 25.48828 88.86719 C25.48828 86.53971 25.48828 83.63037 25.48828 81.88477 Q25.48828 80.41992 24.02344 80.41992 C21.69596 80.41992 18.78662 80.41992 17.04102 80.41992 zM36.18164 80.41992 Q34.7168 80.41992 34.7168 81.88477 C34.7168 84.21224 34.7168 87.12158 34.7168 88.86719 Q34.7168 90.33203 36.18164 90.33203 C38.49284 90.33203 41.38184 90.33203 43.11523 90.33203 Q44.58008 90.33203 44.58008 88.86719 C44.58008 86.53971 44.58008 83.63037 44.58008 81.88477 Q44.58008 80.41992 43.11523 80.41992 C40.80404 80.41992 37.91504 80.41992 36.18164 80.41992 zM9.81445 8.30078 C13.63525 8.30078 21.27686 8.30078 25.09766 8.30078 C25.09766 22.37549 25.09766 50.5249 25.09766 64.59961 C21.27686 64.59961 13.63525 64.59961 9.81445 64.59961 C9.81445 66.6748 9.81445 70.8252 9.81445 72.90039 C19.93408 72.90039 40.17334 72.90039 50.29297 72.90039 C50.29297 70.8252 50.29297 66.6748 50.29297 64.59961 C46.47217 64.59961 38.83057 64.59961 35.00977 64.59961 C35.00977 50.5249 35.00977 22.37549 35.00977 8.30078 C38.83057 8.30078 46.47217 8.30078 50.29297 8.30078 C50.29297 6.22559 50.29297 2.0752 50.29297 0 C40.17334 0 19.93408 0 9.81445 0 C9.81445 2.0752 9.81445 6.22559 9.81445 8.30078 z" />
<glyph unicode="" horiz-adv-x="60.205078" d="M6.49414 34.61914 C4.96826 34.61914 1.9165 34.61914 0.39062 34.61914 C0.39062 36.43799 0.39062 40.07568 0.39062 41.89453 C1.9165 41.89453 4.96826 41.89453 6.49414 41.89453 C6.49414 49.646 6.49414 65.14893 6.49414 72.90039 C10.19287 72.90039 17.59033 72.90039 21.28906 72.90039 Q37.98828 72.90039 45.89844 64.01367 Q53.80859 55.12695 53.80859 36.42578 Q53.80859 17.77344 45.89844 8.88672 Q41.8457 4.3457 35.66895 2.17285 Q29.49219 0 21.28906 0 C16.35742 0 10.19287 0 6.49414 0 C6.49414 8.65479 6.49414 25.96436 6.49414 34.61914 zM21.28906 8.10547 Q28.02734 8.10547 32.12891 9.7168 Q36.23047 11.32812 38.62305 14.30664 Q41.16211 17.48047 42.38281 22.85156 Q43.60352 28.22266 43.60352 36.52344 Q43.60352 45.11719 42.3584 50.29297 Q41.11328 55.46875 38.67188 58.59375 Q36.08398 61.86523 31.86035 63.33008 Q27.63672 64.79492 21.28906 64.79492 C19.72656 64.79492 17.77344 64.79492 16.60156 64.79492 C16.60156 59.06982 16.60156 47.61963 16.60156 41.89453 C19.82422 41.89453 26.26953 41.89453 29.49219 41.89453 C29.49219 40.07568 29.49219 36.43799 29.49219 34.61914 C26.26953 34.61914 19.82422 34.61914 16.60156 34.61914 C16.60156 27.99072 16.60156 14.73389 16.60156 8.10547 C17.77344 8.10547 20.11719 8.10547 21.28906 8.10547 z" />
<glyph unicode="" horiz-adv-x="60.205078" d="M14.01367 79.73633 Q14.01367 82.08008 14.59961 84.0332 Q15.18555 85.98633 16.55273 87.54883 Q19.04297 90.42969 23.24219 90.42969 Q24.6582 90.42969 26.46484 90.03906 Q27.7832 89.69727 30.32227 88.33008 C31.25 87.8418 32.40967 87.23145 33.10547 86.86523 Q34.08203 86.23047 35.05859 85.9375 Q35.83984 85.64453 36.62109 85.64453 Q38.13477 85.64453 39.11133 86.91406 Q40.08789 88.18359 40.08789 90.13672 C40.08789 90.23438 40.08789 90.35645 40.08789 90.42969 C41.61377 90.42969 44.66553 90.42969 46.19141 90.42969 Q46.09375 85.54688 43.60352 82.66602 Q41.11328 79.73633 36.96289 79.73633 Q35.54688 79.73633 33.88672 80.12695 Q33.20312 80.32227 32.2998 80.68848 Q31.39648 81.05469 29.88281 81.83594 C28.95508 82.37305 27.79541 83.04443 27.09961 83.44727 Q26.5625 83.78906 26.0498 84.00879 Q25.53711 84.22852 25.09766 84.42383 Q24.41406 84.66797 23.68164 84.66797 Q22.02148 84.66797 21.09375 83.44727 Q20.11719 82.17773 20.11719 80.0293 C20.11719 79.93164 20.11719 79.80957 20.11719 79.73633 C18.59131 79.73633 15.53955 79.73633 14.01367 79.73633 zM6.78711 72.90039 C9.91211 72.90039 16.16211 72.90039 19.28711 72.90039 C25.43945 57.89795 37.74414 27.89307 43.89648 12.89062 C43.89648 27.89307 43.89648 57.89795 43.89648 72.90039 C46.27686 72.90039 51.0376 72.90039 53.41797 72.90039 C53.41797 54.67529 53.41797 18.2251 53.41797 0 C50.29297 0 44.04297 0 40.91797 0 C34.76563 15.00244 22.46094 45.00732 16.30859 60.00977 C16.30859 45.00732 16.30859 15.00244 16.30859 0 C13.92822 0 9.16748 0 6.78711 0 C6.78711 18.2251 6.78711 54.67529 6.78711 72.90039 z" />
<glyph unicode="" horiz-adv-x="60.205078" d="M18.65234 90.625 C20.89844 90.625 25.39063 90.625 27.63672 90.625 C30.0415 87.40234 34.85107 80.95703 37.25586 77.73438 C35.37598 77.73438 31.61621 77.73438 29.73633 77.73438 C26.96533 80.95703 21.42334 87.40234 18.65234 90.625 zM30.07812 -1.41602 Q17.72461 -1.41602 11.71875 7.91016 Q5.71289 17.1875 5.71289 36.37695 Q5.71289 55.56641 11.76758 64.84375 Q17.87109 74.21875 30.07812 74.21875 Q36.08398 74.21875 40.72266 71.97266 Q45.36133 69.72656 48.48633 64.84375 Q54.49219 55.46875 54.49219 36.37695 Q54.49219 17.33398 48.48633 7.95898 Q45.36133 3.07617 40.72266 0.83008 Q36.08398 -1.41602 30.07812 -1.41602 zM30.07812 6.5918 Q37.59766 6.5918 40.91797 13.47656 Q44.18945 20.16602 44.18945 36.37695 Q44.18945 52.58789 40.91797 59.32617 Q37.59766 66.21094 30.07812 66.21094 Q22.65625 66.21094 19.33594 59.32617 Q16.01562 52.29492 16.01562 36.37695 Q16.01562 20.50781 19.33594 13.47656 Q22.65625 6.5918 30.07812 6.5918 z" />
<glyph unicode="" horiz-adv-x="60.205078" d="M34.22852 90.625 C36.49902 90.625 41.04004 90.625 43.31055 90.625 C40.51514 87.40234 34.92432 80.95703 32.12891 77.73438 C30.24902 77.73438 26.48926 77.73438 24.60938 77.73438 C27.01416 80.95703 31.82373 87.40234 34.22852 90.625 zM30.07812 -1.41602 Q17.72461 -1.41602 11.71875 7.91016 Q5.71289 17.1875 5.71289 36.37695 Q5.71289 55.56641 11.76758 64.84375 Q17.87109 74.21875 30.07812 74.21875 Q36.08398 74.21875 40.72266 71.97266 Q45.36133 69.72656 48.48633 64.84375 Q54.49219 55.46875 54.49219 36.37695 Q54.49219 17.33398 48.48633 7.95898 Q45.36133 3.07617 40.72266 0.83008 Q36.08398 -1.41602 30.07812 -1.41602 zM30.07812 6.5918 Q37.59766 6.5918 40.91797 13.47656 Q44.18945 20.16602 44.18945 36.37695 Q44.18945 52.58789 40.91797 59.32617 Q37.59766 66.21094 30.07812 66.21094 Q22.65625 66.21094 19.33594 59.32617 Q16.01562 52.29492 16.01562 36.37695 Q16.01562 20.50781 19.33594 13.47656 Q22.65625 6.5918 30.07812 6.5918 z" />
<glyph unicode="" horiz-adv-x="60.205078" d="M26.36719 90.42969 C28.67432 90.42969 33.28857 90.42969 35.5957 90.42969 C38.17139 87.18262 43.32275 80.68848 45.89844 77.44141 C44.18945 77.44141 40.77148 77.44141 39.0625 77.44141 C37.03613 79.61426 32.9834 83.95996 30.95703 86.13281 C28.94287 83.95996 24.91455 79.61426 22.90039 77.44141 C21.19141 77.44141 17.77344 77.44141 16.06445 77.44141 C18.64014 80.68848 23.7915 87.18262 26.36719 90.42969 zM30.07812 -1.41602 Q17.72461 -1.41602 11.71875 7.91016 Q5.71289 17.1875 5.71289 36.37695 Q5.71289 55.56641 11.76758 64.84375 Q17.87109 74.21875 30.07812 74.21875 Q36.08398 74.21875 40.72266 71.97266 Q45.36133 69.72656 48.48633 64.84375 Q54.49219 55.46875 54.49219 36.37695 Q54.49219 17.33398 48.48633 7.95898 Q45.36133 3.07617 40.72266 0.83008 Q36.08398 -1.41602 30.07812 -1.41602 zM30.07812 6.5918 Q37.59766 6.5918 40.91797 13.47656 Q44.18945 20.16602 44.18945 36.37695 Q44.18945 52.58789 40.91797 59.32617 Q37.59766 66.21094 30.07812 66.21094 Q22.65625 66.21094 19.33594 59.32617 Q16.01562 52.29492 16.01562 36.37695 Q16.01562 20.50781 19.33594 13.47656 Q22.65625 6.5918 30.07812 6.5918 z" />
<glyph unicode="" horiz-adv-x="60.205078" d="M14.01367 79.73633 Q14.01367 82.08008 14.59961 84.0332 Q15.18555 85.98633 16.55273 87.54883 Q19.04297 90.42969 23.24219 90.42969 Q24.6582 90.42969 26.46484 90.03906 Q27.7832 89.69727 30.32227 88.33008 C31.25 87.8418 32.40967 87.23145 33.10547 86.86523 Q34.08203 86.23047 35.05859 85.9375 Q35.83984 85.64453 36.62109 85.64453 Q38.13477 85.64453 39.11133 86.91406 Q40.08789 88.18359 40.08789 90.13672 C40.08789 90.23438 40.08789 90.35645 40.08789 90.42969 C41.61377 90.42969 44.66553 90.42969 46.19141 90.42969 Q46.09375 85.54688 43.60352 82.66602 Q41.11328 79.73633 36.96289 79.73633 Q35.54688 79.73633 33.88672 80.12695 Q33.20312 80.32227 32.2998 80.68848 Q31.39648 81.05469 29.88281 81.83594 C28.95508 82.37305 27.79541 83.04443 27.09961 83.44727 Q26.5625 83.78906 26.0498 84.00879 Q25.53711 84.22852 25.09766 84.42383 Q24.41406 84.66797 23.68164 84.66797 Q22.02148 84.66797 21.09375 83.44727 Q20.11719 82.17773 20.11719 80.0293 C20.11719 79.93164 20.11719 79.80957 20.11719 79.73633 C18.59131 79.73633 15.53955 79.73633 14.01367 79.73633 zM30.07812 -1.41602 Q17.72461 -1.41602 11.71875 7.91016 Q5.71289 17.1875 5.71289 36.37695 Q5.71289 55.56641 11.76758 64.84375 Q17.87109 74.21875 30.07812 74.21875 Q36.08398 74.21875 40.72266 71.97266 Q45.36133 69.72656 48.48633 64.84375 Q54.49219 55.46875 54.49219 36.37695 Q54.49219 17.33398 48.48633 7.95898 Q45.36133 3.07617 40.72266 0.83008 Q36.08398 -1.41602 30.07812 -1.41602 zM30.07812 6.5918 Q37.59766 6.5918 40.91797 13.47656 Q44.18945 20.16602 44.18945 36.37695 Q44.18945 52.58789 40.91797 59.32617 Q37.59766 66.21094 30.07812 66.21094 Q22.65625 66.21094 19.33594 59.32617 Q16.01562 52.29492 16.01562 36.37695 Q16.01562 20.50781 19.33594 13.47656 Q22.65625 6.5918 30.07812 6.5918 z" />
<glyph unicode="" horiz-adv-x="60.205078" d="M17.04102 80.41992 Q15.57617 80.41992 15.57617 81.88477 C15.57617 84.21224 15.57617 87.12158 15.57617 88.86719 Q15.57617 90.33203 17.04102 90.33203 C19.36849 90.33203 22.27783 90.33203 24.02344 90.33203 Q25.48828 90.33203 25.48828 88.86719 C25.48828 86.53971 25.48828 83.63037 25.48828 81.88477 Q25.48828 80.41992 24.02344 80.41992 C21.69596 80.41992 18.78662 80.41992 17.04102 80.41992 zM36.18164 80.41992 Q34.7168 80.41992 34.7168 81.88477 C34.7168 84.21224 34.7168 87.12158 34.7168 88.86719 Q34.7168 90.33203 36.18164 90.33203 C38.49284 90.33203 41.38184 90.33203 43.11523 90.33203 Q44.58008 90.33203 44.58008 88.86719 C44.58008 86.53971 44.58008 83.63037 44.58008 81.88477 Q44.58008 80.41992 43.11523 80.41992 C40.80404 80.41992 37.91504 80.41992 36.18164 80.41992 zM30.07812 -1.41602 Q17.72461 -1.41602 11.71875 7.91016 Q5.71289 17.1875 5.71289 36.37695 Q5.71289 55.56641 11.76758 64.84375 Q17.87109 74.21875 30.07812 74.21875 Q36.08398 74.21875 40.72266 71.97266 Q45.36133 69.72656 48.48633 64.84375 Q54.49219 55.46875 54.49219 36.37695 Q54.49219 17.33398 48.48633 7.95898 Q45.36133 3.07617 40.72266 0.83008 Q36.08398 -1.41602 30.07812 -1.41602 zM30.07812 6.5918 Q37.59766 6.5918 40.91797 13.47656 Q44.18945 20.16602 44.18945 36.37695 Q44.18945 52.58789 40.91797 59.32617 Q37.59766 66.21094 30.07812 66.21094 Q22.65625 66.21094 19.33594 59.32617 Q16.01562 52.29492 16.01562 36.37695 Q16.01562 20.50781 19.33594 13.47656 Q22.65625 6.5918 30.07812 6.5918 z" />
<glyph unicode="" horiz-adv-x="60.205078" d="M7.32422 14.30664 C11.59668 18.55469 20.1416 27.05078 24.41406 31.29883 C20.1416 35.57129 11.59668 44.11621 7.32422 48.38867 C8.74023 49.81689 11.57227 52.67334 12.98828 54.10156 C17.26074 49.8291 25.80566 41.28418 30.07812 37.01172 C34.36279 41.28418 42.93213 49.8291 47.2168 54.10156 C48.63281 52.67334 51.46484 49.81689 52.88086 48.38867 C48.6084 44.11621 40.06348 35.57129 35.79102 31.29883 C40.03906 27.05078 48.53516 18.55469 52.7832 14.30664 C51.36719 12.854 48.53516 9.94873 47.11914 8.49609 C42.85889 12.76855 34.33838 21.31348 30.07812 25.58594 C25.83008 21.31348 17.33398 12.76855 13.08594 8.49609 C11.64551 9.94873 8.76465 12.854 7.32422 14.30664 z" />
<glyph unicode="" horiz-adv-x="60.205078" d="M0.39062 0 C2.56348 3.07617 6.90918 9.22852 9.08203 12.30469 Q7.56836 15.72266 6.64062 22.26562 Q6.20117 25.3418 5.95703 28.68652 Q5.71289 32.03125 5.71289 36.13281 Q5.71289 46.04492 7.20215 53.07617 Q8.69141 60.10742 11.76758 64.84375 Q14.89258 69.67773 19.43359 71.94824 Q23.97461 74.21875 30.0293 74.21875 Q32.95898 74.21875 35.37598 73.70605 Q37.79297 73.19336 39.94141 72.2168 Q44.0918 70.26367 46.92383 66.30859 C49.1862 69.58008 52.01416 73.66943 53.71094 76.12305 C54.93164 75.21973 57.37305 73.41309 58.59375 72.50977 C56.54297 69.60449 52.44141 63.79395 50.39062 60.88867 Q51.41602 58.88672 52.17285 56.25 Q52.92969 53.61328 53.4668 50.63477 Q53.95508 47.80273 54.22363 44.16504 Q54.49219 40.52734 54.49219 36.32812 Q54.49219 17.33398 48.48633 7.95898 Q45.55664 3.36914 40.99121 0.97656 Q36.42578 -1.41602 29.88281 -1.41602 Q27.09961 -1.41602 24.60938 -0.95215 Q22.11914 -0.48828 19.77539 0.58594 Q15.38086 2.53906 12.40234 6.49414 C10.07487 3.1901 7.16553 -0.93994 5.41992 -3.41797 C4.1626 -2.56348 1.64795 -0.85449 0.39062 0 zM41.11328 58.10547 Q40.47852 60.15625 39.42871 61.66992 Q38.37891 63.18359 37.10938 64.16016 Q34.375 66.21094 30.0293 66.21094 Q25.92773 66.21094 23.36426 64.35547 Q20.80078 62.5 19.23828 58.98438 Q17.57812 55.27344 16.79688 49.24316 Q16.01562 43.21289 16.01562 33.49609 Q16.01562 31.34766 16.04004 30.0293 Q16.06445 28.71094 16.16211 27.14844 Q16.21094 26.46484 16.23535 25.58594 Q16.25977 24.70703 16.50391 22.99805 C24.70703 34.70052 34.96094 49.32861 41.11328 58.10547 zM30.12695 6.5918 Q34.13086 6.5918 36.74316 8.39844 Q39.35547 10.20508 40.91797 13.52539 Q42.48047 16.74805 43.33496 22.19238 Q44.18945 27.63672 44.18945 36.52344 Q44.18945 39.0625 44.11621 41.23535 Q44.04297 43.4082 43.94531 45.06836 Q43.84766 46.67969 43.67676 47.99805 Q43.50586 49.31641 43.21289 50.58594 C34.84701 38.6556 24.38965 23.74268 18.11523 14.79492 Q19.58008 10.98633 22.80273 8.78906 Q25.97656 6.5918 30.12695 6.5918 z" />
<glyph unicode="" horiz-adv-x="60.205078" d="M18.4082 90.42969 C20.6543 90.42969 25.14648 90.42969 27.39258 90.42969 C29.79736 87.20703 34.60693 80.76172 37.01172 77.53906 C35.13184 77.53906 31.37207 77.53906 29.49219 77.53906 C26.72119 80.76172 21.1792 87.20703 18.4082 90.42969 zM30.07812 -1.41602 Q25 -1.41602 20.84961 0 Q18.94531 0.68359 16.91895 1.78223 Q14.89258 2.88086 13.33008 4.29688 Q11.81641 5.66406 10.64453 7.51953 Q9.47266 9.375 8.64258 12.1582 Q7.86133 14.59961 7.51953 18.28613 Q7.17773 21.97266 7.17773 27.97852 C7.17773 42.95247 7.17773 61.66992 7.17773 72.90039 C9.65576 72.90039 14.61182 72.90039 17.08984 72.90039 C17.08984 60.54688 17.08984 35.83984 17.08984 23.48633 Q17.08984 18.16406 17.38281 15.91797 Q17.67578 13.67188 18.4082 12.40234 Q19.9707 9.52148 22.94922 8.05664 Q25.87891 6.5918 30.07812 6.5918 Q34.32617 6.5918 37.25586 8.05664 Q40.2832 9.61914 41.79688 12.40234 Q42.57812 13.81836 42.82227 15.86914 Q43.11523 18.16406 43.11523 23.38867 C43.11523 39.89258 43.11523 60.52246 43.11523 72.90039 C45.58105 72.90039 50.5127 72.90039 52.97852 72.90039 C52.97852 61.66992 52.97852 39.20898 52.97852 27.97852 Q52.97852 21.5332 52.58789 17.94434 Q52.19727 14.35547 51.61133 12.1582 Q50.29297 7.42188 46.82617 4.29688 Q45.21484 2.83203 43.2373 1.75781 Q41.25977 0.68359 39.35547 0 Q37.54883 -0.63477 35.25391 -1.02539 Q32.95898 -1.41602 30.07812 -1.41602 z" />
<glyph unicode="" horiz-adv-x="60.205078" d="M32.8125 90.625 C35.08301 90.625 39.62402 90.625 41.89453 90.625 C39.09912 87.40234 33.5083 80.95703 30.71289 77.73438 C28.83301 77.73438 25.07324 77.73438 23.19336 77.73438 C25.59814 80.95703 30.40771 87.40234 32.8125 90.625 zM30.07812 -1.41602 Q25 -1.41602 20.84961 0 Q18.94531 0.68359 16.91895 1.78223 Q14.89258 2.88086 13.33008 4.29688 Q11.81641 5.66406 10.64453 7.51953 Q9.47266 9.375 8.64258 12.1582 Q7.86133 14.59961 7.51953 18.28613 Q7.17773 21.97266 7.17773 27.97852 C7.17773 42.95247 7.17773 61.66992 7.17773 72.90039 C9.65576 72.90039 14.61182 72.90039 17.08984 72.90039 C17.08984 60.54688 17.08984 35.83984 17.08984 23.48633 Q17.08984 18.16406 17.38281 15.91797 Q17.67578 13.67188 18.4082 12.40234 Q19.9707 9.52148 22.94922 8.05664 Q25.87891 6.5918 30.07812 6.5918 Q34.32617 6.5918 37.25586 8.05664 Q40.2832 9.61914 41.79688 12.40234 Q42.57812 13.81836 42.82227 15.86914 Q43.11523 18.16406 43.11523 23.38867 C43.11523 39.89258 43.11523 60.52246 43.11523 72.90039 C45.58105 72.90039 50.5127 72.90039 52.97852 72.90039 C52.97852 61.66992 52.97852 39.20898 52.97852 27.97852 Q52.97852 21.5332 52.58789 17.94434 Q52.19727 14.35547 51.61133 12.1582 Q50.29297 7.42188 46.82617 4.29688 Q45.21484 2.83203 43.2373 1.75781 Q41.25977 0.68359 39.35547 0 Q37.54883 -0.63477 35.25391 -1.02539 Q32.95898 -1.41602 30.07812 -1.41602 z" />
<glyph unicode="" horiz-adv-x="60.205078" d="M25.48828 90.42969 C27.79541 90.42969 32.40967 90.42969 34.7168 90.42969 C37.29248 87.18262 42.44385 80.68848 45.01953 77.44141 C43.31055 77.44141 39.89258 77.44141 38.18359 77.44141 C36.15723 79.61426 32.10449 83.95996 30.07812 86.13281 C28.06396 83.95996 24.03564 79.61426 22.02148 77.44141 C20.3125 77.44141 16.89453 77.44141 15.18555 77.44141 C17.76123 80.68848 22.9126 87.18262 25.48828 90.42969 zM30.07812 -1.41602 Q25 -1.41602 20.84961 0 Q18.94531 0.68359 16.91895 1.78223 Q14.89258 2.88086 13.33008 4.29688 Q11.81641 5.66406 10.64453 7.51953 Q9.47266 9.375 8.64258 12.1582 Q7.86133 14.59961 7.51953 18.28613 Q7.17773 21.97266 7.17773 27.97852 C7.17773 42.95247 7.17773 61.66992 7.17773 72.90039 C9.65576 72.90039 14.61182 72.90039 17.08984 72.90039 C17.08984 60.54688 17.08984 35.83984 17.08984 23.48633 Q17.08984 18.16406 17.38281 15.91797 Q17.67578 13.67188 18.4082 12.40234 Q19.9707 9.52148 22.94922 8.05664 Q25.87891 6.5918 30.07812 6.5918 Q34.32617 6.5918 37.25586 8.05664 Q40.2832 9.61914 41.79688 12.40234 Q42.57812 13.81836 42.82227 15.86914 Q43.11523 18.16406 43.11523 23.38867 C43.11523 39.89258 43.11523 60.52246 43.11523 72.90039 C45.58105 72.90039 50.5127 72.90039 52.97852 72.90039 C52.97852 61.66992 52.97852 39.20898 52.97852 27.97852 Q52.97852 21.5332 52.58789 17.94434 Q52.19727 14.35547 51.61133 12.1582 Q50.29297 7.42188 46.82617 4.29688 Q45.21484 2.83203 43.2373 1.75781 Q41.25977 0.68359 39.35547 0 Q37.54883 -0.63477 35.25391 -1.02539 Q32.95898 -1.41602 30.07812 -1.41602 z" />
<glyph unicode="" horiz-adv-x="60.205078" d="M17.04102 80.41992 Q15.57617 80.41992 15.57617 81.88477 C15.57617 84.21224 15.57617 87.12158 15.57617 88.86719 Q15.57617 90.33203 17.04102 90.33203 C19.36849 90.33203 22.27783 90.33203 24.02344 90.33203 Q25.48828 90.33203 25.48828 88.86719 C25.48828 86.53971 25.48828 83.63037 25.48828 81.88477 Q25.48828 80.41992 24.02344 80.41992 C21.69596 80.41992 18.78662 80.41992 17.04102 80.41992 zM36.18164 80.41992 Q34.7168 80.41992 34.7168 81.88477 C34.7168 84.21224 34.7168 87.12158 34.7168 88.86719 Q34.7168 90.33203 36.18164 90.33203 C38.49284 90.33203 41.38184 90.33203 43.11523 90.33203 Q44.58008 90.33203 44.58008 88.86719 C44.58008 86.53971 44.58008 83.63037 44.58008 81.88477 Q44.58008 80.41992 43.11523 80.41992 C40.80404 80.41992 37.91504 80.41992 36.18164 80.41992 zM30.07812 -1.41602 Q25 -1.41602 20.84961 0 Q18.94531 0.68359 16.91895 1.78223 Q14.89258 2.88086 13.33008 4.29688 Q11.81641 5.66406 10.64453 7.51953 Q9.47266 9.375 8.64258 12.1582 Q7.86133 14.59961 7.51953 18.28613 Q7.17773 21.97266 7.17773 27.97852 C7.17773 42.95247 7.17773 61.66992 7.17773 72.90039 C9.65576 72.90039 14.61182 72.90039 17.08984 72.90039 C17.08984 60.54688 17.08984 35.83984 17.08984 23.48633 Q17.08984 18.16406 17.38281 15.91797 Q17.67578 13.67188 18.4082 12.40234 Q19.9707 9.52148 22.94922 8.05664 Q25.87891 6.5918 30.07812 6.5918 Q34.32617 6.5918 37.25586 8.05664 Q40.2832 9.61914 41.79688 12.40234 Q42.57812 13.81836 42.82227 15.86914 Q43.11523 18.16406 43.11523 23.38867 C43.11523 39.89258 43.11523 60.52246 43.11523 72.90039 C45.58105 72.90039 50.5127 72.90039 52.97852 72.90039 C52.97852 61.66992 52.97852 39.20898 52.97852 27.97852 Q52.97852 21.5332 52.58789 17.94434 Q52.19727 14.35547 51.61133 12.1582 Q50.29297 7.42188 46.82617 4.29688 Q45.21484 2.83203 43.2373 1.75781 Q41.25977 0.68359 39.35547 0 Q37.54883 -0.63477 35.25391 -1.02539 Q32.95898 -1.41602 30.07812 -1.41602 z" />
<glyph unicode="" horiz-adv-x="60.205078" d="M32.8125 90.42969 C35.08301 90.42969 39.62402 90.42969 41.89453 90.42969 C39.09912 87.20703 33.5083 80.76172 30.71289 77.53906 C28.83301 77.53906 25.07324 77.53906 23.19336 77.53906 C25.59814 80.76172 30.40771 87.20703 32.8125 90.42969 zM25.09766 32.71484 C19.2749 42.76123 7.62939 62.854 1.80664 72.90039 C4.43115 72.90039 9.68018 72.90039 12.30469 72.90039 C16.74805 64.85596 25.63477 48.76709 30.07812 40.72266 C34.50928 48.76709 43.37158 64.85596 47.80273 72.90039 C50.45166 72.90039 55.74951 72.90039 58.39844 72.90039 C52.55127 62.854 40.85693 42.76123 35.00977 32.71484 C35.00977 24.53613 35.00977 8.17871 35.00977 0 C32.53174 0 27.57568 0 25.09766 0 C25.09766 8.17871 25.09766 24.53613 25.09766 32.71484 z" />
<glyph unicode="" horiz-adv-x="60.205078" d="M9.81445 72.90039 C12.28027 72.90039 17.21191 72.90039 19.67773 72.90039 C19.67773 69.60449 19.67773 63.0127 19.67773 59.7168 C22.77832 59.7168 28.97949 59.7168 32.08008 59.7168 Q44.72656 59.7168 50.83008 54.58984 Q56.88477 49.46289 56.88477 38.76953 Q56.88477 33.30078 55.34668 29.41895 Q53.80859 25.53711 50.83008 23.04688 Q44.72656 17.91992 32.08008 17.91992 C27.94596 17.91992 22.77832 17.91992 19.67773 17.91992 C19.67773 13.43994 19.67773 4.47998 19.67773 0 C17.21191 0 12.28027 0 9.81445 0 C9.81445 18.2251 9.81445 54.67529 9.81445 72.90039 zM31.10352 25.97656 Q38.76953 25.97656 42.67578 29.19922 Q46.48438 32.42188 46.48438 38.81836 Q46.48438 41.89453 45.55664 44.36035 Q44.62891 46.82617 42.67578 48.4375 Q40.91797 49.90234 38.03711 50.75684 Q35.15625 51.61133 31.10352 51.61133 C27.29492 51.61133 22.53418 51.61133 19.67773 51.61133 C19.67773 45.20264 19.67773 32.38525 19.67773 25.97656 C22.53418 25.97656 28.24707 25.97656 31.10352 25.97656 z" />
<glyph unicode="" horiz-adv-x="60.205078" d="M35.69336 -1.41602 Q32.12891 -1.41602 28.95508 -0.83008 Q27.83203 -0.58594 26.02539 -0.14648 Q24.21875 0.29297 22.41211 0.97656 C22.41211 3.64583 22.41211 6.98242 22.41211 8.98438 Q25.92773 7.51953 29.39453 6.73828 Q32.61719 6.00586 35.54688 6.00586 Q40.82031 6.00586 43.89648 8.34961 Q45.60547 9.61914 46.31348 11.2793 Q47.02148 12.93945 47.02148 15.13672 Q47.02148 18.11523 45.36133 20.45898 Q44.14062 22.16797 42.26074 23.58398 Q40.38086 25 37.98828 26.41602 C36.89779 27.05078 35.53467 27.84424 34.7168 28.32031 Q32.42188 29.63867 30.76172 31.20117 Q29.10156 32.76367 28.02734 34.32617 Q26.9043 35.98633 26.34277 37.6709 Q25.78125 39.35547 25.78125 41.55273 Q25.78125 44.48242 26.75781 47.11914 Q27.73438 49.75586 29.73633 51.85547 Q33.59375 56.00586 41.30859 57.71484 Q41.21094 62.93945 38.28125 65.72266 Q35.25391 68.50586 29.78516 68.50586 Q23.87695 68.50586 21.09375 65.33203 Q18.31055 62.10938 18.31055 55.32227 C18.31055 36.88151 18.31055 13.83057 18.31055 0 C16.02783 0 11.4624 0 9.17969 0 C9.17969 13.87939 9.17969 41.63818 9.17969 55.51758 Q9.17969 65.91797 14.30664 70.94727 Q19.48242 75.97656 29.78516 75.97656 Q39.99023 75.97656 45.06836 70.60547 Q50.19531 65.18555 50.29297 54.63867 Q42.77344 54.00391 38.62305 50.92773 Q34.52148 47.94922 34.52148 43.11523 Q34.52148 40.72266 35.88867 38.76953 Q36.71875 37.59766 37.8418 36.69434 Q38.96484 35.79102 40.47852 34.81445 C41.42253 34.21224 42.60254 33.45947 43.31055 33.00781 Q47.16797 30.56641 49.58496 28.58887 Q52.00195 26.61133 53.41797 24.46289 Q56.10352 20.41016 56.10352 14.94141 Q56.10352 11.32812 54.83398 8.25195 Q53.56445 5.17578 50.63477 2.88086 Q45.11719 -1.41602 35.69336 -1.41602 z" />
<glyph unicode="" horiz-adv-x="60.205078" d="M13.76953 81.68945 C16.18652 81.68945 21.02051 81.68945 23.4375 81.68945 C26.86768 77.09961 33.72803 67.91992 37.1582 63.33008 C35.27832 63.33008 31.51855 63.33008 29.63867 63.33008 C25.67139 67.91992 17.73682 77.09961 13.76953 81.68945 zM25.04883 -1.41602 Q16.50391 -1.41602 11.62109 3.32031 Q9.27734 5.56641 7.95898 8.61816 Q6.64062 11.66992 6.64062 15.9668 Q6.64062 25 12.79297 29.78516 Q18.84766 34.52148 30.76172 34.52148 C34.7819 34.52148 39.80713 34.52148 42.82227 34.52148 C42.82227 34.87549 42.82227 35.5835 42.82227 35.9375 Q42.82227 42.43164 39.50195 45.45898 Q36.2793 48.38867 29.10156 48.38867 Q24.46289 48.38867 19.77539 47.07031 Q14.99023 45.75195 10.64453 43.21289 C10.64453 46.20768 10.64453 49.95117 10.64453 52.19727 Q12.69531 52.97852 15.18555 53.75977 Q17.67578 54.54102 20.21484 55.07812 Q24.56055 56.00586 29.15039 56.00586 Q35.83984 56.00586 40.72266 53.95508 Q42.96875 52.97852 44.99512 51.48926 Q47.02148 50 48.4375 48.04688 Q49.46289 46.63086 50.09766 45.06836 Q50.73242 43.50586 51.07422 41.99219 Q51.85547 38.52539 51.85547 31.20117 C51.85547 27.47396 51.85547 22.81494 51.85547 20.01953 Q51.95312 17.1875 52.00195 15.03906 Q52.05078 12.89062 52.29492 11.03516 Q52.53906 8.98438 52.85645 7.17773 Q53.17383 5.37109 53.41797 4.44336 Q53.75977 2.92969 54.19922 1.58691 Q54.63867 0.24414 54.73633 0 C51.72526 0 47.96143 0 45.70312 0 Q45.06836 1.46484 44.38477 4.24805 Q44.14062 5.32227 43.9209 6.4209 Q43.70117 7.51953 43.60352 8.30078 Q42.1875 5.85938 39.96582 3.95508 Q37.74414 2.05078 35.5957 0.92773 Q31.05469 -1.41602 25.04883 -1.41602 zM26.9043 6.10352 Q34.27734 6.10352 38.52539 11.2793 Q42.82227 16.50391 42.82227 25.48828 C42.82227 26.1556 42.82227 26.98975 42.82227 27.49023 C39.97803 27.49023 34.28955 27.49023 31.44531 27.49023 Q23.68164 27.49023 19.62891 24.75586 Q15.625 22.02148 15.625 16.45508 Q15.625 11.57227 18.60352 8.83789 Q20.01953 7.56836 22.0459 6.83594 Q24.07227 6.10352 26.9043 6.10352 z" />
<glyph unicode="" horiz-adv-x="60.205078" d="M37.06055 81.68945 C39.47754 81.68945 44.31152 81.68945 46.72852 81.68945 C42.76123 77.09961 34.82666 67.91992 30.85938 63.33008 C28.97949 63.33008 25.21973 63.33008 23.33984 63.33008 C26.77002 67.91992 33.63037 77.09961 37.06055 81.68945 zM25.04883 -1.41602 Q16.50391 -1.41602 11.62109 3.32031 Q9.27734 5.56641 7.95898 8.61816 Q6.64062 11.66992 6.64062 15.9668 Q6.64062 25 12.79297 29.78516 Q18.84766 34.52148 30.76172 34.52148 C34.7819 34.52148 39.80713 34.52148 42.82227 34.52148 C42.82227 34.87549 42.82227 35.5835 42.82227 35.9375 Q42.82227 42.43164 39.50195 45.45898 Q36.2793 48.38867 29.10156 48.38867 Q24.46289 48.38867 19.77539 47.07031 Q14.99023 45.75195 10.64453 43.21289 C10.64453 46.20768 10.64453 49.95117 10.64453 52.19727 Q12.69531 52.97852 15.18555 53.75977 Q17.67578 54.54102 20.21484 55.07812 Q24.56055 56.00586 29.15039 56.00586 Q35.83984 56.00586 40.72266 53.95508 Q42.96875 52.97852 44.99512 51.48926 Q47.02148 50 48.4375 48.04688 Q49.46289 46.63086 50.09766 45.06836 Q50.73242 43.50586 51.07422 41.99219 Q51.85547 38.52539 51.85547 31.20117 C51.85547 27.47396 51.85547 22.81494 51.85547 20.01953 Q51.95312 17.1875 52.00195 15.03906 Q52.05078 12.89062 52.29492 11.03516 Q52.53906 8.98438 52.85645 7.17773 Q53.17383 5.37109 53.41797 4.44336 Q53.75977 2.92969 54.19922 1.58691 Q54.63867 0.24414 54.73633 0 C51.72526 0 47.96143 0 45.70312 0 Q45.06836 1.46484 44.38477 4.24805 Q44.14062 5.32227 43.9209 6.4209 Q43.70117 7.51953 43.60352 8.30078 Q42.1875 5.85938 39.96582 3.95508 Q37.74414 2.05078 35.5957 0.92773 Q31.05469 -1.41602 25.04883 -1.41602 zM26.9043 6.10352 Q34.27734 6.10352 38.52539 11.2793 Q42.82227 16.50391 42.82227 25.48828 C42.82227 26.1556 42.82227 26.98975 42.82227 27.49023 C39.97803 27.49023 34.28955 27.49023 31.44531 27.49023 Q23.68164 27.49023 19.62891 24.75586 Q15.625 22.02148 15.625 16.45508 Q15.625 11.57227 18.60352 8.83789 Q20.01953 7.56836 22.0459 6.83594 Q24.07227 6.10352 26.9043 6.10352 z" />
<glyph unicode="" horiz-adv-x="60.205078" d="M26.66016 81.68945 C28.45459 81.68945 32.04346 81.68945 33.83789 81.68945 C36.84082 77.09961 42.84668 67.91992 45.84961 63.33008 C44.15283 63.33008 40.75928 63.33008 39.0625 63.33008 C36.85303 66.3208 32.43408 72.30225 30.22461 75.29297 C28.02734 72.30225 23.63281 66.3208 21.43555 63.33008 C19.73877 63.33008 16.34522 63.33008 14.64844 63.33008 C17.65137 67.91992 23.65723 77.09961 26.66016 81.68945 zM25.04883 -1.41602 Q16.50391 -1.41602 11.62109 3.32031 Q9.27734 5.56641 7.95898 8.61816 Q6.64062 11.66992 6.64062 15.9668 Q6.64062 25 12.79297 29.78516 Q18.84766 34.52148 30.76172 34.52148 C34.7819 34.52148 39.80713 34.52148 42.82227 34.52148 C42.82227 34.87549 42.82227 35.5835 42.82227 35.9375 Q42.82227 42.43164 39.50195 45.45898 Q36.2793 48.38867 29.10156 48.38867 Q24.46289 48.38867 19.77539 47.07031 Q14.99023 45.75195 10.64453 43.21289 C10.64453 46.20768 10.64453 49.95117 10.64453 52.19727 Q12.69531 52.97852 15.18555 53.75977 Q17.67578 54.54102 20.21484 55.07812 Q24.56055 56.00586 29.15039 56.00586 Q35.83984 56.00586 40.72266 53.95508 Q42.96875 52.97852 44.99512 51.48926 Q47.02148 50 48.4375 48.04688 Q49.46289 46.63086 50.09766 45.06836 Q50.73242 43.50586 51.07422 41.99219 Q51.85547 38.52539 51.85547 31.20117 C51.85547 27.47396 51.85547 22.81494 51.85547 20.01953 Q51.95312 17.1875 52.00195 15.03906 Q52.05078 12.89062 52.29492 11.03516 Q52.53906 8.98438 52.85645 7.17773 Q53.17383 5.37109 53.41797 4.44336 Q53.75977 2.92969 54.19922 1.58691 Q54.63867 0.24414 54.73633 0 C51.72526 0 47.96143 0 45.70312 0 Q45.06836 1.46484 44.38477 4.24805 Q44.14062 5.32227 43.9209 6.4209 Q43.70117 7.51953 43.60352 8.30078 Q42.1875 5.85938 39.96582 3.95508 Q37.74414 2.05078 35.5957 0.92773 Q31.05469 -1.41602 25.04883 -1.41602 zM26.9043 6.10352 Q34.27734 6.10352 38.52539 11.2793 Q42.82227 16.50391 42.82227 25.48828 C42.82227 26.1556 42.82227 26.98975 42.82227 27.49023 C39.97803 27.49023 34.28955 27.49023 31.44531 27.49023 Q23.68164 27.49023 19.62891 24.75586 Q15.625 22.02148 15.625 16.45508 Q15.625 11.57227 18.60352 8.83789 Q20.01953 7.56836 22.0459 6.83594 Q24.07227 6.10352 26.9043 6.10352 z" />
<glyph unicode="" horiz-adv-x="60.205078" d="M14.16016 65.38086 Q14.20898 71.875 16.69922 75.53711 Q19.18945 79.15039 23.58398 79.15039 Q25.43945 79.15039 27.09961 78.4668 Q28.66211 77.73438 30.46875 76.17188 C31.39648 75.27669 32.55615 74.15771 33.25195 73.48633 Q34.32617 72.55859 35.10742 72.07031 Q35.88867 71.58203 36.57227 71.58203 Q38.42773 71.58203 39.30664 73.38867 Q40.18555 75.24414 40.23438 79.15039 C42.26888 79.15039 44.81201 79.15039 46.33789 79.15039 Q46.28906 72.65625 43.79883 68.99414 Q41.30859 65.38086 36.91406 65.38086 Q35.05859 65.38086 33.39844 66.06445 Q31.83594 66.79688 30.0293 68.35938 C29.10156 69.25456 27.94189 70.37354 27.24609 71.04492 Q26.61133 71.63086 26.14746 71.97266 Q25.68359 72.31445 25.39062 72.50977 Q24.6582 72.94922 23.92578 72.94922 Q22.07031 72.94922 21.19141 71.14258 Q20.3125 69.33594 20.21484 65.38086 C18.19661 65.38086 15.67383 65.38086 14.16016 65.38086 zM25.04883 -1.41602 Q16.50391 -1.41602 11.62109 3.32031 Q9.27734 5.56641 7.95898 8.61816 Q6.64062 11.66992 6.64062 15.9668 Q6.64062 25 12.79297 29.78516 Q18.84766 34.52148 30.76172 34.52148 C34.7819 34.52148 39.80713 34.52148 42.82227 34.52148 C42.82227 34.87549 42.82227 35.5835 42.82227 35.9375 Q42.82227 42.43164 39.50195 45.45898 Q36.2793 48.38867 29.10156 48.38867 Q24.46289 48.38867 19.77539 47.07031 Q14.99023 45.75195 10.64453 43.21289 C10.64453 46.20768 10.64453 49.95117 10.64453 52.19727 Q12.69531 52.97852 15.18555 53.75977 Q17.67578 54.54102 20.21484 55.07812 Q24.56055 56.00586 29.15039 56.00586 Q35.83984 56.00586 40.72266 53.95508 Q42.96875 52.97852 44.99512 51.48926 Q47.02148 50 48.4375 48.04688 Q49.46289 46.63086 50.09766 45.06836 Q50.73242 43.50586 51.07422 41.99219 Q51.85547 38.52539 51.85547 31.20117 C51.85547 27.47396 51.85547 22.81494 51.85547 20.01953 Q51.95312 17.1875 52.00195 15.03906 Q52.05078 12.89062 52.29492 11.03516 Q52.53906 8.98438 52.85645 7.17773 Q53.17383 5.37109 53.41797 4.44336 Q53.75977 2.92969 54.19922 1.58691 Q54.63867 0.24414 54.73633 0 C51.72526 0 47.96143 0 45.70312 0 Q45.06836 1.46484 44.38477 4.24805 Q44.14062 5.32227 43.9209 6.4209 Q43.70117 7.51953 43.60352 8.30078 Q42.1875 5.85938 39.96582 3.95508 Q37.74414 2.05078 35.5957 0.92773 Q31.05469 -1.41602 25.04883 -1.41602 zM26.9043 6.10352 Q34.27734 6.10352 38.52539 11.2793 Q42.82227 16.50391 42.82227 25.48828 C42.82227 26.1556 42.82227 26.98975 42.82227 27.49023 C39.97803 27.49023 34.28955 27.49023 31.44531 27.49023 Q23.68164 27.49023 19.62891 24.75586 Q15.625 22.02148 15.625 16.45508 Q15.625 11.57227 18.60352 8.83789 Q20.01953 7.56836 22.0459 6.83594 Q24.07227 6.10352 26.9043 6.10352 z" />
<glyph unicode="" horiz-adv-x="60.205078" d="M17.1875 65.91797 Q15.72266 65.91797 15.72266 67.38281 C15.72266 69.69401 15.72266 72.58301 15.72266 74.31641 Q15.72266 75.78125 17.1875 75.78125 C19.51497 75.78125 22.42432 75.78125 24.16992 75.78125 Q25.63477 75.78125 25.63477 74.31641 C25.63477 72.00521 25.63477 69.11621 25.63477 67.38281 Q25.63477 65.91797 24.16992 65.91797 C21.84245 65.91797 18.93311 65.91797 17.1875 65.91797 zM36.32812 65.91797 Q34.86328 65.91797 34.86328 67.38281 C34.86328 69.69401 34.86328 72.58301 34.86328 74.31641 Q34.86328 75.78125 36.32812 75.78125 C38.63932 75.78125 41.52832 75.78125 43.26172 75.78125 Q44.72656 75.78125 44.72656 74.31641 C44.72656 72.00521 44.72656 69.11621 44.72656 67.38281 Q44.72656 65.91797 43.26172 65.91797 C40.95052 65.91797 38.06152 65.91797 36.32812 65.91797 zM25.04883 -1.41602 Q16.50391 -1.41602 11.62109 3.32031 Q9.27734 5.56641 7.95898 8.61816 Q6.64062 11.66992 6.64062 15.9668 Q6.64062 25 12.79297 29.78516 Q18.84766 34.52148 30.76172 34.52148 C34.7819 34.52148 39.80713 34.52148 42.82227 34.52148 C42.82227 34.87549 42.82227 35.5835 42.82227 35.9375 Q42.82227 42.43164 39.50195 45.45898 Q36.2793 48.38867 29.10156 48.38867 Q24.46289 48.38867 19.77539 47.07031 Q14.99023 45.75195 10.64453 43.21289 C10.64453 46.20768 10.64453 49.95117 10.64453 52.19727 Q12.69531 52.97852 15.18555 53.75977 Q17.67578 54.54102 20.21484 55.07812 Q24.56055 56.00586 29.15039 56.00586 Q35.83984 56.00586 40.72266 53.95508 Q42.96875 52.97852 44.99512 51.48926 Q47.02148 50 48.4375 48.04688 Q49.46289 46.63086 50.09766 45.06836 Q50.73242 43.50586 51.07422 41.99219 Q51.85547 38.52539 51.85547 31.20117 C51.85547 27.47396 51.85547 22.81494 51.85547 20.01953 Q51.95312 17.1875 52.00195 15.03906 Q52.05078 12.89062 52.29492 11.03516 Q52.53906 8.98438 52.85645 7.17773 Q53.17383 5.37109 53.41797 4.44336 Q53.75977 2.92969 54.19922 1.58691 Q54.63867 0.24414 54.73633 0 C51.72526 0 47.96143 0 45.70312 0 Q45.06836 1.46484 44.38477 4.24805 Q44.14062 5.32227 43.9209 6.4209 Q43.70117 7.51953 43.60352 8.30078 Q42.1875 5.85938 39.96582 3.95508 Q37.74414 2.05078 35.5957 0.92773 Q31.05469 -1.41602 25.04883 -1.41602 zM26.9043 6.10352 Q34.27734 6.10352 38.52539 11.2793 Q42.82227 16.50391 42.82227 25.48828 C42.82227 26.1556 42.82227 26.98975 42.82227 27.49023 C39.97803 27.49023 34.28955 27.49023 31.44531 27.49023 Q23.68164 27.49023 19.62891 24.75586 Q15.625 22.02148 15.625 16.45508 Q15.625 11.57227 18.60352 8.83789 Q20.01953 7.56836 22.0459 6.83594 Q24.07227 6.10352 26.9043 6.10352 z" />
<glyph unicode="" horiz-adv-x="60.205078" d="M30.22461 60.98633 Q24.6582 60.98633 20.75195 64.89258 Q16.8457 68.79883 16.8457 74.41406 Q16.8457 80.0293 20.75195 83.93555 Q24.60938 87.79297 30.22461 87.79297 Q35.9375 87.79297 39.79492 83.93555 Q43.65234 80.07812 43.65234 74.41406 Q43.65234 68.75 39.79492 64.89258 Q35.88867 60.98633 30.22461 60.98633 zM30.22461 66.99219 Q33.34961 66.99219 35.49805 69.14062 Q37.64648 71.28906 37.64648 74.41406 Q37.64648 77.49023 35.49805 79.63867 Q33.34961 81.78711 30.17578 81.78711 Q27.09961 81.78711 25 79.6875 Q22.85156 77.53906 22.85156 74.41406 Q22.85156 71.28906 25 69.14062 Q27.14844 66.99219 30.22461 66.99219 zM25.04883 -1.41602 Q16.50391 -1.41602 11.62109 3.32031 Q9.27734 5.56641 7.95898 8.61816 Q6.64062 11.66992 6.64062 15.9668 Q6.64062 25 12.79297 29.78516 Q18.84766 34.52148 30.76172 34.52148 C34.7819 34.52148 39.80713 34.52148 42.82227 34.52148 C42.82227 34.87549 42.82227 35.5835 42.82227 35.9375 Q42.82227 42.43164 39.50195 45.45898 Q36.2793 48.38867 29.10156 48.38867 Q24.46289 48.38867 19.77539 47.07031 Q14.99023 45.75195 10.64453 43.21289 C10.64453 46.20768 10.64453 49.95117 10.64453 52.19727 Q12.69531 52.97852 15.18555 53.75977 Q17.67578 54.54102 20.21484 55.07812 Q24.56055 56.00586 29.15039 56.00586 Q35.83984 56.00586 40.72266 53.95508 Q42.96875 52.97852 44.99512 51.48926 Q47.02148 50 48.4375 48.04688 Q49.46289 46.63086 50.09766 45.06836 Q50.73242 43.50586 51.07422 41.99219 Q51.85547 38.52539 51.85547 31.20117 C51.85547 27.47396 51.85547 22.81494 51.85547 20.01953 Q51.95312 17.1875 52.00195 15.03906 Q52.05078 12.89062 52.29492 11.03516 Q52.53906 8.98438 52.85645 7.17773 Q53.17383 5.37109 53.41797 4.44336 Q53.75977 2.92969 54.19922 1.58691 Q54.63867 0.24414 54.73633 0 C51.72526 0 47.96143 0 45.70312 0 Q45.06836 1.46484 44.38477 4.24805 Q44.14062 5.32227 43.9209 6.4209 Q43.70117 7.51953 43.60352 8.30078 Q42.1875 5.85938 39.96582 3.95508 Q37.74414 2.05078 35.5957 0.92773 Q31.05469 -1.41602 25.04883 -1.41602 zM26.9043 6.10352 Q34.27734 6.10352 38.52539 11.2793 Q42.82227 16.50391 42.82227 25.48828 C42.82227 26.1556 42.82227 26.98975 42.82227 27.49023 C39.97803 27.49023 34.28955 27.49023 31.44531 27.49023 Q23.68164 27.49023 19.62891 24.75586 Q15.625 22.02148 15.625 16.45508 Q15.625 11.57227 18.60352 8.83789 Q20.01953 7.56836 22.0459 6.83594 Q24.07227 6.10352 26.9043 6.10352 z" />
<glyph unicode="" horiz-adv-x="60.205078" d="M17.48047 -1.41602 Q9.96094 -1.41602 6.00586 2.7832 Q3.90625 4.98047 2.9541 8.03223 Q2.00195 11.08398 2.00195 14.84375 Q2.00195 18.99414 3.14941 22.2168 Q4.29688 25.43945 6.88477 27.73438 Q11.81641 32.08008 21.09375 32.08008 C22.99805 32.08008 25.37842 32.08008 26.80664 32.08008 C26.80664 33.1543 26.80664 35.30273 26.80664 36.37695 Q26.80664 42.23633 24.41406 45.36133 Q22.02148 48.48633 17.43164 48.48633 Q14.50195 48.48633 11.42578 47.46094 Q9.96094 46.97266 8.3252 46.21582 Q6.68945 45.45898 5.17578 44.48242 C5.17578 47.2168 5.17578 50.63477 5.17578 52.68555 Q7.03125 53.51562 8.78906 54.1748 Q10.54688 54.83398 12.1582 55.22461 Q15.23438 56.00586 18.35938 56.00586 Q22.80273 56.00586 25.78125 54.49219 Q28.80859 52.92969 30.61523 49.80469 Q33.98438 56.00586 43.06641 56.00586 Q51.61133 56.00586 55.07812 50.24414 Q58.59375 44.43359 58.59375 29.49219 C58.59375 28.02734 58.59375 26.19629 58.59375 25.09766 C52.6001 25.09766 40.61279 25.09766 34.61914 25.09766 Q34.57031 24.70703 34.57031 24.31641 Q34.57031 23.92578 34.57031 23.53516 Q34.57031 23.38867 34.5459 23.07129 Q34.52148 22.75391 34.52148 21.63086 Q34.52148 16.8457 35.18066 14.03809 Q35.83984 11.23047 37.01172 9.57031 Q38.33008 7.71484 40.33203 6.90918 Q42.33398 6.10352 45.06836 6.10352 Q48.68164 6.10352 51.95312 7.37305 Q55.0293 8.59375 57.51953 11.08398 C57.51953 8.28451 57.51953 4.78516 57.51953 2.68555 Q54.58984 0.58594 51.61133 -0.41504 Q48.63281 -1.41602 44.77539 -1.41602 Q39.55078 -1.41602 35.9375 0.58594 Q32.27539 2.58789 30.71289 6.39648 Q28.80859 2.53906 25.58594 0.53711 Q22.31445 -1.41602 17.48047 -1.41602 zM50.58594 32.08008 C50.58594 32.71484 50.58594 33.98438 50.58594 34.61914 Q50.58594 38.42773 50.09766 41.06445 Q49.60938 43.70117 48.73047 45.26367 Q47.90039 46.72852 46.38672 47.60742 Q44.87305 48.48633 42.57812 48.48633 Q38.33008 48.48633 36.47461 45.16602 Q34.61914 41.8457 34.61914 34.17969 C34.61914 33.47982 34.61914 32.60498 34.61914 32.08008 C38.61084 32.08008 46.59424 32.08008 50.58594 32.08008 zM18.31055 6.10352 Q22.90039 6.10352 24.70703 9.375 Q25.53711 10.9375 26.02539 13.76953 Q26.51367 16.60156 26.51367 21.58203 C26.51367 22.75391 26.51367 24.21875 26.51367 25.09766 C25.91553 25.09766 24.71924 25.09766 24.12109 25.09766 Q15.86914 25.09766 12.93945 22.90039 Q10.00977 20.60547 10.00977 15.2832 Q10.00977 10.83984 12.20703 8.49609 Q14.4043 6.10352 18.31055 6.10352 z" />
<glyph unicode="" horiz-adv-x="60.205078" d="M35.05859 48.38867 Q26.5625 48.38867 22.02148 42.91992 Q17.48047 37.40234 17.48047 27.34375 Q17.48047 22.65625 18.53027 18.65234 Q19.58008 14.64844 22.02148 11.71875 Q26.66016 6.20117 35.20508 6.20117 Q37.64648 6.20117 39.67285 6.5918 Q41.69922 6.98242 43.4082 7.66602 Q45.60547 8.49609 47.19238 9.59473 Q48.7793 10.69336 50.29297 12.10938 C50.29297 9.00065 50.29297 5.11475 50.29297 2.7832 Q48.63281 1.80664 46.67969 0.97656 Q44.72656 0.14648 42.87109 -0.39062 Q41.89453 -0.63477 40.89355 -0.85449 Q39.89258 -1.07422 38.76953 -1.17188 Q40.67383 -3.41797 41.79688 -5.61523 Q42.33398 -6.73828 42.7002 -7.9834 Q43.06641 -9.22852 43.06641 -10.69336 Q43.06641 -14.84375 40.13672 -17.08984 Q38.7207 -18.16406 36.57227 -18.72559 Q34.42383 -19.28711 31.39648 -19.28711 Q29.29688 -19.28711 27.14844 -18.99414 Q24.90234 -18.70117 22.85156 -18.11523 C22.85156 -15.98307 22.85156 -13.31787 22.85156 -11.71875 Q26.2207 -13.28125 30.22461 -13.28125 Q36.2793 -13.28125 36.2793 -8.78906 Q36.2793 -7.22656 35.20508 -5.12695 Q34.81445 -4.3457 34.25293 -3.39355 Q33.69141 -2.44141 32.91016 -1.36719 Q21.67969 -0.78125 15.13672 6.20117 Q8.00781 13.86719 8.00781 27.29492 Q8.00781 34.27734 9.8877 39.55078 Q11.76758 44.82422 15.18555 48.4375 Q22.41211 56.00586 34.81445 56.00586 Q39.25781 56.00586 42.72461 54.98047 Q46.28906 54.00391 50.29297 51.80664 C50.29297 48.66536 50.29297 44.73877 50.29297 42.38281 Q46.58203 45.6543 43.16406 46.97266 Q39.45312 48.38867 35.05859 48.38867 z" />
<glyph unicode="" horiz-adv-x="60.205078" d="M14.35547 81.68945 C16.77246 81.68945 21.60645 81.68945 24.02344 81.68945 C27.45361 77.09961 34.31397 67.91992 37.74414 63.33008 C35.86426 63.33008 32.10449 63.33008 30.22461 63.33008 C26.25732 67.91992 18.32275 77.09961 14.35547 81.68945 zM33.05664 -1.41602 Q20.41016 -1.41602 13.23242 6.22559 Q6.05469 13.86719 6.05469 27.24609 Q6.05469 34.13086 7.91016 39.33105 Q9.76562 44.53125 13.03711 48.19336 Q16.60156 52.14844 21.38672 54.07715 Q26.17188 56.00586 31.68945 56.00586 Q42.38281 56.00586 48.36426 48.99902 Q54.3457 41.99219 54.3457 29.58984 C54.3457 28.125 54.3457 26.29395 54.3457 25.19531 C44.6167 25.19531 25.15869 25.19531 15.42969 25.19531 C15.42969 25.12207 15.42969 24.97559 15.42969 24.90234 Q15.42969 16.01562 20.11719 11.08398 Q22.36328 8.74023 25.56152 7.4707 Q28.75977 6.20117 33.20312 6.20117 Q37.69531 6.20117 42.23633 7.56836 Q44.62891 8.25195 47.11914 9.30176 Q49.60938 10.35156 52.24609 11.71875 C52.24609 8.74023 52.24609 5.01709 52.24609 2.7832 Q49.6582 1.70898 47.02148 0.87891 Q44.38477 0.04883 42.38281 -0.39062 Q40.03906 -0.92773 37.69531 -1.17188 Q35.35156 -1.41602 33.05664 -1.41602 zM45.36133 32.22656 Q45.26367 36.42578 44.2627 39.42871 Q43.26172 42.43164 41.65039 44.28711 Q38.13477 48.38867 31.49414 48.38867 Q24.90234 48.38867 20.75195 44.0918 Q16.60156 39.79492 15.77148 32.17773 C25.63477 32.19401 37.96387 32.21435 45.36133 32.22656 z" />
<glyph unicode="" horiz-adv-x="60.205078" d="M37.64648 81.68945 C40.06348 81.68945 44.89746 81.68945 47.31445 81.68945 C43.34717 77.09961 35.4126 67.91992 31.44531 63.33008 C29.56543 63.33008 25.80566 63.33008 23.92578 63.33008 C27.35596 67.91992 34.21631 77.09961 37.64648 81.68945 zM33.05664 -1.41602 Q20.41016 -1.41602 13.23242 6.22559 Q6.05469 13.86719 6.05469 27.24609 Q6.05469 34.13086 7.91016 39.33105 Q9.76562 44.53125 13.03711 48.19336 Q16.60156 52.14844 21.38672 54.07715 Q26.17188 56.00586 31.68945 56.00586 Q42.38281 56.00586 48.36426 48.99902 Q54.3457 41.99219 54.3457 29.58984 C54.3457 28.125 54.3457 26.29395 54.3457 25.19531 C44.6167 25.19531 25.15869 25.19531 15.42969 25.19531 C15.42969 25.12207 15.42969 24.97559 15.42969 24.90234 Q15.42969 16.01562 20.11719 11.08398 Q22.36328 8.74023 25.56152 7.4707 Q28.75977 6.20117 33.20312 6.20117 Q37.69531 6.20117 42.23633 7.56836 Q44.62891 8.25195 47.11914 9.30176 Q49.60938 10.35156 52.24609 11.71875 C52.24609 8.74023 52.24609 5.01709 52.24609 2.7832 Q49.6582 1.70898 47.02148 0.87891 Q44.38477 0.04883 42.38281 -0.39062 Q40.03906 -0.92773 37.69531 -1.17188 Q35.35156 -1.41602 33.05664 -1.41602 zM45.36133 32.22656 Q45.26367 36.42578 44.2627 39.42871 Q43.26172 42.43164 41.65039 44.28711 Q38.13477 48.38867 31.49414 48.38867 Q24.90234 48.38867 20.75195 44.0918 Q16.60156 39.79492 15.77148 32.17773 C25.63477 32.19401 37.96387 32.21435 45.36133 32.22656 z" />
<glyph unicode="" horiz-adv-x="60.205078" d="M27.24609 81.68945 C29.04053 81.68945 32.62939 81.68945 34.42383 81.68945 C37.42676 77.09961 43.43262 67.91992 46.43555 63.33008 C44.73877 63.33008 41.34522 63.33008 39.64844 63.33008 C37.43897 66.3208 33.02002 72.30225 30.81055 75.29297 C28.61328 72.30225 24.21875 66.3208 22.02148 63.33008 C20.32471 63.33008 16.93115 63.33008 15.23438 63.33008 C18.2373 67.91992 24.24316 77.09961 27.24609 81.68945 zM33.05664 -1.41602 Q20.41016 -1.41602 13.23242 6.22559 Q6.05469 13.86719 6.05469 27.24609 Q6.05469 34.13086 7.91016 39.33105 Q9.76562 44.53125 13.03711 48.19336 Q16.60156 52.14844 21.38672 54.07715 Q26.17188 56.00586 31.68945 56.00586 Q42.38281 56.00586 48.36426 48.99902 Q54.3457 41.99219 54.3457 29.58984 C54.3457 28.125 54.3457 26.29395 54.3457 25.19531 C44.6167 25.19531 25.15869 25.19531 15.42969 25.19531 C15.42969 25.12207 15.42969 24.97559 15.42969 24.90234 Q15.42969 16.01562 20.11719 11.08398 Q22.36328 8.74023 25.56152 7.4707 Q28.75977 6.20117 33.20312 6.20117 Q37.69531 6.20117 42.23633 7.56836 Q44.62891 8.25195 47.11914 9.30176 Q49.60938 10.35156 52.24609 11.71875 C52.24609 8.74023 52.24609 5.01709 52.24609 2.7832 Q49.6582 1.70898 47.02148 0.87891 Q44.38477 0.04883 42.38281 -0.39062 Q40.03906 -0.92773 37.69531 -1.17188 Q35.35156 -1.41602 33.05664 -1.41602 zM45.36133 32.22656 Q45.26367 36.42578 44.2627 39.42871 Q43.26172 42.43164 41.65039 44.28711 Q38.13477 48.38867 31.49414 48.38867 Q24.90234 48.38867 20.75195 44.0918 Q16.60156 39.79492 15.77148 32.17773 C25.63477 32.19401 37.96387 32.21435 45.36133 32.22656 z" />
<glyph unicode="" horiz-adv-x="60.205078" d="M17.77344 65.91797 Q16.30859 65.91797 16.30859 67.38281 C16.30859 69.69401 16.30859 72.58301 16.30859 74.31641 Q16.30859 75.78125 17.77344 75.78125 C20.10091 75.78125 23.01025 75.78125 24.75586 75.78125 Q26.2207 75.78125 26.2207 74.31641 C26.2207 72.00521 26.2207 69.11621 26.2207 67.38281 Q26.2207 65.91797 24.75586 65.91797 C22.42839 65.91797 19.51904 65.91797 17.77344 65.91797 zM36.91406 65.91797 Q35.44922 65.91797 35.44922 67.38281 C35.44922 69.69401 35.44922 72.58301 35.44922 74.31641 Q35.44922 75.78125 36.91406 75.78125 C39.22526 75.78125 42.11426 75.78125 43.84766 75.78125 Q45.3125 75.78125 45.3125 74.31641 C45.3125 72.00521 45.3125 69.11621 45.3125 67.38281 Q45.3125 65.91797 43.84766 65.91797 C41.53646 65.91797 38.64746 65.91797 36.91406 65.91797 zM33.05664 -1.41602 Q20.41016 -1.41602 13.23242 6.22559 Q6.05469 13.86719 6.05469 27.24609 Q6.05469 34.13086 7.91016 39.33105 Q9.76562 44.53125 13.03711 48.19336 Q16.60156 52.14844 21.38672 54.07715 Q26.17188 56.00586 31.68945 56.00586 Q42.38281 56.00586 48.36426 48.99902 Q54.3457 41.99219 54.3457 29.58984 C54.3457 28.125 54.3457 26.29395 54.3457 25.19531 C44.6167 25.19531 25.15869 25.19531 15.42969 25.19531 C15.42969 25.12207 15.42969 24.97559 15.42969 24.90234 Q15.42969 16.01562 20.11719 11.08398 Q22.36328 8.74023 25.56152 7.4707 Q28.75977 6.20117 33.20312 6.20117 Q37.69531 6.20117 42.23633 7.56836 Q44.62891 8.25195 47.11914 9.30176 Q49.60938 10.35156 52.24609 11.71875 C52.24609 8.74023 52.24609 5.01709 52.24609 2.7832 Q49.6582 1.70898 47.02148 0.87891 Q44.38477 0.04883 42.38281 -0.39062 Q40.03906 -0.92773 37.69531 -1.17188 Q35.35156 -1.41602 33.05664 -1.41602 zM45.36133 32.22656 Q45.26367 36.42578 44.2627 39.42871 Q43.26172 42.43164 41.65039 44.28711 Q38.13477 48.38867 31.49414 48.38867 Q24.90234 48.38867 20.75195 44.0918 Q16.60156 39.79492 15.77148 32.17773 C25.63477 32.19401 37.96387 32.21435 45.36133 32.22656 z" />
<glyph unicode="" horiz-adv-x="60.205078" d="M10.64453 80.41992 C13.06152 80.41992 17.89551 80.41992 20.3125 80.41992 C23.74268 75.83008 30.60303 66.65039 34.0332 62.06055 C32.15332 62.06055 28.39355 62.06055 26.51367 62.06055 C22.54639 66.65039 14.61182 75.83008 10.64453 80.41992 zM41.94336 -0.39062 Q38.03711 -0.39062 34.93652 0.83008 Q31.83594 2.05078 29.49219 4.78516 Q25.04883 9.96094 25.04883 19.43359 C25.04883 28.84115 25.04883 40.60059 25.04883 47.65625 C22.05811 47.65625 16.07666 47.65625 13.08594 47.65625 C13.08594 49.41406 13.08594 52.92969 13.08594 54.6875 C18.32275 54.6875 28.79639 54.6875 34.0332 54.6875 C34.0332 45.87402 34.0332 28.24707 34.0332 19.43359 Q34.0332 13.28125 36.2793 10.30273 Q38.52539 7.22656 42.82227 7.22656 C46.32161 7.22656 50.6958 7.22656 53.32031 7.22656 C53.32031 5.32227 53.32031 1.51367 53.32031 -0.39062 C50.47607 -0.39062 44.7876 -0.39062 41.94336 -0.39062 z" />
<glyph unicode="" horiz-adv-x="60.205078" d="M38.76953 80.41992 C41.18652 80.41992 46.02051 80.41992 48.4375 80.41992 C44.47021 75.83008 36.53564 66.65039 32.56836 62.06055 C30.68848 62.06055 26.92871 62.06055 25.04883 62.06055 C28.479 66.65039 35.33936 75.83008 38.76953 80.41992 zM41.94336 -0.39062 Q38.03711 -0.39062 34.93652 0.83008 Q31.83594 2.05078 29.49219 4.78516 Q25.04883 9.96094 25.04883 19.43359 C25.04883 28.84115 25.04883 40.60059 25.04883 47.65625 C22.05811 47.65625 16.07666 47.65625 13.08594 47.65625 C13.08594 49.41406 13.08594 52.92969 13.08594 54.6875 C18.32275 54.6875 28.79639 54.6875 34.0332 54.6875 C34.0332 45.87402 34.0332 28.24707 34.0332 19.43359 Q34.0332 13.28125 36.2793 10.30273 Q38.52539 7.22656 42.82227 7.22656 C46.32161 7.22656 50.6958 7.22656 53.32031 7.22656 C53.32031 5.32227 53.32031 1.51367 53.32031 -0.39062 C50.47607 -0.39062 44.7876 -0.39062 41.94336 -0.39062 z" />
<glyph unicode="" horiz-adv-x="60.205078" d="M25.09766 80.46875 C26.89209 80.46875 30.48096 80.46875 32.27539 80.46875 C35.27832 75.87891 41.28418 66.69922 44.28711 62.10938 C42.59033 62.10938 39.19678 62.10938 37.5 62.10938 C35.29053 65.1001 30.87158 71.08154 28.66211 74.07227 C26.46484 71.08154 22.07031 65.1001 19.87305 62.10938 C18.17627 62.10938 14.78272 62.10938 13.08594 62.10938 C16.08887 66.69922 22.09473 75.87891 25.09766 80.46875 zM41.94336 -0.39062 Q38.03711 -0.39062 34.93652 0.83008 Q31.83594 2.05078 29.49219 4.78516 Q25.04883 9.96094 25.04883 19.43359 C25.04883 28.84115 25.04883 40.60059 25.04883 47.65625 C22.05811 47.65625 16.07666 47.65625 13.08594 47.65625 C13.08594 49.41406 13.08594 52.92969 13.08594 54.6875 C18.32275 54.6875 28.79639 54.6875 34.0332 54.6875 C34.0332 45.87402 34.0332 28.24707 34.0332 19.43359 Q34.0332 13.28125 36.2793 10.30273 Q38.52539 7.22656 42.82227 7.22656 C46.32161 7.22656 50.6958 7.22656 53.32031 7.22656 C53.32031 5.32227 53.32031 1.51367 53.32031 -0.39062 C50.47607 -0.39062 44.7876 -0.39062 41.94336 -0.39062 z" />
<glyph unicode="" horiz-adv-x="60.205078" d="M16.01562 65.91797 Q14.55078 65.91797 14.55078 67.38281 C14.55078 69.69401 14.55078 72.58301 14.55078 74.31641 Q14.55078 75.78125 16.01562 75.78125 C18.3431 75.78125 21.25244 75.78125 22.99805 75.78125 Q24.46289 75.78125 24.46289 74.31641 C24.46289 72.00521 24.46289 69.11621 24.46289 67.38281 Q24.46289 65.91797 22.99805 65.91797 C20.67057 65.91797 17.76123 65.91797 16.01562 65.91797 zM35.15625 65.91797 Q33.69141 65.91797 33.69141 67.38281 C33.69141 69.69401 33.69141 72.58301 33.69141 74.31641 Q33.69141 75.78125 35.15625 75.78125 C37.46745 75.78125 40.35645 75.78125 42.08984 75.78125 Q43.55469 75.78125 43.55469 74.31641 C43.55469 72.00521 43.55469 69.11621 43.55469 67.38281 Q43.55469 65.91797 42.08984 65.91797 C39.77865 65.91797 36.88965 65.91797 35.15625 65.91797 zM41.94336 -0.39062 Q38.03711 -0.39062 34.93652 0.83008 Q31.83594 2.05078 29.49219 4.78516 Q25.04883 9.96094 25.04883 19.43359 C25.04883 28.84115 25.04883 40.60059 25.04883 47.65625 C22.05811 47.65625 16.07666 47.65625 13.08594 47.65625 C13.08594 49.41406 13.08594 52.92969 13.08594 54.6875 C18.32275 54.6875 28.79639 54.6875 34.0332 54.6875 C34.0332 45.87402 34.0332 28.24707 34.0332 19.43359 Q34.0332 13.28125 36.2793 10.30273 Q38.52539 7.22656 42.82227 7.22656 C46.32161 7.22656 50.6958 7.22656 53.32031 7.22656 C53.32031 5.32227 53.32031 1.51367 53.32031 -0.39062 C50.47607 -0.39062 44.7876 -0.39062 41.94336 -0.39062 z" />
<glyph unicode="" horiz-adv-x="60.205078" d="M30.12695 -1.41602 Q18.99414 -1.41602 12.79297 5.81055 Q6.68945 13.08594 6.68945 26.02539 Q6.68945 39.0625 12.74414 46.28906 Q18.79883 53.51562 30.81055 53.51562 Q31.68945 53.51562 31.95801 53.49121 Q32.22656 53.4668 32.37305 53.4668 Q33.44727 53.36914 33.3252 53.39355 Q33.20312 53.41797 33.98438 53.32031 Q33.69141 53.71094 32.61719 55.15137 Q31.54297 56.5918 30.61523 57.71484 Q29.73633 58.83789 28.83301 59.8877 Q27.92969 60.9375 27.00195 62.01172 C22.46094 60.51432 16.78467 58.64258 13.37891 57.51953 C13.0127 58.71582 12.28027 61.1084 11.91406 62.30469 C14.80713 63.28125 20.59326 65.23438 23.48633 66.21094 C21.26465 68.65234 16.82129 73.53516 14.59961 75.97656 C17.27295 75.97656 22.61963 75.97656 25.29297 75.97656 C26.84326 74.20654 29.94385 70.6665 31.49414 68.89648 C35.02197 70.04395 42.07764 72.33887 45.60547 73.48633 C46.0083 72.29004 46.81396 69.89746 47.2168 68.70117 C44.16504 67.72461 38.06152 65.77148 35.00977 64.79492 Q44.62891 54.49219 49.07227 45.16602 Q51.31836 40.47852 52.41699 35.7666 Q53.51562 31.05469 53.51562 25.78125 Q53.51562 13.08594 47.41211 5.81055 Q44.28711 2.09961 39.94141 0.3418 Q35.5957 -1.41602 30.12695 -1.41602 zM30.07812 6.20117 Q36.81641 6.20117 40.38086 11.37695 Q43.99414 16.69922 43.99414 25.92773 Q43.99414 31.54297 42.55371 36.47461 Q41.11328 41.40625 38.7207 44.82422 Q37.89062 45.16602 36.79199 45.43457 Q35.69336 45.70312 35.00977 45.80078 Q33.00781 46.09375 31.15234 46.09375 Q23.7793 46.09375 19.99512 40.9668 Q16.21094 35.83984 16.21094 26.07422 Q16.21094 16.60156 19.82422 11.37695 Q23.38867 6.20117 30.07812 6.20117 z" />
<glyph unicode="" horiz-adv-x="60.205078" d="M14.01367 62.79297 Q14.0625 69.28711 16.55273 72.94922 Q19.04297 76.5625 23.4375 76.5625 Q25.29297 76.5625 26.95312 75.87891 Q28.51562 75.14648 30.32227 73.58398 C31.25 72.6888 32.40967 71.56982 33.10547 70.89844 Q34.17969 69.9707 34.96094 69.48242 Q35.74219 68.99414 36.42578 68.99414 Q38.28125 68.99414 39.16016 70.80078 Q40.03906 72.65625 40.08789 76.5625 C42.1224 76.5625 44.66553 76.5625 46.19141 76.5625 Q46.14258 70.06836 43.65234 66.40625 Q41.16211 62.79297 36.76758 62.79297 Q34.91211 62.79297 33.25195 63.47656 Q31.68945 64.20898 29.88281 65.77148 C28.95508 66.66667 27.79541 67.78564 27.09961 68.45703 Q26.46484 69.04297 26.00098 69.38477 Q25.53711 69.72656 25.24414 69.92188 Q24.51172 70.36133 23.7793 70.36133 Q21.92383 70.36133 21.04492 68.55469 Q20.16602 66.74805 20.06836 62.79297 C18.05013 62.79297 15.52734 62.79297 14.01367 62.79297 zM9.52148 54.6875 C11.54785 54.6875 15.60059 54.6875 17.62695 54.6875 C17.84668 52.63672 18.28613 48.53516 18.50586 46.48438 Q23.4375 56.00586 34.66797 56.00586 Q39.0625 56.00586 42.13867 54.58984 Q45.21484 53.17383 47.2168 50.53711 Q51.31836 45.01953 51.31836 33.88672 C51.31836 22.59115 51.31836 8.47168 51.31836 0 C49.06006 0 44.54346 0 42.28516 0 C42.28516 8.47168 42.28516 25.41504 42.28516 33.88672 Q42.28516 41.25977 39.69727 44.72656 Q37.10938 48.19336 31.54297 48.19336 Q25.24414 48.19336 21.92383 43.75 Q18.50586 39.30664 18.50586 30.9082 C18.50586 20.60547 18.50586 7.72705 18.50586 0 C16.25977 0 11.76758 0 9.52148 0 C9.52148 13.67188 9.52148 41.01562 9.52148 54.6875 z" />
<glyph unicode="" horiz-adv-x="60.205078" d="M13.62305 81.68945 C16.04004 81.68945 20.87402 81.68945 23.29102 81.68945 C26.72119 77.09961 33.58154 67.91992 37.01172 63.33008 C35.13184 63.33008 31.37207 63.33008 29.49219 63.33008 C25.5249 67.91992 17.59033 77.09961 13.62305 81.68945 zM30.07812 -1.41602 Q18.75 -1.41602 12.69531 5.9082 Q9.61914 9.7168 8.1543 15.1123 Q6.68945 20.50781 6.68945 27.34375 Q6.68945 41.21094 12.69531 48.63281 Q18.70117 56.00586 30.07812 56.00586 Q41.55273 56.00586 47.50977 48.63281 Q53.51562 41.21094 53.51562 27.39258 Q53.51562 13.13477 47.50977 5.9082 Q41.60156 -1.41602 30.07812 -1.41602 zM30.07812 6.20117 Q36.96289 6.20117 40.47852 11.57227 Q43.99414 16.89453 43.99414 27.29492 Q43.99414 37.69531 40.47852 43.06641 Q36.96289 48.38867 30.07812 48.38867 Q23.24219 48.38867 19.72656 43.06641 Q16.21094 37.69531 16.21094 27.29492 Q16.21094 16.89453 19.72656 11.57227 Q23.24219 6.20117 30.07812 6.20117 z" />
<glyph unicode="" horiz-adv-x="60.205078" d="M36.91406 81.68945 C39.33105 81.68945 44.16504 81.68945 46.58203 81.68945 C42.61475 77.09961 34.68018 67.91992 30.71289 63.33008 C28.83301 63.33008 25.07324 63.33008 23.19336 63.33008 C26.62353 67.91992 33.48389 77.09961 36.91406 81.68945 zM30.07812 -1.41602 Q18.75 -1.41602 12.69531 5.9082 Q9.61914 9.7168 8.1543 15.1123 Q6.68945 20.50781 6.68945 27.34375 Q6.68945 41.21094 12.69531 48.63281 Q18.70117 56.00586 30.07812 56.00586 Q41.55273 56.00586 47.50977 48.63281 Q53.51562 41.21094 53.51562 27.39258 Q53.51562 13.13477 47.50977 5.9082 Q41.60156 -1.41602 30.07812 -1.41602 zM30.07812 6.20117 Q36.96289 6.20117 40.47852 11.57227 Q43.99414 16.89453 43.99414 27.29492 Q43.99414 37.69531 40.47852 43.06641 Q36.96289 48.38867 30.07812 48.38867 Q23.24219 48.38867 19.72656 43.06641 Q16.21094 37.69531 16.21094 27.29492 Q16.21094 16.89453 19.72656 11.57227 Q23.24219 6.20117 30.07812 6.20117 z" />
<glyph unicode="" horiz-adv-x="60.205078" d="M26.51367 81.68945 C28.30811 81.68945 31.89697 81.68945 33.69141 81.68945 C36.69434 77.09961 42.7002 67.91992 45.70312 63.33008 C44.00635 63.33008 40.61279 63.33008 38.91602 63.33008 C36.70654 66.3208 32.2876 72.30225 30.07812 75.29297 C27.88086 72.30225 23.48633 66.3208 21.28906 63.33008 C19.59228 63.33008 16.19873 63.33008 14.50195 63.33008 C17.50488 67.91992 23.51074 77.09961 26.51367 81.68945 zM30.07812 -1.41602 Q18.75 -1.41602 12.69531 5.9082 Q9.61914 9.7168 8.1543 15.1123 Q6.68945 20.50781 6.68945 27.34375 Q6.68945 41.21094 12.69531 48.63281 Q18.70117 56.00586 30.07812 56.00586 Q41.55273 56.00586 47.50977 48.63281 Q53.51562 41.21094 53.51562 27.39258 Q53.51562 13.13477 47.50977 5.9082 Q41.60156 -1.41602 30.07812 -1.41602 zM30.07812 6.20117 Q36.96289 6.20117 40.47852 11.57227 Q43.99414 16.89453 43.99414 27.29492 Q43.99414 37.69531 40.47852 43.06641 Q36.96289 48.38867 30.07812 48.38867 Q23.24219 48.38867 19.72656 43.06641 Q16.21094 37.69531 16.21094 27.29492 Q16.21094 16.89453 19.72656 11.57227 Q23.24219 6.20117 30.07812 6.20117 z" />
<glyph unicode="" horiz-adv-x="60.205078" d="M14.01367 62.79297 Q14.0625 69.28711 16.55273 72.94922 Q19.04297 76.5625 23.4375 76.5625 Q25.29297 76.5625 26.95312 75.87891 Q28.51562 75.14648 30.32227 73.58398 C31.25 72.6888 32.40967 71.56982 33.10547 70.89844 Q34.17969 69.9707 34.96094 69.48242 Q35.74219 68.99414 36.42578 68.99414 Q38.28125 68.99414 39.16016 70.80078 Q40.03906 72.65625 40.08789 76.5625 C42.1224 76.5625 44.66553 76.5625 46.19141 76.5625 Q46.14258 70.06836 43.65234 66.40625 Q41.16211 62.79297 36.76758 62.79297 Q34.91211 62.79297 33.25195 63.47656 Q31.68945 64.20898 29.88281 65.77148 C28.95508 66.66667 27.79541 67.78564 27.09961 68.45703 Q26.46484 69.04297 26.00098 69.38477 Q25.53711 69.72656 25.24414 69.92188 Q24.51172 70.36133 23.7793 70.36133 Q21.92383 70.36133 21.04492 68.55469 Q20.16602 66.74805 20.06836 62.79297 C18.05013 62.79297 15.52734 62.79297 14.01367 62.79297 zM30.07812 -1.41602 Q18.75 -1.41602 12.69531 5.9082 Q9.61914 9.7168 8.1543 15.1123 Q6.68945 20.50781 6.68945 27.34375 Q6.68945 41.21094 12.69531 48.63281 Q18.70117 56.00586 30.07812 56.00586 Q41.55273 56.00586 47.50977 48.63281 Q53.51562 41.21094 53.51562 27.39258 Q53.51562 13.13477 47.50977 5.9082 Q41.60156 -1.41602 30.07812 -1.41602 zM30.07812 6.20117 Q36.96289 6.20117 40.47852 11.57227 Q43.99414 16.89453 43.99414 27.29492 Q43.99414 37.69531 40.47852 43.06641 Q36.96289 48.38867 30.07812 48.38867 Q23.24219 48.38867 19.72656 43.06641 Q16.21094 37.69531 16.21094 27.29492 Q16.21094 16.89453 19.72656 11.57227 Q23.24219 6.20117 30.07812 6.20117 z" />
<glyph unicode="" horiz-adv-x="60.205078" d="M17.04102 65.91797 Q15.57617 65.91797 15.57617 67.38281 C15.57617 69.69401 15.57617 72.58301 15.57617 74.31641 Q15.57617 75.78125 17.04102 75.78125 C19.36849 75.78125 22.27783 75.78125 24.02344 75.78125 Q25.48828 75.78125 25.48828 74.31641 C25.48828 72.00521 25.48828 69.11621 25.48828 67.38281 Q25.48828 65.91797 24.02344 65.91797 C21.69596 65.91797 18.78662 65.91797 17.04102 65.91797 zM36.18164 65.91797 Q34.7168 65.91797 34.7168 67.38281 C34.7168 69.69401 34.7168 72.58301 34.7168 74.31641 Q34.7168 75.78125 36.18164 75.78125 C38.49284 75.78125 41.38184 75.78125 43.11523 75.78125 Q44.58008 75.78125 44.58008 74.31641 C44.58008 72.00521 44.58008 69.11621 44.58008 67.38281 Q44.58008 65.91797 43.11523 65.91797 C40.80404 65.91797 37.91504 65.91797 36.18164 65.91797 zM30.07812 -1.41602 Q18.75 -1.41602 12.69531 5.9082 Q9.61914 9.7168 8.1543 15.1123 Q6.68945 20.50781 6.68945 27.34375 Q6.68945 41.21094 12.69531 48.63281 Q18.70117 56.00586 30.07812 56.00586 Q41.55273 56.00586 47.50977 48.63281 Q53.51562 41.21094 53.51562 27.39258 Q53.51562 13.13477 47.50977 5.9082 Q41.60156 -1.41602 30.07812 -1.41602 zM30.07812 6.20117 Q36.96289 6.20117 40.47852 11.57227 Q43.99414 16.89453 43.99414 27.29492 Q43.99414 37.69531 40.47852 43.06641 Q36.96289 48.38867 30.07812 48.38867 Q23.24219 48.38867 19.72656 43.06641 Q16.21094 37.69531 16.21094 27.29492 Q16.21094 16.89453 19.72656 11.57227 Q23.24219 6.20117 30.07812 6.20117 z" />
<glyph unicode="" horiz-adv-x="60.205078" d="M25.58594 43.4082 Q24.12109 43.4082 24.12109 44.87305 C24.12109 47.90039 24.12109 51.68457 24.12109 53.95508 Q24.12109 55.41992 25.58594 55.41992 C28.59701 55.41992 32.36084 55.41992 34.61914 55.41992 Q36.08398 55.41992 36.08398 53.95508 C36.08398 50.92773 36.08398 47.14355 36.08398 44.87305 Q36.08398 43.4082 34.61914 43.4082 C31.60807 43.4082 27.84424 43.4082 25.58594 43.4082 zM4.29688 35.49805 C17.19971 35.49805 43.00537 35.49805 55.9082 35.49805 C55.9082 33.42285 55.9082 29.27246 55.9082 27.19727 C43.00537 27.19727 17.19971 27.19727 4.29688 27.19727 C4.29688 29.27246 4.29688 33.42285 4.29688 35.49805 zM25.58594 7.32422 Q24.12109 7.32422 24.12109 8.78906 C24.12109 11.80013 24.12109 15.56396 24.12109 17.82227 Q24.12109 19.28711 25.58594 19.28711 C28.59701 19.28711 32.36084 19.28711 34.61914 19.28711 Q36.08398 19.28711 36.08398 17.82227 C36.08398 14.8112 36.08398 11.04736 36.08398 8.78906 Q36.08398 7.32422 34.61914 7.32422 C31.60807 7.32422 27.84424 7.32422 25.58594 7.32422 z" />
<glyph unicode="" horiz-adv-x="60.205078" d="M2.29492 -0.97656 C4.37012 1.46484 8.52051 6.34766 10.5957 8.78906 Q9.47266 10.83984 8.83789 12.79297 Q8.20312 14.74609 7.71484 17.04102 Q6.68945 21.67969 6.68945 27.29492 Q6.68945 41.21094 12.69531 48.63281 Q18.70117 56.00586 30.0293 56.00586 Q32.42188 56.00586 34.69238 55.68848 Q36.96289 55.37109 38.81836 54.6875 Q40.625 54.05273 42.3584 53.02734 Q44.0918 52.00195 45.60547 50.58594 C47.99805 53.45052 50.98877 57.03125 52.7832 59.17969 C53.91846 58.23975 56.18896 56.35986 57.32422 55.41992 C55.32227 53.03955 51.31836 48.27881 49.31641 45.89844 Q51.36719 42.62695 52.44141 37.98828 Q53.51562 33.34961 53.51562 27.39258 Q53.51562 13.13477 47.50977 5.9082 Q41.50391 -1.41602 30.0293 -1.41602 Q27.34375 -1.41602 25.21973 -1.02539 Q23.0957 -0.63477 21.24023 0.04883 Q17.33398 1.46484 14.59961 4.39453 C11.99544 1.36719 8.74023 -2.41699 6.78711 -4.6875 C5.66406 -3.75977 3.41797 -1.9043 2.29492 -0.97656 zM39.89258 43.79883 Q38.28125 46.14258 35.79102 47.26562 Q33.25195 48.38867 30.07812 48.38867 Q23.29102 48.38867 19.67773 43.16406 Q17.91992 40.625 16.96777 36.96289 Q16.01562 33.30078 16.01562 28.27148 Q16.01562 25.58594 16.35742 22.90039 Q16.69922 20.01953 17.38281 16.60156 C24.88607 25.66732 34.26514 36.99951 39.89258 43.79883 zM30.0293 6.20117 Q36.96289 6.20117 40.47852 11.57227 Q43.99414 16.89453 43.99414 27.14844 Q43.99414 29.88281 43.70117 32.56836 Q43.60352 33.59375 43.4082 34.96094 Q43.21289 36.32812 42.82227 38.08594 C35.28646 28.98763 25.8667 17.61475 20.21484 10.79102 Q21.28906 9.42383 22.29004 8.66699 Q23.29102 7.91016 24.46289 7.37305 Q25.68359 6.83594 27.00195 6.51855 Q28.32031 6.20117 30.0293 6.20117 z" />
<glyph unicode="" horiz-adv-x="60.205078" d="M13.62305 80.27344 C16.04004 80.27344 20.87402 80.27344 23.29102 80.27344 C26.72119 75.68359 33.58154 66.50391 37.01172 61.91406 C35.13184 61.91406 31.37207 61.91406 29.49219 61.91406 C25.5249 66.50391 17.59033 75.68359 13.62305 80.27344 zM26.07422 -1.41602 Q17.72461 -1.41602 13.62305 4.10156 Q9.52148 9.57031 9.52148 20.70312 C9.52148 31.9987 9.52148 46.11816 9.52148 54.58984 C11.76758 54.58984 16.25977 54.58984 18.50586 54.58984 C18.50586 46.11816 18.50586 29.1748 18.50586 20.70312 Q18.50586 13.28125 21.14258 9.86328 Q22.41211 8.20312 24.34082 7.2998 Q26.26953 6.39648 29.19922 6.39648 Q35.54688 6.39648 38.91602 10.88867 Q42.28516 15.33203 42.28516 23.68164 C42.28516 33.98438 42.28516 46.86279 42.28516 54.58984 C44.54346 54.58984 49.06006 54.58984 51.31836 54.58984 C51.31836 40.94238 51.31836 13.64746 51.31836 0 C49.27978 0 45.20264 0 43.16406 0 C42.94434 2.05078 42.50488 6.15234 42.28516 8.20312 Q39.89258 3.4668 35.79102 1.02539 Q31.5918 -1.41602 26.07422 -1.41602 z" />
<glyph unicode="" horiz-adv-x="60.205078" d="M36.91406 80.27344 C39.33105 80.27344 44.16504 80.27344 46.58203 80.27344 C42.61475 75.68359 34.68018 66.50391 30.71289 61.91406 C28.83301 61.91406 25.07324 61.91406 23.19336 61.91406 C26.62353 66.50391 33.48389 75.68359 36.91406 80.27344 zM26.07422 -1.41602 Q17.72461 -1.41602 13.62305 4.10156 Q9.52148 9.57031 9.52148 20.70312 C9.52148 31.9987 9.52148 46.11816 9.52148 54.58984 C11.76758 54.58984 16.25977 54.58984 18.50586 54.58984 C18.50586 46.11816 18.50586 29.1748 18.50586 20.70312 Q18.50586 13.28125 21.14258 9.86328 Q22.41211 8.20312 24.34082 7.2998 Q26.26953 6.39648 29.19922 6.39648 Q35.54688 6.39648 38.91602 10.88867 Q42.28516 15.33203 42.28516 23.68164 C42.28516 33.98438 42.28516 46.86279 42.28516 54.58984 C44.54346 54.58984 49.06006 54.58984 51.31836 54.58984 C51.31836 40.94238 51.31836 13.64746 51.31836 0 C49.27978 0 45.20264 0 43.16406 0 C42.94434 2.05078 42.50488 6.15234 42.28516 8.20312 Q39.89258 3.4668 35.79102 1.02539 Q31.5918 -1.41602 26.07422 -1.41602 z" />
<glyph unicode="" horiz-adv-x="60.205078" d="M26.51367 80.27344 C28.30811 80.27344 31.89697 80.27344 33.69141 80.27344 C36.69434 75.68359 42.7002 66.50391 45.70312 61.91406 C44.00635 61.91406 40.61279 61.91406 38.91602 61.91406 C36.70654 64.90478 32.2876 70.88623 30.07812 73.87695 C27.88086 70.88623 23.48633 64.90478 21.28906 61.91406 C19.59228 61.91406 16.19873 61.91406 14.50195 61.91406 C17.50488 66.50391 23.51074 75.68359 26.51367 80.27344 zM26.07422 -1.41602 Q17.72461 -1.41602 13.62305 4.10156 Q9.52148 9.57031 9.52148 20.70312 C9.52148 31.9987 9.52148 46.11816 9.52148 54.58984 C11.76758 54.58984 16.25977 54.58984 18.50586 54.58984 C18.50586 46.11816 18.50586 29.1748 18.50586 20.70312 Q18.50586 13.28125 21.14258 9.86328 Q22.41211 8.20312 24.34082 7.2998 Q26.26953 6.39648 29.19922 6.39648 Q35.54688 6.39648 38.91602 10.88867 Q42.28516 15.33203 42.28516 23.68164 C42.28516 33.98438 42.28516 46.86279 42.28516 54.58984 C44.54346 54.58984 49.06006 54.58984 51.31836 54.58984 C51.31836 40.94238 51.31836 13.64746 51.31836 0 C49.27978 0 45.20264 0 43.16406 0 C42.94434 2.05078 42.50488 6.15234 42.28516 8.20312 Q39.89258 3.4668 35.79102 1.02539 Q31.5918 -1.41602 26.07422 -1.41602 z" />
<glyph unicode="" horiz-adv-x="60.205078" d="M17.04102 65.91797 Q15.57617 65.91797 15.57617 67.38281 C15.57617 69.69401 15.57617 72.58301 15.57617 74.31641 Q15.57617 75.78125 17.04102 75.78125 C19.36849 75.78125 22.27783 75.78125 24.02344 75.78125 Q25.48828 75.78125 25.48828 74.31641 C25.48828 72.00521 25.48828 69.11621 25.48828 67.38281 Q25.48828 65.91797 24.02344 65.91797 C21.69596 65.91797 18.78662 65.91797 17.04102 65.91797 zM36.18164 65.91797 Q34.7168 65.91797 34.7168 67.38281 C34.7168 69.69401 34.7168 72.58301 34.7168 74.31641 Q34.7168 75.78125 36.18164 75.78125 C38.49284 75.78125 41.38184 75.78125 43.11523 75.78125 Q44.58008 75.78125 44.58008 74.31641 C44.58008 72.00521 44.58008 69.11621 44.58008 67.38281 Q44.58008 65.91797 43.11523 65.91797 C40.80404 65.91797 37.91504 65.91797 36.18164 65.91797 zM26.07422 -1.41602 Q17.72461 -1.41602 13.62305 4.10156 Q9.52148 9.57031 9.52148 20.70312 C9.52148 31.9987 9.52148 46.11816 9.52148 54.58984 C11.76758 54.58984 16.25977 54.58984 18.50586 54.58984 C18.50586 46.11816 18.50586 29.1748 18.50586 20.70312 Q18.50586 13.28125 21.14258 9.86328 Q22.41211 8.20312 24.34082 7.2998 Q26.26953 6.39648 29.19922 6.39648 Q35.54688 6.39648 38.91602 10.88867 Q42.28516 15.33203 42.28516 23.68164 C42.28516 33.98438 42.28516 46.86279 42.28516 54.58984 C44.54346 54.58984 49.06006 54.58984 51.31836 54.58984 C51.31836 40.94238 51.31836 13.64746 51.31836 0 C49.27978 0 45.20264 0 43.16406 0 C42.94434 2.05078 42.50488 6.15234 42.28516 8.20312 Q39.89258 3.4668 35.79102 1.02539 Q31.5918 -1.41602 26.07422 -1.41602 z" />
</font>
</svg>
